<svg clip-rule="evenodd" fill-rule="evenodd" height="18.969mm" image-rendering="optimizeQuality" shape-rendering="geometricPrecision" text-rendering="geometricPrecision" viewBox="0 0 3325 1897" width="33.25mm" xmlns="http://www.w3.org/2000/svg"><path d="m1627 1889h199s60-7 90-40c28-30 28-87 28-87s-4-267 119-306c122-39 279 258 445 372 126 86 221 67 221 67l444-6s233-14 122-197c-9-15-64-135-330-382-278-258-241-217 94-664 205-272 286-438 261-509-24-68-175-50-175-50l-500 3s-37-5-64 11-44 54-44 54-79 211-185 390c-223 378-312 398-348 374-85-54-64-219-64-337 0-366 56-519-108-558-54-14-94-22-233-24-178-1-329 1-415 43-57 28-101 90-74 93 33 5 108 21 148 74 51 70 49 227 49 227s29 431-69 485c-67 36-160-39-358-382-102-175-179-370-179-370s-14-36-41-55c-32-24-77-31-77-31l-475 3s-71 2-97 33c-23 27-2 84-2 84s372 871 793 1309c386 402 825 376 825 376z" fill="#fefefe"/></svg>