<?xml version="1.0" encoding="UTF-8"?>
<!DOCTYPE svg PUBLIC "-//W3C//DTD SVG 1.1//EN" "http://www.w3.org/Graphics/SVG/1.1/DTD/svg11.dtd">
<!-- Creator: CorelDRAW X6 -->
<svg xmlns="http://www.w3.org/2000/svg" xml:space="preserve" width="33.25mm" height="18.969mm" version="1.1" style="shape-rendering:geometricPrecision; text-rendering:geometricPrecision; image-rendering:optimizeQuality; fill-rule:evenodd; clip-rule:evenodd"
viewBox="0 0 3325 1897"
 xmlns:xlink="http://www.w3.org/1999/xlink">
 <defs>
  <style type="text/css">
   <![CDATA[
    .fil0 {fill:#FEFEFE}
   ]]>
  </style>
 </defs>
 <g id="Слой_x0020_1">
  <metadata id="CorelCorpID_0Corel-Layer"/>
  <path class="fil0" d="M1627 1889l199 0c0,0 60,-7 90,-40 28,-30 28,-87 28,-87 0,0 -4,-267 119,-306 122,-39 279,258 445,372 126,86 221,67 221,67l444 -6c0,0 233,-14 122,-197 -9,-15 -64,-135 -330,-382 -278,-258 -241,-217 94,-664 205,-272 286,-438 261,-509 -24,-68 -175,-50 -175,-50l-500 3c0,0 -37,-5 -64,11 -27,16 -44,54 -44,54 0,0 -79,211 -185,390 -223,378 -312,398 -348,374 -85,-54 -64,-219 -64,-337 0,-366 56,-519 -108,-558 -54,-14 -94,-22 -233,-24 -178,-1 -329,1 -415,43 -57,28 -101,90 -74,93 33,5 108,21 148,74 51,70 49,227 49,227 0,0 29,431 -69,485 -67,36 -160,-39 -358,-382 -102,-175 -179,-370 -179,-370 0,0 -14,-36 -41,-55 -32,-24 -77,-31 -77,-31l-475 3c0,0 -71,2 -97,33 -23,27 -2,84 -2,84 0,0 372,871 793,1309 386,402 825,376 825,376z"/>
 </g>
</svg>
