<?xml version="1.0" encoding="utf-8"?>
<!-- Generator: Adobe Illustrator 21.0.0, SVG Export Plug-In . SVG Version: 6.00 Build 0)  -->
<svg version="1.1" id="Слой_1" xmlns="http://www.w3.org/2000/svg" xmlns:xlink="http://www.w3.org/1999/xlink" x="0px" y="0px"
	 viewBox="0 0 110 110" style="enable-background:new 0 0 110 110;" xml:space="preserve">
<style type="text/css">
	.st0{fill:#E04F5F;}
	.st1{fill:#3E3E3F;}
	.st2{fill:#E2E4E5;}
	.st3{fill:#F0F1F1;}
	.st4{fill:#FFFFFF;}
	.st5{fill:#CFD3D4;}
	.st6{fill:#5B5C5F;}
	.st7{fill:#17B198;}
</style>
<g id="Artboard">
</g>
<circle class="st0" cx="55" cy="54.8" r="55"/>
<g>
	<path class="st1" d="M87,73.6c0,1.6-1.3,2.9-2.9,2.9H25.9c-1.6,0-2.9-1.3-2.9-2.9V32.8c0-1.6,1.3-2.9,2.9-2.9h58.2
		c1.6,0,2.9,1.3,2.9,2.9V73.6z"/>
	<rect x="46.3" y="76.5" class="st2" width="17.5" height="7.5"/>
	<path class="st3" d="M69.5,85.4c0,0.8-0.7,1.5-1.5,1.5H41.9c-0.8,0-1.5-0.7-1.5-1.5s0.7-1.5,1.5-1.5h26.2
		C68.9,83.9,69.5,84.6,69.5,85.4z"/>
	<path class="st4" d="M87,73.6v-8.7H23v8.7c0,1.6,1.3,2.9,2.9,2.9h58.2C85.7,76.5,87,75.2,87,73.6z"/>
	<path class="st5" d="M55,74.8c-2.2,0-3.9-1.8-3.9-3.9s1.8-3.9,3.9-3.9s3.9,1.8,3.9,3.9C58.9,73,57.2,74.8,55,74.8z M55,68.9
		c-1.1,0-1.9,0.9-1.9,1.9c0,1.1,0.9,1.9,1.9,1.9s1.9-0.9,1.9-1.9C56.9,69.8,56.1,68.9,55,68.9z"/>
	<path class="st6" d="M23,32.8v32h19.7l34.9-34.9H25.9C24.3,29.9,23,31.2,23,32.8z"/>
	<circle class="st4" cx="55" cy="38.8" r="16"/>
	<path class="st7" d="M64.9,40.2c-0.2-0.5-0.7-0.8-1.2-0.8h-3.4v-9.2c0-0.7-0.6-1.3-1.3-1.3H51c-0.7,0-1.3,0.6-1.3,1.3v9.2h-3.4
		c-0.5,0-1,0.3-1.2,0.8s-0.1,1.1,0.3,1.4l8.7,7.9c0.5,0.5,1.3,0.5,1.9,0l8.7-7.9C65,41.2,65.1,40.6,64.9,40.2z"/>
</g>
</svg>
