<?xml version="1.0" encoding="utf-8"?>
<!-- Generator: Adobe Illustrator 21.0.0, SVG Export Plug-In . SVG Version: 6.00 Build 0)  -->
<svg version="1.1" id="Слой_1" xmlns="http://www.w3.org/2000/svg" xmlns:xlink="http://www.w3.org/1999/xlink" x="0px" y="0px"
	 viewBox="0 0 110 110" style="enable-background:new 0 0 110 110;" xml:space="preserve">
<style type="text/css">
	.st0{fill:#E04F5F;}
	.st1{fill:#4AC3AF;}
	.st2{fill:#8CE3D4;}
	.st3{fill:#0D9681;}
	.st4{fill:#C2F8F0;}
	.st5{fill:#17B198;}
	.st6{fill:#FFFFFF;}
	.st7{fill:#FBE158;}
</style>
<g id="Artboard">
</g>
<circle class="st0" cx="55" cy="55" r="55"/>
<g>
	<rect x="23" y="69" class="st1" width="64" height="18"/>
	<polygon class="st2" points="23,69 31,53 79,53 87,69 	"/>
	<polygon class="st3" points="28,67 34,55 76,55 82,67 	"/>
	<circle class="st4" cx="71" cy="61" r="1"/>
	<circle class="st4" cx="39" cy="61" r="1"/>
	<ellipse class="st4" cx="55" cy="61" rx="6" ry="5"/>
	<g>
		<path class="st5" d="M55,57.5c0.3,0,0.5,0.2,0.5,0.4V58c0.5,0.1,1,0.2,1.4,0.4c0.2,0.1,0.3,0.2,0.3,0.5c0,0.3-0.3,0.5-0.6,0.5
			c-0.1,0-0.2,0-0.3-0.1c-0.3-0.1-0.5-0.2-0.8-0.3v1.2c1.4,0.3,2,0.8,2,1.7c0,0.9-0.8,1.4-2,1.5v0.4c0,0.2-0.2,0.4-0.5,0.4
			s-0.5-0.2-0.5-0.4v-0.4c-0.7-0.1-1.3-0.3-1.8-0.5c-0.2-0.1-0.3-0.3-0.3-0.5c0-0.3,0.3-0.5,0.6-0.5c0.1,0,0.3,0,0.4,0.1
			c0.4,0.2,0.8,0.4,1.2,0.4v-1.2c-1.4-0.3-2-0.7-2-1.7c0-0.9,0.8-1.4,2-1.5v-0.1C54.5,57.7,54.7,57.5,55,57.5z M54.5,60V59
			c-0.5,0.1-0.6,0.2-0.6,0.5C53.9,59.7,54,59.9,54.5,60z M55.4,61.4v1.1c0.4-0.1,0.7-0.2,0.7-0.5C56.1,61.7,55.9,61.6,55.4,61.4z"/>
	</g>
	<rect x="23" y="71" class="st4" width="64" height="2"/>
	<rect x="23" y="75" class="st4" width="64" height="2"/>
	<rect x="23" y="79" class="st4" width="64" height="2"/>
	<rect x="23" y="83" class="st4" width="64" height="2"/>
	<polygon class="st2" points="23,71 44.5,71 46.5,69 23,69 	"/>
	<polygon class="st2" points="23,75 40.5,75 42.5,73 23,73 	"/>
	<polygon class="st2" points="23,85 23,87 28.5,87 30.5,85 	"/>
	<polygon class="st2" points="23,79 36.5,79 38.5,77 23,77 	"/>
	<polygon class="st2" points="23,83 32.5,83 34.5,81 23,81 	"/>
	<polygon class="st4" points="23,69 46.5,69 48.5,67 28,67 34,55 60.5,55 62.5,53 31,53 	"/>
	<path class="st5" d="M49,61c0-2.8,2.7-5,6-5c1.3,0,2.6,0.4,3.6,1l2-2H34l-6,12h20.5l2.4-2.4C49.7,63.7,49,62.4,49,61z M39,62
		c-0.6,0-1-0.4-1-1s0.4-1,1-1s1,0.4,1,1S39.6,62,39,62z"/>
	<circle class="st6" cx="39" cy="61" r="1"/>
	<path class="st6" d="M49,61c0,1.4,0.7,2.7,1.9,3.6l1.7-1.7c-0.2-0.1-0.3-0.3-0.3-0.5c0-0.3,0.3-0.5,0.6-0.5c0.1,0,0.3,0,0.4,0.1
		c0,0,0.1,0,0.1,0.1l0.9-0.9c-1.2-0.3-1.8-0.7-1.8-1.6c0-0.9,0.8-1.4,2-1.5v-0.1c0-0.2,0.2-0.4,0.5-0.4s0.5,0.2,0.5,0.4V58
		c0.5,0.1,1,0.2,1.4,0.4c0.1,0,0.1,0.1,0.2,0.1l1.6-1.6c-1-0.6-2.2-1-3.6-1C51.7,56,49,58.2,49,61z"/>
	<path class="st6" d="M55.4,59.1v1.1l0.8-0.8c0,0,0,0,0,0C55.9,59.2,55.7,59.1,55.4,59.1z"/>
	<path class="st6" d="M53.9,59.5c0,0.2,0.1,0.4,0.6,0.6V59C54.1,59,53.9,59.2,53.9,59.5z"/>
	<polygon class="st6" points="23,73 42.5,73 44.5,71 23,71 	"/>
	<polygon class="st6" points="23,77 38.5,77 40.5,75 23,75 	"/>
	<polygon class="st6" points="23,81 34.5,81 36.5,79 23,79 	"/>
	<polygon class="st6" points="23,85 30.5,85 32.5,83 23,83 	"/>
	<polygon class="st7" points="69.7,28.6 73.9,32.9 65,41.7 55,31.7 33.8,53 42.2,53 55,40.2 65,50.2 78.1,37.1 82.4,41.3 87,24 	"/>
</g>
</svg>
