<?xml version="1.0" encoding="utf-8"?>
<!-- Generator: Adobe Illustrator 21.0.0, SVG Export Plug-In . SVG Version: 6.00 Build 0)  -->
<svg version="1.1" id="Слой_1" xmlns="http://www.w3.org/2000/svg" xmlns:xlink="http://www.w3.org/1999/xlink" x="0px" y="0px"
	 viewBox="0 0 110 110" style="enable-background:new 0 0 110 110;" xml:space="preserve">
<style type="text/css">
	.st0{fill:#E04F5F;}
	.st1{fill:#F3B607;}
	.st2{fill:#FBE158;}
	.st3{fill:#F0F1F1;}
	.st4{fill:#CFD3D4;}
	.st5{fill:#3E3E3F;}
	.st6{fill:#FFFFFF;}
</style>
<g id="Artboard">
</g>
<g id="Multicolor">
	<circle class="st0" cx="55" cy="55" r="55"/>
	<g>
		<path class="st1" d="M45.2,60c-0.2-0.5-0.6-0.8-1.1-0.8h-7.5c-0.5,0-0.9,0.3-1.1,0.8l-4.1,12.2c-0.1,0.2,0,0.4,0.1,0.5
			c0.1,0.1,0.3,0.2,0.5,0.2h16.7c0.2,0,0.4-0.1,0.5-0.2s0.1-0.3,0.1-0.5L45.2,60z"/>
		<path class="st1" d="M54.2,46.3c-0.2-0.5-0.6-0.8-1.1-0.8h-7.5c-0.5,0-0.9,0.3-1.1,0.8l-4.1,12.2c-0.1,0.2,0,0.4,0.1,0.5
			c0.1,0.1,0.3,0.2,0.5,0.2h16.7c0.2,0,0.4-0.1,0.5-0.2s0.1-0.3,0.1-0.5L54.2,46.3z"/>
		<path class="st1" d="M63.1,60c-0.2-0.5-0.6-0.8-1.1-0.8h-7.5c-0.5,0-0.9,0.3-1.1,0.8l-4.1,12.2c-0.1,0.2,0,0.4,0.1,0.5
			c0.1,0.1,0.3,0.2,0.5,0.2h16.7c0.2,0,0.4-0.1,0.5-0.2c0.1-0.1,0.1-0.3,0.1-0.5L63.1,60z"/>
		<path class="st2" d="M44.1,59.2h-7.5c-0.5,0-0.9,0.3-1.1,0.8l-4.1,12.2c-0.1,0.2,0,0.4,0.1,0.5c0,0.1,0.1,0.1,0.2,0.1L45,59.6
			C44.8,59.4,44.5,59.2,44.1,59.2z"/>
		<path class="st2" d="M53.1,45.5h-7.5c-0.5,0-0.9,0.3-1.1,0.8l-4.1,12.2c-0.1,0.2,0,0.4,0.1,0.5c0,0.1,0.1,0.1,0.2,0.1l13.3-13.3
			C53.7,45.6,53.4,45.5,53.1,45.5z"/>
		<path class="st1" d="M62.9,32.5c-0.2-0.5-0.6-0.8-1.1-0.8h-7.5c-0.5,0-0.9,0.3-1.1,0.8l-4.1,12.2c-0.1,0.2,0,0.4,0.1,0.5
			c0.1,0.1,0.3,0.2,0.5,0.2h16.7c0.2,0,0.4-0.1,0.5-0.2c0.1-0.1,0.1-0.3,0.1-0.5L62.9,32.5z"/>
		<path class="st2" d="M61.8,31.7h-7.5c-0.5,0-0.9,0.3-1.1,0.8l-4.1,12.2c-0.1,0.2,0,0.4,0.1,0.5c0,0.1,0.1,0.1,0.2,0.1l13.3-13.3
			C62.4,31.9,62.1,31.7,61.8,31.7z"/>
		<path class="st1" d="M71.9,46.3c-0.2-0.5-0.6-0.8-1.1-0.8h-7.5c-0.5,0-0.9,0.3-1.1,0.8l-4.1,12.2c-0.1,0.2,0,0.4,0.1,0.5
			c0.1,0.1,0.3,0.2,0.5,0.2h16.7c0.2,0,0.4-0.1,0.5-0.2c0.1-0.1,0.1-0.3,0.1-0.5L71.9,46.3z"/>
		<path class="st2" d="M70.8,45.5h-7.5c-0.5,0-0.9,0.3-1.1,0.8l-4.1,12.2c-0.1,0.2,0,0.4,0.1,0.5c0,0.1,0.1,0.1,0.2,0.1l13.3-13.3
			C71.4,45.6,71.1,45.5,70.8,45.5z"/>
		<path class="st2" d="M62,59.2h-7.5c-0.5,0-0.9,0.3-1.1,0.8l-4.1,12.2c-0.1,0.2,0,0.4,0.1,0.5c0,0.1,0.1,0.1,0.2,0.1l13.3-13.3
			C62.7,59.4,62.4,59.2,62,59.2z"/>
		<path class="st1" d="M81.1,60c-0.2-0.5-0.6-0.8-1.1-0.8h-7.5c-0.5,0-0.9,0.3-1.1,0.8l-4.1,12.2c-0.1,0.2,0,0.4,0.1,0.5
			c0.1,0.1,0.3,0.2,0.5,0.2h16.7c0.2,0,0.4-0.1,0.5-0.2c0.1-0.1,0.1-0.3,0.1-0.5L81.1,60z"/>
		<path class="st2" d="M80,59.2h-7.5c-0.5,0-0.9,0.3-1.1,0.8l-4.1,12.2c-0.1,0.2,0,0.4,0.1,0.5c0,0.1,0.1,0.1,0.2,0.1l13.3-13.3
			C80.7,59.4,80.4,59.2,80,59.2z"/>
		<path class="st3" d="M87,81H31c-2.2,0-4-1.8-4-4v-4h60V81z"/>
		<g>
			<path class="st4" d="M31,73h-4V38c0-0.6-0.4-1-1-1h-3v-4h6c1.1,0,2,0.9,2,2V73z"/>
		</g>
		<circle class="st5" cx="35" cy="81" r="6"/>
		<circle class="st6" cx="35" cy="81" r="1.5"/>
		<circle class="st5" cx="77" cy="81" r="6"/>
		<circle class="st6" cx="77" cy="81" r="1.5"/>
		<g>
			<path class="st6" d="M85.4,39.1c0.1,0,0.1-0.1,0.1-0.1v0c0-0.1,0-0.1-0.1-0.1c-3.3-0.5-5.3-2.4-5.8-5.8c0-0.1-0.1-0.1-0.1-0.1h0
				c-0.1,0-0.1,0-0.1,0.1c-0.5,3.3-2.4,5.3-5.8,5.8c-0.1,0-0.1,0.1-0.1,0.1v0c0,0.1,0,0.1,0.1,0.1c3.3,0.5,5.3,2.4,5.8,5.8
				c0,0.1,0.1,0.1,0.1,0.1h0c0.1,0,0.1,0,0.1-0.1C80.1,41.6,82.1,39.6,85.4,39.1z"/>
		</g>
		<g>
			<path class="st6" d="M46.9,31.3C47,31.3,47,31.3,46.9,31.3L46.9,31.3c0.1-0.1,0-0.2,0-0.2c-2.2-0.3-3.5-1.6-3.8-3.8
				c0,0,0-0.1-0.1-0.1h0c0,0-0.1,0-0.1,0.1c-0.3,2.2-1.6,3.5-3.8,3.8c0,0-0.1,0-0.1,0.1v0c0,0,0,0.1,0.1,0.1
				c2.2,0.3,3.5,1.6,3.8,3.8c0,0,0,0.1,0.1,0.1h0c0,0,0.1,0,0.1-0.1C43.4,33,44.7,31.7,46.9,31.3z"/>
		</g>
	</g>
</g>
</svg>
