<svg viewBox="0 0 28.0166 27.69775" xmlns="http://www.w3.org/2000/svg"><g fill="#fff" transform="translate(.2998 .29993)"><path d="m27.70117 3.17371a2.23924 2.23924 0 0 0 -2.23437-2.23438h-2.08789v-.24414a.99683.99683 0 0 0 -.99659-.99419h-.00146a.9982.9982 0 0 0 -.99365.99463v.2437h-15.3584v-.24365a.99561.99561 0 0 0 -1.99121 0v.24365h-2.103a2.24092 2.24092 0 0 0 -2.2344 2.23486v21.98829a2.24018 2.24018 0 0 0 2.23486 2.23535h23.54639a2.2406 2.2406 0 0 0 2.23535-2.23535zm-22.66846 1.61572h.001a.99819.99819 0 0 0 .99512-.99609v-.8628h15.3584v.8623a.99714.99714 0 0 0 .99414.998h.00146a.99724.99724 0 0 0 .99609-.99658v-.86372h2.08788a.24571.24571 0 0 1 .24414.24365v3.3169h-24.01953v-3.3169a.244.244 0 0 1 .24365-.24365h2.10254v.86328a.99808.99808 0 0 0 .99511.99561zm-3.3413 3.69238h24.01953l.01367 16.68066a.244.244 0 0 1 -.24316.24414h-23.54639a.24413.24413 0 0 1 -.24365-.24414z"/><path d="m17.96582 13.60535.0166-.00049a1.04154 1.04154 0 0 0 -.01562-2.083h-.001a1.05627 1.05627 0 0 0 -1.04639 1.05127 1.04684 1.04684 0 0 0 1.04639 1.03223z"/><path d="m22.22363 13.60535.0166-.00049a1.04154 1.04154 0 0 0 -.01562-2.083h-.001a1.05627 1.05627 0 0 0 -1.04639 1.05127 1.04684 1.04684 0 0 0 1.04639 1.03223z"/><path d="m5.19238 13.60535.01514-.00049a1.04153 1.04153 0 0 0 -.01514-2.083h-.001a1.04176 1.04176 0 1 0 .001 2.0835z"/><path d="m9.4502 13.60535.01514-.00049a1.04153 1.04153 0 0 0 -.01465-2.083h-.001a1.05627 1.05627 0 0 0 -1.04639 1.05127 1.04687 1.04687 0 0 0 1.0469 1.03222z"/><path d="m13.708 13.60486.0166-.00049a1.04129 1.04129 0 0 0 -.01562-2.08252h-.001a1.057 1.057 0 0 0 -1.04687 1.05127 1.0477 1.0477 0 0 0 1.04689 1.03174z"/><path d="m17.9668 18.14783.01563-.00049a1.04154 1.04154 0 0 0 -.01562-2.083h-.001a1.05627 1.05627 0 0 0 -1.04639 1.05127 1.04684 1.04684 0 0 0 1.04736 1.03223z"/><path d="m22.2251 18.14783.01514-.00049a1.04154 1.04154 0 0 0 -.01562-2.083h-.001a1.04176 1.04176 0 1 0 .00146 2.0835z"/><path d="m5.19238 18.14783.01514-.00049a1.04153 1.04153 0 0 0 -.01514-2.083h-.001a1.04176 1.04176 0 1 0 .001 2.0835z"/><path d="m9.4502 18.14783.01514-.00049a1.04153 1.04153 0 0 0 -.01465-2.083h-.001a1.05627 1.05627 0 0 0 -1.04637 1.05126 1.04687 1.04687 0 0 0 1.04688 1.03223z"/><path d="m13.708 18.14734.0166-.00049a1.04129 1.04129 0 0 0 -.01562-2.08252h-.001a1.057 1.057 0 0 0 -1.04687 1.05127 1.0477 1.0477 0 0 0 1.04689 1.03174z"/><path d="m17.96631 22.59167.01514-.00049a1.04178 1.04178 0 0 0 -.01465-2.0835h-.001a1.05627 1.05627 0 0 0 -1.04637 1.05132 1.04685 1.04685 0 0 0 1.04688 1.03271z"/><path d="m22.22461 22.59167.01514-.00049a1.04178 1.04178 0 0 0 -.01514-2.0835h-.001a1.05627 1.05627 0 0 0 -1.04636 1.05132 1.0477 1.0477 0 0 0 1.04736 1.03271z"/><path d="m5.19189 22.59167.01514-.00049a1.04178 1.04178 0 0 0 -.01465-2.0835h-.001a1.042 1.042 0 1 0 .00049 2.084z"/><path d="m9.4502 22.59167.01514-.00049a1.04178 1.04178 0 0 0 -.01465-2.0835h-.001a1.042 1.042 0 1 0 .00049 2.084z"/><path d="m13.7085 22.59119.01514-.00049a1.04153 1.04153 0 0 0 -.01465-2.083h-.001a1.04176 1.04176 0 1 0 .00049 2.0835z"/></g></svg>