<svg viewBox="0 0 14.58803 14.58803" xmlns="http://www.w3.org/2000/svg"><g fill="#999baf"><path d="m258.10044 262.338h-6.11284a4.24239 4.24239 0 0 1 -4.2376-4.2376v-6.1128a4.24239 4.24239 0 0 1 4.2376-4.2376h6.11287a4.24239 4.24239 0 0 1 4.23757 4.2376v6.11287a4.24239 4.24239 0 0 1 -4.2376 4.23753zm-6.11284-13.44834a3.10141 3.10141 0 0 0 -3.09791 3.0979v6.11287a3.10141 3.10141 0 0 0 3.09791 3.09788h6.11287a3.1014 3.1014 0 0 0 3.09787-3.09791v-6.1128a3.1014 3.1014 0 0 0 -3.0979-3.0979z" transform="translate(-247.75 -247.75)"/><path d="m255.044 258.97595a3.93193 3.93193 0 1 1 3.93193-3.93193 3.93636 3.93636 0 0 1 -3.93193 3.93193zm0-6.72417a2.79224 2.79224 0 1 0 2.79224 2.79224 2.79542 2.79542 0 0 0 -2.79224-2.79224z" transform="translate(-247.75 -247.75)"/><circle cx="11.28293" cy="3.3051" r=".56985"/></g></svg>