<?xml version="1.0" encoding="UTF-8"?>
<!DOCTYPE svg PUBLIC "-//W3C//DTD SVG 1.1//EN" "http://www.w3.org/Graphics/SVG/1.1/DTD/svg11.dtd">
<!-- Creator: CorelDRAW X6 -->
<svg xmlns="http://www.w3.org/2000/svg" xml:space="preserve" width="31.63mm" height="30.346mm" version="1.1" style="shape-rendering:geometricPrecision; text-rendering:geometricPrecision; image-rendering:optimizeQuality; fill-rule:evenodd; clip-rule:evenodd"
viewBox="0 0 3163 3035"
 xmlns:xlink="http://www.w3.org/1999/xlink">
 <defs>
  <style type="text/css">
   <![CDATA[
    .fil0 {fill:#FEFEFE;fill-rule:nonzero}
   ]]>
  </style>
 </defs>
 <g id="Слой_x0020_1">
  <metadata id="CorelCorpID_0Corel-Layer"/>
  <path class="fil0" d="M1527 630c241,0 469,107 636,274l0 1c0,-81 54,-141 129,-141l19 0c117,0 141,111 141,146l1 1249c-9,81 84,124 135,71 201,-206 441,-1059 -124,-1553 -527,-461 -1234,-385 -1609,-126 -400,275 -655,885 -407,1458 271,624 1045,811 1506,625 233,-94 340,221 98,324 -366,156 -1384,140 -1859,-684 -322,-556 -305,-1535 548,-2042 652,-388 1511,-281 2030,260 541,566 510,1626 -19,2038 -239,187 -595,5 -593,-268l-2 -89c-167,166 -389,262 -630,262 -478,0 -898,-420 -898,-898 0,-482 420,-907 898,-907zm601 873c-18,-350 -278,-560 -591,-560l-12 0c-362,0 -563,284 -563,608 0,361 243,590 562,590 354,0 588,-260 605,-567l-1 -71z"/>
 </g>
</svg>
