<?xml version="1.0" encoding="UTF-8"?>
<!DOCTYPE svg PUBLIC "-//W3C//DTD SVG 1.1//EN" "http://www.w3.org/Graphics/SVG/1.1/DTD/svg11.dtd">
<!-- Creator: CorelDRAW X6 -->
<svg xmlns="http://www.w3.org/2000/svg" xml:space="preserve" width="28.166mm" height="28.386mm" version="1.1" style="shape-rendering:geometricPrecision; text-rendering:geometricPrecision; image-rendering:optimizeQuality; fill-rule:evenodd; clip-rule:evenodd"
viewBox="0 0 2817 2839"
 xmlns:xlink="http://www.w3.org/1999/xlink">
 <defs>
  <style type="text/css">
   <![CDATA[
    .fil0 {fill:#FEFEFE}
   ]]>
  </style>
 </defs>
 <g id="Слой_x0020_1">
  <metadata id="CorelCorpID_0Corel-Layer"/>
  <path class="fil0" d="M2082 1697c-34,-19 -205,-111 -237,-124 -32,-13 -55,-20 -80,15 -25,34 -95,111 -117,134 -21,23 -42,25 -77,6 -34,-19 -146,-61 -277,-186 -101,-97 -168,-216 -187,-252 -19,-36 0,-54 18,-71 17,-15 37,-40 55,-60 19,-20 25,-34 38,-57 13,-24 8,-44 -1,-62 -8,-18 -72,-195 -99,-266 -26,-72 -56,-62 -77,-62 -20,-1 -44,-5 -67,-6 -24,-1 -63,7 -96,41 -34,34 -128,116 -135,290 -6,173 114,346 131,370 16,24 229,401 583,555 353,155 355,108 420,105 65,-4 212,-78 244,-159 33,-82 36,-152 27,-167 -8,-15 -31,-25 -66,-44zm-648 837c-234,0 -452,-70 -633,-190l-443 141 144 -427c-138,-190 -219,-423 -219,-675 0,-635 516,-1151 1151,-1151 635,0 1151,516 1151,1151 0,634 -516,1151 -1151,1151zm0 -2534c-764,0 -1383,619 -1383,1383 0,261 73,505 199,714l-250 742 766 -245c198,109 425,172 668,172 764,0 1383,-620 1383,-1383 0,-764 -619,-1383 -1383,-1383z"/>
 </g>
</svg>
