<svg viewBox="0 0 33.55667 33.55667" xmlns="http://www.w3.org/2000/svg"><g fill="#fff" transform="translate(42.7483)"><path d="m-25.97 0a16.76889 16.76889 0 0 0 -16.7783 16.77833 16.76885 16.76885 0 0 0 16.7783 16.77834 16.76889 16.76889 0 0 0 16.77837-16.77834 16.76885 16.76885 0 0 0 -16.77837-16.77833zm0 30.93505a14.14875 14.14875 0 0 1 -14.15668-14.15672 14.14871 14.14871 0 0 1 14.15668-14.15672 14.14875 14.14875 0 0 1 14.15675 14.15672 14.14871 14.14871 0 0 1 -14.15675 14.15672z"/><path d="m-20.22948 11.03792a1.31078 1.31078 0 0 0 -1.85374 0l-3.88678 3.88667-3.88674-3.88667a1.31072 1.31072 0 0 0 -1.85374 0 1.31078 1.31078 0 0 0 .00007 1.85374l3.88667 3.88667-3.88664 3.88667a1.31072 1.31072 0 0 0 -.00007 1.85374 1.31078 1.31078 0 0 0 1.85374 0l3.88671-3.88666 3.88674 3.88667a1.31078 1.31078 0 0 0 1.85374 0 1.31072 1.31072 0 0 0 -.00007-1.85374l-3.88667-3.88667 3.88667-3.88667a1.31084 1.31084 0 0 0 .00011-1.85375z"/></g></svg>