<svg viewBox="0 0 30.42969 30.43018" xmlns="http://www.w3.org/2000/svg"><path d="m35.26367 16.43835a2.92853 2.92853 0 0 0 -2.81641-2.72168h-2.4375v-6.064a2.81836 2.81836 0 0 0 -2.74316-2.81783h-19.61426a2.85532 2.85532 0 0 0 -2.81734 2.81787v15.91309a2.81793 2.81793 0 0 0 2.81734 2.7432h2.36377v6.13867a2.8549 2.8549 0 0 0 2.81739 2.81733h19.61377a2.8549 2.8549 0 0 0 2.81738-2.81738zm-2.30273 5.43018v10.5791a.60268.60268 0 0 1 -.58789.58691l-19.48633.00391a.73542.73542 0 0 1 -.64062-.59082v-10.5791zm-5.18164-8.15186h-14.9458a2.8549 2.8549 0 0 0 -2.81738 2.81738v7.54443h-2.36378a.5995.5995 0 0 1 -.58691-.5127v-15.91307a.60258.60258 0 0 1 .58691-.5874h19.61426a.59963.59963 0 0 1 .5127.5874zm5.25586 2.74365v3.17773h-20.78907v-3.17772a.60267.60267 0 0 1 .5874-.5874h19.61378a.60277.60277 0 0 1 .58789.5874z" fill="#fff" transform="translate(-4.83496 -4.83484)"/></svg>