<svg viewBox="0 0 31.66863 31.66863" xmlns="http://www.w3.org/2000/svg"><g fill="#5a5381" transform="translate(5.83529 5.83334)"><path d="m9.999-5.83334a15.83432 15.83432 0 1 0 15.83433 15.83434 15.85241 15.85241 0 0 0 -15.83433-15.83434zm0 28.78947a12.9552 12.9552 0 1 1 12.95518-12.95513 12.96965 12.96965 0 0 1 -12.95518 12.95514zm0 0"/><path d="m9.99871.88439a1.91928 1.91928 0 1 0 1.919 1.9199 1.92172 1.92172 0 0 0 -1.919-1.9199zm0 0"/><path d="m9.999 7.6018a1.43942 1.43942 0 0 0 -1.43937 1.43939v8.637a1.43939 1.43939 0 0 0 2.87877 0v-8.637a1.43942 1.43942 0 0 0 -1.4394-1.43939zm0 0"/></g></svg>