<svg viewBox="0 0 32.16164 32.1679" xmlns="http://www.w3.org/2000/svg"><path d="m13.31257 9.11368a8.65554 8.65554 0 0 0 2.77122-10.61212 8.50486 8.50486 0 0 0 -5.72419-4.74916 8.65063 8.65063 0 0 0 -10.75124 8.3786 8.6591 8.6591 0 0 0 3.56036 6.98268c-5.3795 1.47426-11.0089 5.991-11.0089 11.18443v2.6418a2.72676 2.72676 0 0 0 2.72676 2.72676h27.31527c1.47436 0 2.11962-1.47436 2.11962-2.54666v-2.8219c0-5.19184-5.288-9.64311-11.0089-11.18443zm-5.07193 2.067c3.18644 0 13.12555 2.78486 13.12555 9.00624v1.65341a.96736.96736 0 0 1 -.96736.96736h-24.42045a.87669.87669 0 0 1 -.87669-.87669v-1.74413c0-6.22137 10.09286-9.00623 13.13896-9.00623zm-5.53981-7.94483a5.64195 5.64195 0 1 1 4.42787 4.42787 5.65615 5.65615 0 0 1 -4.42787-4.42787z" fill="#584286" transform="translate(7.84017 6.50124)"/></svg>