<svg viewBox="0 0 32.91776 32.92098" xmlns="http://www.w3.org/2000/svg"><path d="m-82.08333 1.03871a16.4785 16.4785 0 0 0 -16.45967-16.45971 16.33637 16.33637 0 0 0 -11.62026 4.86032 16.36676 16.36676 0 0 0 -4.83782 11.601 16.4785 16.4785 0 0 0 16.45967 16.45968 16.40772 16.40772 0 0 0 11.65462-4.84987l-.03436-.01045a16.36676 16.36676 0 0 0 4.83782-11.60097zm-2.99285 0a13.35973 13.35973 0 0 1 -2.95427 8.36588 13.66946 13.66946 0 0 1 -2.82955-8.36427 13.69946 13.69946 0 0 1 2.82828-8.3689 13.36018 13.36018 0 0 1 2.95553 8.36729zm-26.93206.00161a13.35973 13.35973 0 0 1 2.95424-8.36589 13.66946 13.66946 0 0 1 2.82959 8.36427 13.69946 13.69946 0 0 1 -2.82828 8.3689 13.36018 13.36018 0 0 1 -2.95555-8.36728zm21.73777 10.5843a13.35535 13.35535 0 0 1 -8.27094 2.88253 13.36392 13.36392 0 0 1 -8.27425-2.87811 16.76455 16.76455 0 0 0 3.72117-10.59033 16.76662 16.76662 0 0 0 -3.70871-10.57395l-.01527-.01176.00452.00141a13.35535 13.35535 0 0 1 8.27095-2.88253 13.36392 13.36392 0 0 1 8.27423 2.87812 16.76455 16.76455 0 0 0 -3.72117 10.59032 16.76662 16.76662 0 0 0 3.70871 10.57395l.01527.01176z" fill="#574582" transform="translate(115.00109 15.42098)"/></svg>