<svg fill="none" height="35" viewBox="0 0 35 35" width="35" xmlns="http://www.w3.org/2000/svg"><path d="m17.8506.897461c-9.36299 0-16.953139 7.590149-16.953139 16.953139 0 9.363 7.590149 16.9531 16.953139 16.9531 9.363 0 16.9531-7.5901 16.9531-16.9531 0-9.36299-7.5901-16.953139-16.9531-16.953139zm8.0072 23.703839c-.1088.1276-2.7191 3.1261-7.5094 3.1261-5.7894 0-9.87679-4.3244-9.87679-9.9508 0-5.5579 4.23859-9.80285 9.82749-9.80285 4.5771 0 6.9703 2.55085 7.0699 2.65945.1227.1338.1976.3045.2129.4854s-.0298.3617-.1283.5142l-1.5299 2.369c-.2768.4284-.8732.5025-1.2465.1569-.0159-.0146-1.8135-1.6324-4.23-1.6324-3.1525 0-5.0529 2.2951-5.0529 5.2009 0 2.7072 1.7441 5.4477 5.0775 5.4477 2.6453 0 4.4625-1.9372 4.4806-1.9568.3508-.3804.961-.344 1.2652.072l1.678 2.2949c.1089.149.1644.3303.1575.5147-.0068.1844-.0756.3611-.1953.5016z" fill="#fff"/></svg>