<svg fill="none" height="46" viewBox="0 0 33 46" width="33" xmlns="http://www.w3.org/2000/svg"><path d="m28.05 0h-23.1c-2.73281 0-4.95 1.93164-4.95 4.3125v37.375c0 2.3809 2.21719 4.3125 4.95 4.3125h23.1c2.7328 0 4.95-1.9316 4.95-4.3125v-37.375c0-2.38086-2.2172-4.3125-4.95-4.3125zm-11.55 43.125c-1.8253 0-3.3-1.2848-3.3-2.875s1.4747-2.875 3.3-2.875 3.3 1.2848 3.3 2.875-1.4747 2.875-3.3 2.875zm11.55-9.7031c0 .5929-.5569 1.0781-1.2375 1.0781h-20.625c-.68062 0-1.2375-.4852-1.2375-1.0781v-28.03128c0-.59296.55688-1.07812 1.2375-1.07812h20.625c.6806 0 1.2375.48516 1.2375 1.07812z" fill="#fff"/></svg>