<svg fill="#4c4f78" height="16" viewBox="0 0 15 16" width="15" xmlns="http://www.w3.org/2000/svg"><path d="m10.2857 6.71429c0 2.20535-1.79463 4.00001-3.99999 4.00001-2.20535 0-4-1.79466-4-4.00001 0-2.20536 1.79465-4.00001 4-4.00001 2.20536 0 3.99999 1.79465 3.99999 4.00001zm4.5714 7.42861c0-.3036-.125-.5983-.3303-.8036l-3.0625-3.0625c.7232-1.04466 1.1071-2.29466 1.1071-3.56251 0-3.47322-2.81247-6.285719-6.28569-6.285719-3.47321 0-6.28571 2.812499-6.28571 6.285719 0 3.47321 2.8125 6.28571 6.28571 6.28571 1.26786 0 2.51786-.3839 3.56251-1.1071l3.06248 3.0535c.2054.2143.5.3393.8036.3393.625 0 1.1428-.5178 1.1428-1.1428z" fill="#4c4f78"/></svg>