<svg viewBox="0 0 70.48657 53.31446" xmlns="http://www.w3.org/2000/svg"><g transform="translate(.00022 .00002)"><path d="m31.87009 35.96911-16.88617-12.60425c-3.81342-2.84641-3.98477-8.75851-.36578-12.62064l7.33957-7.83267a8.58174 8.58174 0 0 1 9.38345-2.39111l19.22849 7.84271c4.79886 1.95731 6.06036 8.23969 2.567 12.78387l-9.6819 12.59418c-2.94464 3.83038-8.10755 4.8233-11.58466 2.22791z" fill="#574582"/><g fill="#fff"><path d="m34.71543 9.3882a6.83086 6.83086 0 1 0 0 .00162zm-10.702 0a3.87321 3.87321 0 1 1 3.87244 3.874 3.87664 3.87664 0 0 1 -3.87244-3.874z"/><path d="m64.5488 38.22155a6.83084 6.83084 0 1 0 0 .00158zm-10.702 0a3.87321 3.87321 0 1 1 3.87244 3.874 3.87665 3.87665 0 0 1 -3.87244-3.874z"/><path d="m70.43116 46.15419a1.47014 1.47014 0 0 0 -1.80078-.99609l-12.48975 5.12511-10.70509-8.69252a1.44223 1.44223 0 0 0 -.80566-.24414h-39.42382a1.45166 1.45166 0 0 0 0 2.90332h38.98294l10.897 8.82141a1.47687 1.47687 0 0 0 1.20654.18945l13.14063-5.31067a1.45709 1.45709 0 0 0 .99799-1.79587z"/><path d="m42.90989 32.60769-2.63035-1.57807a1.43187 1.43187 0 0 1 -.24744-.11615l-13.86633-11.147a7.53974 7.53974 0 0 0 -10.34313 2.59119q-.04253.071-.08347.14279l-6.202 12.1391a1.45686 1.45686 0 0 0 .6499 1.94824l.00244.001a1.4208 1.4208 0 0 0 .62939.14551 1.47424 1.47424 0 0 0 1.31689-.7959l6.02332-11.782a4.6503 4.6503 0 0 1 6.23895-2.07993h.00005q.15971.07988.313.17181l16.70424 12.84967a1.45217 1.45217 0 0 0 1.49465-2.49023z"/><path d="m44.62989 49.85634h-43.17871a1.45117 1.45117 0 1 0 -.00046 2.90234h43.17917a1.45117 1.45117 0 0 0 0-2.90234z"/></g></g></svg>