<svg viewBox="0 0 68.65583 61.42375" xmlns="http://www.w3.org/2000/svg"><g transform="translate(-262.69373 -390.8977)"><path d="m268.50819 424.10814-5.55859-20.32514c-1.25531-4.59 2.2467-9.3564 7.47578-10.17483l10.605-1.65982a8.58178 8.58178 0 0 1 8.86869 3.88753l10.33448 18.01226c2.57917 4.49534-.29117 10.22426-5.84081 11.65767l-15.38083 3.9727c-4.678 1.20827-9.35914-1.18512-10.50372-5.37037z" fill="#e0e1e7"/><g fill="#574582"><path d="m289.18241 418.4337v15.5325a1.45117 1.45117 0 1 0 2.90234 0v-15.5325a1.45117 1.45117 0 1 0 -2.90234 0z"/><path d="m294.84371 413.172a6.689 6.689 0 1 0 -6.68848-6.68945 6.69653 6.69653 0 0 0 6.68848 6.68945zm0-10.70312a4.01465 4.01465 0 1 1 -4.01416 4.01367 4.01927 4.01927 0 0 1 4.01416-4.01364z"/><path d="m311.21041 433.47184a1.403 1.403 0 0 0 -1.31592-.92187h-10.94043v-14.02637a1.40112 1.40112 0 1 0 -2.80225 0v15.42773a1.402 1.402 0 0 0 1.40088 1.40039h11.36131l.03418.09277 5.80127 15.95508a1.40344 1.40344 0 0 0 1.31592.92188 1.37728 1.37728 0 0 0 .479-.085 1.399 1.399 0 0 0 .83691-1.79492z"/><path d="m305.88375 438.72087h-20.959a1.40088 1.40088 0 1 0 0 2.80176h20.959a1.40088 1.40088 0 1 0 0-2.80176z"/><path d="m319.59908 391.04411a1.4035 1.4035 0 0 0 -.627 1.87988c2.78271 5.56738 1.4917 10.40332-.00293 16.00391a44.05953 44.05953 0 0 0 -1.92285 10.92383 1.40132 1.40132 0 1 0 2.80225.04688 41.99191 41.99191 0 0 1 1.8252-10.24316c1.50635-5.63867 3.063-11.46582-.1958-17.98437a1.40421 1.40421 0 0 0 -1.87887-.62697z"/><path d="m329.43014 391.67106a1.40125 1.40125 0 1 0 -2.50684 1.25293c2.78418 5.56641 1.49268 10.40332-.00244 16.00293-1.5791 5.91309-3.36768 12.61035-.04541 20.916a1.40133 1.40133 0 1 0 2.60254-1.04c-2.97705-7.44238-1.38916-13.39258.147-19.14648 1.50681-5.64065 3.06394-11.46878-.19485-17.98538z"/></g></g></svg>