<svg fill="none" height="50" viewBox="0 0 50 50" width="50" xmlns="http://www.w3.org/2000/svg" xmlns:xlink="http://www.w3.org/1999/xlink"><clipPath id="a"><path d="m0 0h50v50h-50z"/></clipPath><g clip-path="url(#a)" fill="#000"><path d="m46.069 27.5936c-.0313-.5382-.4925-.9483-1.0319-.9174-.5387.0313-.9495.4936-.9178 1.0319.0072.1232.0114.2475.0164.3715-2.8706.6607-5.7755 1.1707-8.6995 1.5297.0161-2.7382-.151-5.5111-.5027-8.2855-.0073-.0572-.0145-.1141-.0222-.1713 2.3587-.312 4.7024-.7366 7.0214-1.2692.1423.2686.2788.541.4089.8175.2297.4883.811.6977 1.2993.4689.4883-.2293.6981-.8107.4688-1.2989-1.6838-3.5847-4.3346-6.6208-7.6656-8.7796-2.0851-1.35113-4.3755-2.3132-6.7734-2.85946-.3036-1.97526-1.8181-3.55683-3.7594-3.96042v-3.294758c0-.539398-.4371-.976562-.9765-.976562s-.9766.437164-.9766.976562v3.294758c-1.9447.40435-3.4611 1.99051-3.7609 3.9711-2.3655.54435-4.6261 1.49383-6.6868 2.82288-2.8377 1.8299-5.18492 4.2972-6.86453 7.1983-.00077.0016-.00153.0031-.00267.0046-.28496.4932-.55161.9983-.79766 1.5156-1.35155 2.8442-2.03705 5.8952-2.03705 9.0675 0 5.6492 2.19994 10.96 6.19431 14.9544 3.9948 3.9947 9.3052 6.1943 14.954 6.1943 5.6492 0 10.96-2.1999 14.9544-6.1943 3.9947-3.9948 6.1943-9.3056 6.1943-14.9544 0-.4181-.0122-.8411-.0366-1.2577zm-1.9574 2.4964c-.1846 2.8835-1.0078 5.5953-2.3307 7.9956-2.3842.5573-4.7963.9952-7.2243 1.3111.3334-1.8719.5733-3.7762.7175-5.7057.0519-.6977.0908-1.3988.1179-2.1026 2.9293-.3525 5.8411-.8519 8.7196-1.4984zm-18.1781 17.9321v-6.0475c2.0599-.0263 4.1187-.1384 6.1695-.3326-.4212 1.8379-.9556 3.709-1.6247 5.5943-1.4507.4364-2.9728.7068-4.5448.7858zm-6.4976-.7858c-.6691-1.8853-1.2039-3.7568-1.6247-5.5943 2.0508.1942 4.1096.3059 6.1691.3326v6.0475c-1.5716-.079-3.0937-.3494-4.5444-.7858zm-13.63336-17.1463c2.87857.6465 5.79036 1.1459 8.71926 1.4984.0275.7038.0664 1.4049.1182 2.1026.1439 1.9295.3842 3.8338.7176 5.7057-2.4284-.3159-4.8401-.7538-7.22428-1.3111-1.32294-2.4003-2.14615-5.1121-2.33078-7.9956zm10.69226 1.7116c2.4879.2422 4.9861.3784 7.4855.4067v7.8037c-2.2003-.0286-4.3991-.1545-6.588-.3781-.5134-2.7267-.7881-5.36-.8975-7.8323zm.4158-10.1715c.0103-.0828.0209-.1648.0316-.2468 2.338.2487 4.6875.3891 7.0381.4192v8.4416c-2.5177-.0286-5.0342-.1675-7.5401-.4166-.0328-3.0838.1774-5.8659.4704-8.1974zm6.3125-11.89461c.2522-.02251.5047-.04044.7572-.05341v10.15782c-2.256-.0294-4.5108-.1614-6.755-.396.7572-4.6665 1.8379-7.9475 2.1968-8.963 1.2299-.3735 2.5025-.62601 3.801-.74541zm3.0903-.0309c.1244.00839.248.01907.3719.03014 1.3008.11863 2.5753.37117 3.8063.74467.3586 1.0116 1.4389 4.2858 2.1973 8.9645-2.2442.2346-4.4991.3666-6.7554.396v-10.15744c.127.00649.2536.01297.3799.02213zm-.3799 30.30741v-7.8037c2.4997-.0283 4.998-.1645 7.4859-.4067-.1095 2.4731-.3841 5.106-.8976 7.8323-2.1889.2236-4.388.3495-6.5883.3781zm7.0625-18.4426c.2972 2.3472.5112 5.1506.4776 8.2581-2.5055.2491-5.0221.388-7.5401.4166v-8.4416c2.351-.0301 4.7004-.1709 7.0385-.4192.008.0618.016.1236.024.1861zm7.8766-3.4492c-2.0634.4547-4.1466.8202-6.2416 1.0952-.5547-3.4618-1.2776-6.1726-1.7926-7.8537 3.2219 1.4572 6.0223 3.788 8.0342 6.7585zm-15.9378-11.99609c1.1745 0 2.1846.71717 2.6157 1.73684-1.3565-.16556-2.7279-.20027-4.0913-.10491-.3818.02671-.7633.06333-1.1428.11063.4291-1.02272 1.4412-1.74256 2.6184-1.74256zm-7.8598 5.23989c-.515 1.6811-1.2375 4.3911-1.7918 7.8514-2.095-.275-4.1779-.6405-6.24122-1.0952 2.01152-2.9682 4.81262-5.2986 8.03302-6.7562zm-9.46544 9.2583c.11864-.2499.24338-.496.37193-.739 2.31891.5326 4.66271.9572 7.02131 1.2692-.0076.0572-.0149.1141-.0221.1713-.3517 2.7744-.5188 5.5473-.5028 8.2855-2.9239-.359-5.82884-.869-8.69978-1.5301.10147-2.6027.71526-5.1082 1.83144-7.4569zm2.03972 19.7971c2.02142.4162 4.06002.75 6.10852 1.0002.3639 1.6758.8037 3.3226 1.3198 4.9347-2.9457-1.3313-5.4973-3.3859-7.42832-5.9349zm23.18722 5.9349c.5162-1.6121.956-3.2589 1.3199-4.9347 2.0485-.2502 4.0871-.584 6.1085-1.0002-1.931 2.549-4.4827 4.6036-7.4284 5.9349z"/><path d="m43.9941 23.0863c-.3407.2231-.5032.6561-.4048 1.049.0977.3895.4361.6874.8351.7328.4062.0462.8056-.172.9868-.5382.1782-.3609.1118-.8053-.1625-1.0994-.3219-.3449-.8632-.4048-1.2546-.1442z"/></g></svg>