<svg width="49" height="49" viewBox="0 0 49 49" fill="none" xmlns="http://www.w3.org/2000/svg">
<path d="M33.7315 21.0547C33.7315 19.9976 32.8745 19.1406 31.8174 19.1406H12.1025C11.0454 19.1406 10.1885 19.9976 10.1885 21.0547C10.1885 22.1118 11.0454 22.9688 12.1025 22.9688H31.8174C32.8745 22.9688 33.7315 22.1118 33.7315 21.0547Z" fill="black"/>
<path d="M12.1025 26.7969C11.0454 26.7969 10.1885 27.6538 10.1885 28.7109C10.1885 29.7681 11.0454 30.625 12.1025 30.625H24.076C25.1332 30.625 25.9901 29.7681 25.9901 28.7109C25.9901 27.6538 25.1332 26.7969 24.076 26.7969H12.1025Z" fill="black"/>
<path d="M16.6007 45.1719H10.1992C8.08839 45.1719 6.37109 43.4546 6.37109 41.3438V7.65625C6.37109 5.54542 8.08839 3.82812 10.1992 3.82812H33.7316C35.8424 3.82812 37.5597 5.54542 37.5597 7.65625V19.4277C37.5597 20.4849 38.4166 21.3418 39.4738 21.3418C40.5309 21.3418 41.3878 20.4849 41.3878 19.4277V7.65625C41.3878 3.43459 37.9532 0 33.7316 0H10.1992C5.97756 0 2.54297 3.43459 2.54297 7.65625V41.3438C2.54297 45.5654 5.97756 49 10.1992 49H16.6007C17.6578 49 18.5148 48.1431 18.5148 47.0859C18.5148 46.0288 17.6578 45.1719 16.6007 45.1719Z" fill="black"/>
<path d="M29 37.5L27 45H31.5L44 33.5L43.5 29.5L39 29L29 37.5Z" fill="#FFE73F"/>
<path d="M44.7782 27.713C42.5393 25.4741 38.8964 25.474 36.659 27.7114L26.1505 38.1967C25.9273 38.4194 25.7627 38.6936 25.671 38.9953L23.3825 46.5295C23.1796 47.1975 23.3564 47.9229 23.8439 48.4225C24.2091 48.7968 24.7052 49 25.2141 49C25.3843 49 25.5562 48.9772 25.7249 48.9304L33.4506 46.7904C33.7685 46.7024 34.0583 46.5336 34.2918 46.3005L44.7783 35.8337C47.0171 33.5949 47.0171 29.952 44.7782 27.713ZM31.9436 43.2356L28.0569 44.3123L29.1944 40.5675L36.2849 33.4927L38.9923 36.2001L31.9436 43.2356ZM42.0727 33.1257L41.7019 33.4958L38.9949 30.7889L39.3645 30.42C40.1108 29.6737 41.3251 29.6737 42.0714 30.42C42.8177 31.1663 42.8177 32.3806 42.0727 33.1257Z" fill="black"/>
<path d="M31.8174 11.4844H12.1025C11.0454 11.4844 10.1885 12.3413 10.1885 13.3984C10.1885 14.4556 11.0454 15.3125 12.1025 15.3125H31.8174C32.8745 15.3125 33.7315 14.4556 33.7315 13.3984C33.7315 12.3413 32.8745 11.4844 31.8174 11.4844Z" fill="black"/>
</svg>
