<svg fill="none" height="50" viewBox="0 0 50 50" width="50" xmlns="http://www.w3.org/2000/svg" xmlns:xlink="http://www.w3.org/1999/xlink"><clipPath id="a"><path d="m0 0h50v50h-50z"/></clipPath><g clip-path="url(#a)" fill="#000"><path d="m49.2676 48.5352h-2.3988v-10.0672c.4793-.4215.7828-1.0386.7828-1.7256 0-1.2672-1.031-2.298-2.2981-2.298h-4.7917l-.7399-11.8385c-.0241-.3861-.3443-.6868-.731-.6868h-3.1313c-.3867 0-.7069.3007-.731.6868l-.7399 11.8385h-1.7552l-.7399-11.8385c-.0242-.3861-.3443-.6868-.731-.6868h-3.1313c-.3867 0-.7068.3007-.7309.6868l-.74 11.8385h-1.7551l-.74-11.8385c-.0241-.3861-.3442-.6868-.7309-.6868h-3.1313c-.3867 0-.7068.3007-.7309.6868l-.74 11.8385h-2.04l-.4537-20.4202c-.0088-.398-.3341-.7161-.7323-.7161h-4.6969c-.3982 0-.7235.3181-.7322.7161l-.52339 23.5515h-5.79004c-1.26719 0-2.29805 1.031-2.29805 2.2981 0 .687.30342 1.3041.78282 1.7255v6.9359h-1.616018c-.404492 0-.732422.3279-.732422.7324s.32793.7324.732422.7324h48.535178c.4045 0 .7324-.3279.7324-.7324s-.3279-.7324-.7324-.7324zm-39.68371-7.8281h-2.58858c-.40449 0-.73242.3279-.73242.7324s.32793.7324.73242.7324h2.55606l-.14141 6.3633h-5.59668v-6.3647c.0168.0004.0335.0013.05039.0013.40449 0 .73242-.3279.73242-.7324s-.32793-.7324-.73242-.7324c-.45947 0-.8332-.3739-.8332-.8332 0-.4595.37383-.8333.8332-.8333h5.75723zm27.06371-17.3231h1.7551l.6913 11.0604h-3.1377zm-7.8283 0h1.7552l.6913 11.0604h-3.1377zm-7.8282 0h1.7552l.6912 11.0604h-3.1377zm-8.4658 25.1512h-1.65l.7501-33.7623h3.2643l.4373 19.6715h-1.2865c-1.2672 0-2.2981 1.0309-2.2981 2.298 0 .687.3034 1.3041.7829 1.7256zm32.8282-10.9596h-1.5656c-.4045 0-.7324.3279-.7324.7324s.3279.7325.7324.7325h1.5656c.0169 0 .0336-.001.0504-.0013v9.496h-31.4139v-9.496c.0168.0004.0335.0013.0504.0013h26.6167c.4045 0 .7325-.328.7325-.7325s-.328-.7324-.7325-.7324h-26.6167c-.4594 0-.8333-.3738-.8333-.8332s.3739-.8332.8333-.8332h31.313c.4595 0 .8333.3737.8333.8332s-.3738.8332-.8332.8332z"/><path d="m40.6566 0c-2.2065 0-4.31.770019-5.9915 2.18105-1.2073-.90585-2.6703-1.398238-4.1853-1.398238-1.8391 0-3.5947.726078-4.8997 2.009768-.6765-.2917-1.4082-.44414-2.1457-.44414-2.1775 0-4.1187 1.30381-4.9706 3.25508-.294-.08233-.5949-.12383-.9006-.12383-1.513 0-2.8141.98388-3.2788 2.36211-.081-.00899-.1624-.01358-.2439-.01358-1.2672 0-2.2982 1.03096-2.2982 2.29808.0001.4046.328.7325.7325.7325s.7325-.3279.7325-.7324c0-.45951.3738-.83324.8333-.83324.1453 0 .2877.04112.4233.12227.2195.13135.4916.13857.7179.01934.2261-.11934.3738-.34805.3892-.60342.0642-1.05791.9393-1.88662 1.9921-1.88662.3329 0 .6615.08994.9766.26738.1973.11123.4353.12471.6442.03652.2089-.08818.365-.26806.4232-.4872.4598-1.73575 2.0336-2.94805 3.8272-2.94805.6797 0 1.353.17773 1.9472.51387.3037.17187.6868.10556.9149-.1587 1.0543-1.2207 2.5791-1.9208 4.1833-1.9208 1.3716 0 2.6903.51202 3.7132 1.44161.2854.25937.7231.25302 1.0009-.01465 1.4785-1.4251 3.4185-2.20987 5.4628-2.20987 4.3443 0 7.8786 3.53438 7.8786 7.87862s-3.5343 7.87864-7.8786 7.87864c-2.8843 0-5.5358-1.5748-6.9197-4.1099-.1845-.3381-.5995-.4754-.9493-.3143-.7346.3384-1.511.51-2.3078.51-1.6042 0-3.129-.7001-4.1833-1.9208-.2281-.2642-.6111-.3306-.9149-.1587-.5942.3362-1.2675.5139-1.9472.5139-1.2377 0-2.383-.5667-3.1421-1.5548-.1379-.1794-.3509-.28506-.5771-.28623-.0013 0-.0025 0-.0037 0-.2249 0-.4375.10343-.5763.28043-.3875.4943-.9605.7777-1.572.7777-.4045 0-.7324.3279-.7324.7324s.3279.7324.7324.7324c.7763 0 1.5146-.2594 2.1161-.7299 1.005.9696 2.3353 1.5127 3.7551 1.5127.7375 0 1.4692-.1524 2.1457-.444 1.305 1.2837 3.0607 2.0098 4.8997 2.0098.7894 0 1.5622-.1326 2.3054-.3946 1.7113 2.6734 4.6703 4.3087 7.8714 4.3087 5.152 0 9.3434-4.1915 9.3434-9.34344 0-5.15196-4.1914-9.34346-9.3434-9.34346z"/><path d="m18.7374 40.7069c-.4045 0-.7324.3279-.7324.7324v1.5657c0 .4045.3279.7324.7324.7324s.7324-.3279.7324-.7324v-1.5657c0-.4045-.3279-.7324-.7324-.7324z"/><path d="m21.8687 40.7069c-.4045 0-.7324.3279-.7324.7324v1.5657c0 .4045.3279.7324.7324.7324s.7324-.3279.7324-.7324v-1.5657c0-.4045-.3279-.7324-.7324-.7324z"/><path d="m25 40.7069c-.4045 0-.7324.3279-.7324.7324v1.5657c0 .4045.3279.7324.7324.7324s.7324-.3279.7324-.7324v-1.5657c0-.4045-.3279-.7324-.7324-.7324z"/><path d="m28.1313 40.7069c-.4045 0-.7324.3279-.7324.7324v1.5657c0 .4045.3279.7324.7324.7324s.7324-.3279.7324-.7324v-1.5657c0-.4045-.3278-.7324-.7324-.7324z"/><path d="m31.2626 40.7069c-.4045 0-.7324.3279-.7324.7324v1.5657c0 .4045.3279.7324.7324.7324s.7324-.3279.7324-.7324v-1.5657c0-.4045-.3279-.7324-.7324-.7324z"/><path d="m34.3939 40.7069c-.4045 0-.7325.3279-.7325.7324v1.5657c0 .4045.328.7324.7325.7324s.7324-.3279.7324-.7324v-1.5657c0-.4045-.3279-.7324-.7324-.7324z"/><path d="m37.5252 40.7069c-.4045 0-.7324.3279-.7324.7324v1.5657c0 .4045.3279.7324.7324.7324s.7324-.3279.7324-.7324v-1.5657c0-.4045-.3279-.7324-.7324-.7324z"/><path d="m40.6566 40.7069c-.4045 0-.7325.3279-.7325.7324v1.5657c0 .4045.328.7324.7325.7324.4044 0 .7324-.3279.7324-.7324v-1.5657c0-.4045-.328-.7324-.7324-.7324z"/></g></svg>