<svg fill="none" height="50" viewBox="0 0 50 50" width="50" xmlns="http://www.w3.org/2000/svg" xmlns:xlink="http://www.w3.org/1999/xlink"><clipPath id="a"><path d="m0 0h50v50h-50z"/></clipPath><g clip-path="url(#a)" fill="#000"><path d="m37.5469 17.2656c-.4744 0-.8594.385-.8594.8594s.385.8594.8594.8594.8593-.385.8593-.8594-.3849-.8594-.8593-.8594z"/><path d="m44.4219 13.8281h-9.4377l-2.7247-5.44953c-.4398-.87923-1.3234-1.42545-2.3061-1.42545h-9.9068c-.9829 0-1.8665.54622-2.3061 1.42554l-2.7247 5.44944h-1.7033v-.8593c0-1.4216-1.1565-2.5782-2.5781-2.5782h-1.71878c-1.42157 0-2.57812 1.1566-2.57812 2.5782v.8593h-.85938c-1.42157 0-2.57812 1.1566-2.57812 2.5781v24.0626c0 1.4215 1.15655 2.5781 2.57812 2.5781h38.84378c1.4216 0 2.5781-1.1566 2.5781-2.5781 0-2.3354 0-23.1541 0-24.0626 0-1.4215-1.1565-2.5781-2.5781-2.5781zm-25.144-4.68082c.1466-.29322.4411-.4754.7687-.4754h9.9068c.3276 0 .6222.18218.7688.4754l2.3405 4.68082h-16.1254zm-11.12165 3.82152c0-.4739.38552-.8594.85937-.8594h1.71878c.4738 0 .8594.3855.8594.8594v.8593h-3.43755zm-3.4375 9.4445h10.86685c-1.1421 1.7841-1.7575 3.8751-1.7575 6.0242 0 2.1493.6155 4.2318 1.7574 6.0156h-10.86675zm20.28125-3.4289c5.1677 0 9.4531 4.1868 9.4531 9.4531 0 5.2604-4.2794 9.4531-9.4531 9.4531-5.1783 0-9.4531-4.1973-9.4531-9.4531 0-5.2598 4.2788-9.4531 9.4531-9.4531zm20.2812 21.4844c0 .4738-.3855.8593-.8593.8593h-38.84378c-.47385 0-.85937-.3855-.85937-.8593v-4.2969h12.22255c2.0999 2.189 5.0144 3.4375 8.0587 3.4375 3.0449 0 5.9596-1.2489 8.0588-3.4375h12.2224zm0-6.0157h-10.8668c1.1421-1.7841 1.7575-3.8664 1.7575-6.0156s-.6154-4.2315-1.7575-6.0156h10.8668zm0-13.75h-12.2225c-2.0998-2.189-5.0143-3.4375-8.0587-3.4375-3.0448 0-5.9595 1.2489-8.0588 3.4375h-12.22245v-4.2969c0-.4738.38552-.8593.85937-.8593h38.84378c.4738 0 .8593.3855.8593.8593z"/><path d="m27.5781 10.3906h-5.1562c-.4747 0-.8594.3848-.8594.8594s.3847.8594.8594.8594h5.1562c.4746 0 .8594-.3848.8594-.8594s-.3848-.8594-.8594-.8594z"/><path d="m25 20.7031c-4.2647 0-7.7344 3.4697-7.7344 7.7344s3.4697 7.7344 7.7344 7.7344 7.7344-3.4697 7.7344-7.7344-3.4697-7.7344-7.7344-7.7344zm0 13.75c-3.317 0-6.0156-2.6986-6.0156-6.0156s2.6986-6.0156 6.0156-6.0156 6.0156 2.6986 6.0156 6.0156-2.6986 6.0156-6.0156 6.0156z"/><path d="m25 24.1406c-2.3693 0-4.2969 1.9276-4.2969 4.2969 0 .4746.3848.8594.8594.8594s.8594-.3848.8594-.8594c0-1.4216 1.1565-2.5781 2.5781-2.5781.4745 0 .8594-.3848.8594-.8594s-.3849-.8594-.8594-.8594z"/><path d="m42.7031 17.2656h-1.7187c-.4746 0-.8594.3848-.8594.8594s.3848.8594.8594.8594h1.7187c.4746 0 .8594-.3848.8594-.8594s-.3848-.8594-.8594-.8594z"/><path d="m272-98h-109.82l-31.706-63.413c-5.117-10.231-15.399-16.587-26.834-16.587h-115.28c-11.437 0-21.719 6.356-26.834 16.588l-31.706 63.412h-19.82v-10c0-16.542-13.458-30-30-30h-20c-16.542 0-30 13.458-30 30v10h-10c-16.542 0-30 13.458-30 30v280c0 16.542 13.458 30 30 30h452c16.542 0 30-13.458 30-30 0-27.175 0-269.429 0-280 0-16.542-13.458-30-30-30zm-292.585-54.468c1.706-3.412 5.133-5.532 8.945-5.532h115.28c3.812 0 7.24 2.12 8.946 5.532l27.234 54.468h-187.64zm-129.415 44.468c0-5.514 4.486-10 10-10h20c5.514 0 10 4.486 10 10v10h-40zm-40 109.89999h126.451c-13.29 20.76101-20.451 45.09201-20.451 70.10001 0 25.01 7.162 49.243 20.45 70h-126.45zm236-39.89999c60.133 0 110 48.719 110 110 0 61.212-49.797 110-110 110-60.257 0-110-48.842-110-110 0-61.205 49.79-110 110-110zm236 250c0 5.514-4.486 10-10 10h-452c-5.514 0-10-4.486-10-10v-50h142.226c24.435 25.472 58.349 40 93.774 40 35.431 0 69.348-14.532 93.775-40h142.225zm0-70h-126.451c13.29-20.761 20.451-44.991 20.451-70s-7.161-49.239-20.451-70h126.451zm0-160h-142.226c-24.434-25.472-58.348-40-93.774-40-35.43 0-69.347 14.532-93.775 40h-142.225v-50c0-5.514 4.486-10 10-10h452c5.514 0 10 4.486 10 10z"/><path d="m46-18c-49.626 0-90 40.374-90 90s40.374 90 90 90 90-40.374 90-90-40.374-90-90-90zm0 160c-38.598 0-70-31.402-70-70s31.402-70 70-70 70 31.402 70 70-31.402 70-70 70z"/><path d="m46 22c-27.57 0-50 22.43-50 50 0 5.523 4.477 10 10 10s10-4.477 10-10c0-16.542 13.458-30 30-30 5.522 0 10-4.477 10-10s-4.478-10-10-10z"/><path d="m261-104h-109.82l-31.706-63.413c-5.117-10.231-15.399-16.587-26.834-16.587h-115.28c-11.437 0-21.719 6.356-26.834 16.588l-31.706 63.412h-19.82v-10c0-16.542-13.458-30-30-30h-20c-16.542 0-30 13.458-30 30v10h-10c-16.542 0-30 13.458-30 30v280c0 16.542 13.458 30 30 30h452c16.542 0 30-13.458 30-30 0-27.175 0-269.429 0-280 0-16.542-13.458-30-30-30zm-292.585-54.468c1.706-3.412 5.133-5.532 8.945-5.532h115.28c3.812 0 7.24 2.12 8.946 5.532l27.234 54.468h-187.64zm-129.415 44.468c0-5.514 4.486-10 10-10h20c5.514 0 10 4.486 10 10v10h-40zm-40 109.89999h126.451c-13.29 20.76101-20.451 45.09201-20.451 70.10001 0 25.01 7.162 49.243 20.45 70h-126.45zm236-39.89999c60.133 0 110 48.71899 110 110 0 61.212-49.797 110-110 110-60.257 0-110-48.842-110-110 0-61.205 49.79-110 110-110zm236 250c0 5.514-4.486 10-10 10h-452c-5.514 0-10-4.486-10-10v-50h142.226c24.435 25.472 58.348997 40 93.774 40 35.431 0 69.348-14.532 93.775-40h142.225zm0-70h-126.451c13.29-20.761 20.451-44.991 20.451-70s-7.161-49.239-20.451-70h126.451zm0-160h-142.226c-24.434-25.472-58.348-40-93.774-40-35.429993 0-69.347 14.532-93.775 40h-142.225v-50c0-5.514 4.486-10 10-10h452c5.514 0 10 4.486 10 10z"/><path d="m35-24c-49.626 0-90 40.374-90 90s40.374 90 90 90 90-40.374 90-90-40.374-90-90-90zm0 160c-38.598 0-70-31.402-70-70s31.402-70 70-70 70 31.402 70 70-31.402 70-70 70z"/><path d="m35 16c-27.57 0-50 22.43-50 50 0 5.523 4.477 10 10 10s10-4.477 10-10c0-16.542 13.458-30 30-30 5.522 0 10-4.477 10-10s-4.478-10-10-10z"/></g></svg>