<svg fill="none" height="52" viewBox="0 0 46 52" width="46" xmlns="http://www.w3.org/2000/svg"><g fill="#000"><path d="m24.8109 5.58594-4.9565-.87527c-.4695-.08283-.9438.11734-1.2119.51162l-1.9612 2.88385c-1.6491 2.42686-4.1241 4.15826-6.96923 4.87546-.64858.1635-1.04177.8218-.8783 1.4702.13841.5493.63151.9152 1.17333.9152.0979 0 .1976-.0118.297-.0371 3.4213-.8624 6.3974-2.9443 8.3802-5.86231l1.5204-2.23575 4.1851.73903c.6584.11601 1.2868-.32332 1.403-.98182.1163-.65875-.3233-1.28686-.9819-1.40311z"/><path d="m33.5985 46.6532c-.0158-.0763-.0388-.1526-.0691-.2265-.0302-.0726-.0678-.1429-.1114-.2083-.0448-.0666-.0956-.1283-.1513-.184s-.1175-.1066-.1841-.1514c-.0654-.0436-.1356-.0811-.2083-.1114-.0739-.0303-.1501-.0533-.2264-.069-.1562-.0315-.3173-.0315-.4735 0-.0775.0157-.1538.0387-.2265.069-.0738.0303-.1441.0678-.2095.1114-.0666.0448-.1283.0957-.184.1514s-.1066.1174-.1502.184c-.0436.0654-.0811.1357-.1114.2083-.0302.0739-.0533.1502-.069.2265-.0157.0787-.0242.1587-.0242.2373 0 .0787.0085.1586.0242.2361s.0388.1538.069.2265c.0303.0738.0678.1441.1114.2095.0436.0666.0945.1283.1502.184s.1174.1066.184.1502c.0654.0435.1357.0811.2095.1114.0727.0303.149.0532.2265.069s.1574.0241.2361.0241.1587-.0083.2374-.0241c.0763-.0158.1525-.0387.2264-.069.0727-.0303.1429-.0679.2083-.1114.0666-.0436.1284-.0945.1841-.1502s.1065-.1174.1513-.184c.0436-.0654.0799-.1357.1102-.2095.0303-.0726.0545-.149.0703-.2265.0157-.0773.023-.1574.023-.2361 0-.0786-.0073-.1586-.023-.2373z"/><path d="m44.6452 36.0631c-.2607-.2299-.6079-.3362-.9524-.2933-.714.0902-2.3979.0409-3.0451-.6857-.3389-.3804-.4024-1.0146-.1888-1.8848.7366-3.0001.9337-7.8633.9337-8.4106 0-6.8765-1.0208-12.1452-3.1208-16.10713-3.0534-5.76067-8.339-8.68157-15.7097-8.68157-7.3709 0-12.65639 2.9209-15.70989 8.68157-2.10001 3.96193-3.12083 9.23063-3.12083 16.10713 0 .0488.05086 5.0948.86473 8.4105.21325.8687.15052 1.502-.18636 1.8825-.68878.7779-2.4783.7567-3.04732.6882-.34512-.0429-.691691.0633-.952406.2933-.260594.2298-.410024.5606-.410024.9082 0 1.8341 1.05243 4.3745 5.91943 6.3084v7.3368c0 .6687.54213 1.2109 1.21093 1.2109h30.79464c.6688 0 1.2109-.5422 1.2109-1.2109v-7.3368c4.8669-1.934 5.9193-4.4745 5.9193-6.3085 0-.3476-.1493-.6784-.41-.9082zm-7.9311 13.3425h-28.3728v-1.3044h19.0419c.6688 0 1.2109-.5421 1.2109-1.2109 0-.6687-.5421-1.211-1.2109-1.211h-19.0419c.00036-.0163.00036-3.8464 0-3.8626 0-1.2522 1.01876-2.2709 2.2709-2.2709h8.0176c.4531 1.7289 2.0289 3.0082 3.8979 3.0082 1.8689 0 3.4447-1.2793 3.8979-3.0082h8.0176c1.2521 0 2.2709 1.0187 2.2709 2.2709-.0004.0162-.0004 7.5726 0 7.5889zm-16.7026-15.8383c-4.4438-1.1434-7.5473-5.1514-7.5473-9.7466v-3.8048c4.0573-1.2349 7.5966-3.7564 10.0905-7.1953l.9492.1676c5.2656.9297 9.0874 5.4855 9.0874 10.8325-.0001 4.5952-3.1038 8.6032-7.5474 9.7466-.5351.1377-.9092.6201-.9092 1.1728v3.785c0 .8862-.721 1.6071-1.607 1.6071-.8862 0-1.6071-.7209-1.6071-1.6071v-3.785c0-.5527-.374-1.0351-.9091-1.1728zm18.9909 7.1361c-.5011-2.052-2.3552-3.5794-4.5593-3.5794h-7.8865v-1.4821c5.024-1.7065 8.4565-6.4393 8.4565-11.8212 0-6.5243-4.6633-12.0831-11.0881-13.2175l-1.7111-.3021c-.4693-.0826-.9439.1174-1.212.5118l-.1067.1571c-2.3515 3.4605-5.881 5.9295-9.9379 6.9521-.538.1355-.915.6194-.915 1.1741v4.7246c0 5.3819 3.4324 10.1148 8.4565 11.8212v1.4821h-7.8866c-2.20418 0-4.05824 1.5275-4.55933 3.5794-1.2911-.5899-2.6637-1.4305-3.28709-2.5123 1.11285-.0986 2.51766-.4492 3.45008-1.4958.61952-.6954 1.24957-1.9667.73238-4.0735-.73565-2.9968-.79486-7.7871-.79486-7.833 0-6.4713.92867-11.369 2.8388-14.97292 2.63722-4.97538 7.07602-7.39398 13.57002-7.39398s10.9327 2.4186 13.5699 7.39398c1.9102 3.60402 2.8388 8.50162 2.8388 14.97292 0 .7615-.225 5.231-.864 7.833-.5171 2.1067.113 3.3781.7325 4.0735.9324 1.0466 2.3373 1.3972 3.4502 1.4958-.6235 1.0817-1.996 1.9222-3.2872 2.5122z"/><path d="m20.1891 21.8176c-.473-.473-1.2397-.4729-1.7125.0001-.2593.2591-.6039.4019-.9704.4019-.3666 0-.7112-.1426-.9705-.4019-.4727-.4729-1.2395-.4729-1.7125-.0001-.473.473-.473 1.2396-.0001 1.7125.7166.7167 1.6694 1.1115 2.6829 1.1115 1.0136 0 1.9664-.3948 2.6832-1.1115.4729-.473.4728-1.2397-.0001-1.7125z"/><path d="m30.2323 21.8176c-.4729-.4728-1.2397-.4728-1.7125 0-.2593.2592-.6039.402-.9705.402-.3667 0-.7112-.1426-.9704-.4019-.4728-.4729-1.2396-.4729-1.7125-.0001-.473.473-.473 1.2396-.0002 1.7125.7167.7167 1.6694 1.1115 2.683 1.1115 1.0134 0 1.9663-.3948 2.6831-1.1114.473-.4731.4728-1.2398 0-1.7126z"/><path d="m25.2106 28.7354c-.473-.4727-1.2397-.4727-1.7126 0-.535.5351-1.4058.5351-1.9409 0-.4729-.4727-1.2396-.4727-1.7125 0-.473.4731-.4729 1.2398 0 1.7127.7398.7396 1.7114 1.1094 2.6829 1.1094.9717 0 1.9434-.3697 2.6831-1.1094.4729-.473.4729-1.2398 0-1.7127z"/></g></svg>