<svg width="57" height="57" viewBox="0 0 57 57" fill="none" xmlns="http://www.w3.org/2000/svg">
<g clip-path="url(#clip0)">
<path d="M17.0622 22.6531C19.9714 19.4026 24.1404 17.5385 28.5001 17.5385C29.7108 17.5385 30.6924 18.52 30.6924 19.7307C30.6924 20.9414 29.7108 21.923 28.5001 21.923C25.3858 21.923 22.4077 23.2549 20.3292 25.5772C19.8961 26.0609 19.297 26.3074 18.6949 26.3074C18.1743 26.3074 17.6518 26.1232 17.2335 25.7487C16.3314 24.9412 16.2547 23.5553 17.0622 22.6531Z" fill="black"/>
<path d="M13 17.5C9 20.3 7 29 6.5 33H48C49 33 49.5 29.5 49.5 27.5C49.5 25.5 44 18.5 40.5 15.5C37 12.5 33.5 12 28 11C22.5 10 18 14 13 17.5Z" fill="#FFE73F"/>
<path d="M9.18925 35.0769H6.57605H2.19141C0.980713 35.0769 -0.000862122 34.0953 -0.000862122 32.8846C-0.000862122 31.6739 0.980713 30.6923 2.19141 30.6923H4.48465C5.41624 20.404 12.8359 11.9607 22.6091 9.49816C22.1703 8.61745 21.9223 7.62596 21.9223 6.57703C21.9222 2.95041 24.8725 0 28.4991 0C32.1257 0 35.076 2.95041 35.076 6.57692C35.076 7.62585 34.828 8.61734 34.3893 9.49805C44.1625 11.9606 51.5821 20.4038 52.5135 30.6922H54.8068C56.0174 30.6922 56.999 31.6738 56.999 32.8845C56.999 34.0952 56.0174 35.0768 54.8068 35.0768H53.408C54.3415 37.5187 53.8275 40.3919 51.8628 42.3567L41.1435 53.0759C40.7323 53.487 40.1741 53.7182 39.5928 53.7182L16.4376 53.7185L13.7982 56.3579C13.3871 56.769 12.8296 57.0001 12.248 57.0001C11.6666 57.0001 11.1089 56.769 10.6979 56.3579L0.853241 46.5132C-0.00298309 45.6571 -0.00298309 44.2691 0.853241 43.4129L9.18925 35.0769ZM28.4991 4.38465C27.2903 4.38465 26.3068 5.36812 26.3068 6.57692C26.3068 7.78572 27.2903 8.76919 28.4991 8.76919C29.7079 8.76919 30.6913 7.78572 30.6913 6.57692C30.6913 5.36812 29.708 4.38465 28.4991 4.38465ZM28.4991 13.1538C18.3606 13.1538 9.98358 20.8408 8.88934 30.6922H47.0253C47.0273 30.6922 47.0291 30.6921 47.0311 30.6921C47.0331 30.6921 47.0348 30.6922 47.0368 30.6922H48.1087C47.0147 20.8408 38.6376 13.1538 28.4991 13.1538ZM37.1434 37.7495L39.8161 35.0768H36.6585C36.9712 35.8592 37.145 36.7115 37.145 37.604C37.1448 37.6528 37.1442 37.7012 37.1434 37.7495ZM12.248 51.7073L13.9794 49.9761C14.3905 49.565 14.948 49.3341 15.5296 49.3341L38.6856 49.3335L48.7624 39.2568C49.717 38.3021 49.717 36.7488 48.7625 35.7943C48.3006 35.3326 47.687 35.078 47.0342 35.0772H47.0282C46.3753 35.078 45.7616 35.3326 45.3 35.7939L37.2989 43.7953C36.8877 44.2064 36.3302 44.4374 35.7488 44.4374H24.8106C23.5999 44.4374 22.6183 43.456 22.6183 42.2452C22.6183 41.0345 23.5999 40.0529 24.8106 40.0529L30.3121 40.0528C30.9661 40.0528 31.5809 39.7982 32.0432 39.3357C32.5058 38.8733 32.7604 38.2584 32.7604 37.6046C32.7604 36.2545 31.6619 35.1562 30.3118 35.1562H15.3113L5.50397 44.9634L12.248 51.7073Z" fill="black"/>
</g>
<defs>
<clipPath id="clip0">
<rect width="57" height="57" transform="matrix(-1 0 0 1 57 0)" fill="white"/>
</clipPath>
</defs>
</svg>
