<svg fill="none" height="50" viewBox="0 0 50 50" width="50" xmlns="http://www.w3.org/2000/svg"><g fill="#000"><path d="m42.5532 14.3618h-14.8351c-.4408 0-.7979.3572-.7979.7978s.3571.7979.7979.7979h14.835c.4407 0 .7979-.3573.7979-.7979s-.3571-.7978-.7978-.7978z"/><path d="m48.4155 20.7447h-1.8729v-7.9787h.2659c.4407 0 .7978-.3572.7978-.7978 0-.4407-.3571-.7979-.7978-.7979h-1.3603c-.3885-5.08456-4.4594-9.15546-9.544-9.54403v-.828418c0-.440625-.3571-.797852-.7979-.797852-.4407 0-.7978.357227-.7978.797852v.828318c-5.0846.38858-9.1555 4.45947-9.544 9.54403h-1.3602c-.4407 0-.7979.3572-.7979.7979 0 .4406.3572.7978.7979.7978h.2659v7.9787h-5.5872c.3491-.4641.5997-1.0064.7198-1.5957h.3462c.4407 0 .7979-.3572.7979-.7978 0-.4407-.3572-.7979-.7979-.7979h-1.066c.3491-.4641.5997-1.0064.7198-1.5957h.3462c.4407 0 .7979-.3572.7979-.7978 0-.4407-.3572-.7979-.7979-.7979h-1.066c.3491-.4641.5997-1.0064.7198-1.5957h.3462c.4407 0 .7979-.3572.7979-.7978 0-.4407-.3572-.7979-.7979-.7979h-1.066c.3491-.4641.5997-1.0064.7198-1.59569h.3462c.4407 0 .7979-.35723.7979-.79785 0-.44063-.3572-.79786-.7979-.79786h-15.9575c-.44072 0-.79785.35723-.79785.79786 0 .44062.35713.79785.79785.79785h.34629c.12012.58929.37051 1.13159.71983 1.59569h-1.06612c-.44072 0-.79785.3572-.79785.7979 0 .4406.35713.7978.79785.7978h.34629c.12012.5893.37051 1.1317.71983 1.5957h-1.06612c-.44072 0-.79785.3572-.79785.7979 0 .4406.35713.7978.79785.7978h.34629c.12012.5893.37051 1.1317.71983 1.5957h-1.06612c-.44072 0-.79785.3572-.79785.7979 0 .4406.35713.7978.79785.7978h.34629c.12012.5893.37051 1.1317.71983 1.5957h-2.67315c-.44072 0-.797849.3573-.797849.7979v6.383c0 .4406.357129.7978.797849.7978h39.38173c.4407 0 .7979-.3572.7979-.7978s-.3572-.7979-.7979-.7979h-38.58388v-4.7872h45.23548v4.7872h-3.4601c-.4407 0-.7978.3573-.7978.7979s.3571.7978.7978.7978h3.1826v16.4532c-1.2013-.1164-1.8929-.498-2.6729-.9284-.9882-.5451-2.1081-1.163-4.2417-1.163s-3.2536.6179-4.2417 1.163c-.9381.5176-1.7484.9646-3.471.9646-1.7227 0-2.533-.447-3.4711-.9646-.9882-.5451-2.1081-1.163-4.2419-1.163s-3.2537.6179-4.2419 1.163c-.9381.5176-1.7484.9646-3.4711.9646-1.7225 0-2.5329-.447-3.4709-.9646-.9881-.5451-2.108-1.163-4.24159-1.163s-3.25361.6179-4.2417 1.163c-.22226.1226-.4374.2409-.65918.3505-.55713.2755-1.15517.4946-2.01396.5778v-14.0594c0-.4406-.35713-.7979-.79785-.7979-.44073 0-.79786.3573-.79786.7979v14.8936c0 .4407.35713.7979.79786.7979.98584 0 1.75361-.1327 2.39365-.3284v2.722c0 .4406.35713.7978.79785.7978s.79785-.3572.79785-.7978v-3.4184c.08526-.0464.16953-.0926.25244-.1383.93809-.5176 1.74834-.9645 3.4709-.9645 1.72259 0 2.53279.447 3.47069.9644.9881.5452 2.108 1.1632 4.2417 1.1632 2.1338 0 3.2537-.618 4.2419-1.1631.9381-.5176 1.7484-.9645 3.4711-.9645s2.533.447 3.4711.9645c.9882.5452 2.1081 1.1631 4.2419 1.1631 2.1337 0 3.2537-.618 4.2418-1.1631.9381-.5176 1.7483-.9645 3.4709-.9645 1.7225 0 2.5328.447 3.4707.9644.0829.0457.1671.0919.2523.1383v3.4185c0 .4407.3572.7979.7979.7979s.7978-.3572.7978-.7979v-2.7221c.6401.1957 1.4078.3285 2.3937.3285.4407 0 .7978-.3572.7978-.7979v-17.481c.1697-.1463.2775-.3623.2775-.604v-6.383c.0001-.4406-.3571-.7979-.7978-.7979zm-33.5218 0h-7.44692c-1.04014 0-1.92705-.6671-2.25635-1.5957h11.95957c-.3294.9285-1.2163 1.5957-2.2563 1.5957zm0-3.1915h-7.44692c-1.04014 0-1.92705-.6671-2.25635-1.5957h11.95957c-.3294.9285-1.2163 1.5957-2.2563 1.5957zm0-3.1915h-7.44692c-1.04014 0-1.92705-.6671-2.25635-1.5957h11.95957c-.3294.9285-1.2163 1.5957-2.2563 1.5957zm0-3.1915h-7.44692c-1.04014 0-1.92705-.6671-2.25635-1.59569h11.95957c-.3294.92859-1.2163 1.59569-2.2563 1.59569zm20.2126-7.9787c4.5704 0 8.3341 3.51202 8.7387 7.9787h-17.4773c.4047-4.46668 4.1683-7.9787 8.7386-7.9787zm9.8405 17.5532h-19.6809v-7.9787h19.6809z"/><path d="m43.617 37.234c.4406 0 .7978-.3572.7978-.7978 0-.4407-.3572-.7979-.7978-.7979-.4407 0-.7979.3572-.7979.7979 0 .4406.3572.7978.7979.7978z"/><path d="m40.4255 40.4255c.4406 0 .7978-.3572.7978-.7978 0-.4407-.3572-.7979-.7978-.7979s-.7979.3572-.7979.7979c0 .4406.3573.7978.7979.7978z"/></g></svg>