<svg width="49" height="48" viewBox="0 0 49 48" fill="none" xmlns="http://www.w3.org/2000/svg">
<g clip-path="url(#clip0)">
<path d="M2.17802 40.3636C1.30691 38.1818 3.26691 34.3636 4.3558 32.7273L7.07786 32.1818C9.98157 34.9091 15.6801 40.8 15.2445 42.5455C14.7001 44.7273 11.4334 45.2727 8.7112 45.8182C5.98898 46.3636 3.26691 43.0909 2.17802 40.3636Z" fill="#FFE73F"/>
<path d="M48.3049 10.2061C47.8545 8.92177 46.1631 8.26489 44.9721 9.39237L38.2965 15.9317L32.7718 10.5198L39.4474 3.98048C40.7685 2.75496 39.8578 1.05885 38.6167 0.715702C37.1555 0.205887 35.6943 0 34.133 0C30.1696 0 26.4165 1.52945 23.6041 4.28441C20.3714 7.45115 18.8101 11.9414 19.3305 16.3337L2.74663 32.5694C-0.90643 36.04 -0.90643 41.7558 2.74663 45.3344C6.30962 48.8344 12.1946 48.9423 15.7776 45.3344L32.3515 29.1967C37.806 29.7262 41.5492 27.8144 44.6518 25.0104C48.6151 21.1279 49.9663 15.4121 48.3049 10.2061ZM41.9395 22.1574C39.8578 24.0986 36.1647 25.7849 32.1413 25.0202C31.4107 24.8143 30.7902 25.0202 30.2697 25.53L12.9652 42.4715C11.2438 44.1971 7.92098 44.4912 5.66909 42.4715C3.68742 40.5303 3.68742 37.2655 5.66909 35.3243L22.8735 18.373C23.2939 17.8631 23.494 17.1474 23.394 16.5396C22.7734 13.0689 23.9144 9.49041 26.4165 7.03937C28.3982 5.206 31.0003 4.07852 33.7126 3.98048L28.4982 9.18648C27.5575 10.1571 27.7576 11.3532 28.4982 12.0493L36.8352 20.2161C37.6659 20.9318 39.0271 20.9318 39.7577 20.2161L45.0721 15.0101C44.9621 17.6573 43.9212 20.2161 41.9395 22.1574Z" fill="black"/>
<path d="M6.5332 31.6364L16.3332 41.4545" stroke="black" stroke-width="4"/>
</g>
<defs>
<clipPath id="clip0">
<rect width="49" height="48" fill="white"/>
</clipPath>
</defs>
</svg>
