<svg fill="none" height="50" viewBox="0 0 50 50" width="50" xmlns="http://www.w3.org/2000/svg" xmlns:xlink="http://www.w3.org/1999/xlink"><clipPath id="a"><path d="m0 0h50v50h-50z"/></clipPath><g clip-path="url(#a)" fill="#000"><path d="m20.152 11.1541c-1.8742 0-3.3936 1.5194-3.3936 3.3936s1.5194 3.3936 3.3936 3.3936 3.3936-1.5194 3.3936-3.3936-1.5194-3.3936-3.3936-3.3936zm0 5.0904c-.9372 0-1.6968-.7596-1.6968-1.6968.0047-.9338.763-1.6883 1.6968-1.6883v-.0085c.9372 0 1.6968.7596 1.6968 1.6968s-.7596 1.6968-1.6968 1.6968z"/><path d="m29.8577 11.1541c-1.8743 0-3.3936 1.5194-3.3936 3.3936s1.5193 3.3936 3.3936 3.3936c1.8742 0 3.3936-1.5194 3.3936-3.3936s-1.5194-3.3936-3.3936-3.3936zm0 5.0904c-.9372 0-1.6968-.7596-1.6968-1.6968.0046-.9338.763-1.6883 1.6968-1.6883v-.0085c.9371 0 1.6968.7596 1.6968 1.6968s-.7597 1.6968-1.6968 1.6968z"/><path d="m40.2031 15.0607c-.366-2.0142-1.9875-3.5636-4.0163-3.8379-.5599-2.07005-2.1719-3.83472-5.4128-3.83472h-4.9207v-1.86647c1.4883-.46853 2.315-2.05493 1.8464-3.54312-.4686-1.488302-2.055-2.314959-3.5432-1.846326-1.4883.468528-2.3149 2.054926-1.8463 3.543116.2771.88.9663 1.56933 1.8463 1.84633v1.82405h-4.9122c-2.2907 0-4.7001 1.05201-5.4297 3.83474-2.5856.355-4.39399 2.7387-4.03904 5.3243.27824 2.0274 1.82984 3.6452 3.84384 4.0081l-.0084.0424c.2545 3.7245 3.0202 5.0904 5.6248 5.0904h11.5382c3.8772 0 5.4298-2.5452 5.6249-5.0904 2.5677-.4668 4.271-2.9268 3.8042-5.4945zm-26.6177 3.7977c-1.6024-.4632-2.526-2.1377-2.0629-3.7401.2879-.9962 1.0668-1.775 2.0629-2.0629zm10.2911-15.98379c0-.62315.5052-1.12837 1.1283-1.12837.6232 0 1.1284.50522 1.1284 1.12837s-.5052 1.12837-1.1284 1.12837c-.6231 0-1.1283-.50522-1.1283-1.12837zm10.851 17.06979c0 1.4762-.5175 3.9535-3.9536 3.9535h-11.5297c-1.4762 0-3.9535-.5175-3.9535-3.9535l-.0085-6.889c0-3.44452 2.4773-3.95356 3.9535-3.95356h11.5382c3.4445 0 3.9536 2.47736 3.9536 3.95356zm1.6628-1.1454v-5.803c1.2934.3733 2.1851 1.5554 2.1889 2.9015-.0038 1.3461-.8955 2.5282-2.1889 2.9015z"/><path d="m29.8577 20.249h-9.7057c-.4685 0-.8484.3798-.8484.8484 0 .4685.3799.8484.8484.8484h9.7057c.4685 0 .8484-.3799.8484-.8484 0-.4686-.3799-.8484-.8484-.8484z"/><path d="m43.8817 27.2312c-.0163-1.8179-1.5031-3.2785-3.321-3.2623-1.5212.0136-2.8349 1.0676-3.1778 2.5496l-2.2652.4412h-20.2258l-2.2652-.4412c-.3881-1.7761-2.1425-2.9013-3.91864-2.5131-1.77612.3881-2.90131 2.1425-2.51317 3.9186.26385 1.2073 1.1815 2.1651 2.37647 2.4803v6.3375c-1.43517.3829-2.43618 1.6792-2.44339 3.1645v1.5017c0 .4685.37987.8484.8484.8484s.8484-.3799.8484-.8484v-1.5102c0-.8808.71414-1.5949 1.59499-1.5949.88084 0 1.59494.7141 1.59494 1.5949v1.5102c0 .4685.3799.8484.8484.8484.4686 0 .8484-.3799.8484-.8484v-1.5102c-.0072-1.4853-1.0082-2.7816-2.4433-3.1645v-6.3375c1.0777-.2904 1.9342-1.1085 2.2737-2.1719l1.4168.28v10.4692c.0017 1.5349.3253 3.0522.9502 4.4541v.0763c2.5048 5.5525 9.0365 8.023 14.5888 5.5182 2.4504-1.1054 4.4128-3.0677 5.5182-5.5182l.0424-.0933c.6316-1.3946.9639-2.9062.9757-4.4371v-10.4692l1.4168-.28c.3395 1.0634 1.1959 1.8815 2.2737 2.1719v6.3375c-1.4351.3829-2.4362 1.6792-2.4434 3.1645v1.5102c0 .4685.3799.8484.8484.8484.4686 0 .8484-.3799.8484-.8484v-1.5102c.0009-.8808.7157-1.5943 1.5965-1.5935.8797.0009 1.5927.7139 1.5935 1.5935v1.5102c0 .4685.3799.8484.8484.8484s.8484-.3799.8484-.8484v-1.5102c-.0072-1.4853-1.0082-2.7816-2.4434-3.1645v-6.3375c1.4419-.3765 2.451-1.6745 2.4604-3.1646zm-34.46194 1.595c-.88085 0-1.59499-.7142-1.59499-1.595 0-.8809.71414-1.595 1.59499-1.595.88084 0 1.59494.7141 1.59494 1.595 0 .8808-.7141 1.595-1.59494 1.595zm15.58504 19.4876c-3.1962-.0001-6.1702-1.6358-7.8816-4.3353h15.7632c-1.7114 2.6994-4.6853 4.3352-7.8816 4.3353zm9.3324-9.3323c-.0041 1.1313-.214 2.2525-.6193 3.3087h-17.4431c-.4053-1.0562-.6152-2.1774-.6193-3.3087v-10.325h18.6817zm6.2615-10.1555c-.003 0-.0058.0001-.0088.0001l-.017-.0255c-.8808 0-1.595-.7141-1.595-1.595 0-.8808.7142-1.595 1.595-1.595.8809 0 1.595.7142 1.595 1.595.0141.8809-.6885 1.6062-1.5692 1.6204z"/><path d="m28.0061 34.6442c-.1553-.1402-.357-.218-.5664-.2186h-2.5452l3.1221-3.2069c.3002-.3598.2519-.8948-.1079-1.195-.3218-.2684-.7913-.2617-1.1053.0157l-4.5219 4.6492c-.328.3346-.3226.8718.012 1.1998.1598.1566.375.2438.5988.2425h2.6131l-3.2154 3.5802c-.3131.347-.2866.882.0593 1.1963.347.313.8819.2865 1.1963-.0594l4.5219-5.0056c.3139-.3478.2865-.8843-.0614-1.1982z"/></g></svg>