<svg fill="none" height="59" viewBox="0 0 59 59" width="59" xmlns="http://www.w3.org/2000/svg"><path d="m9.31581 34.1579c-1.65614-1.6561-.69006-10.0058 0-13.9737l2.58759-1.5526h10.8684v16.5614c-.8626.345-3.1053 1.1386-5.1754 1.5526-2.5878.5176-6.2104-.5175-8.28059-2.5877z" fill="#ffe73f"/><g fill="#000"><path d="m57.2715 27.7715h-5.1856c-.9546 0-1.7285.7739-1.7285 1.7285s.7739 1.7285 1.7285 1.7285h5.1856c.9546 0 1.7285-.7739 1.7285-1.7285s-.7739-1.7285-1.7285-1.7285z"/><path d="m55.0368 38.6489-3.4571-3.457c-.6749-.675-1.7694-.675-2.4444 0-.6752.6749-.6752 1.7694 0 2.4444l3.457 3.4571c.6749.675 1.7695.675 2.4445 0 .675-.6751.675-1.7695 0-2.4445z"/><path d="m55.0367 17.9068c-.6749-.675-1.7694-.675-2.4445 0l-3.457 3.457c-.6751.675-.6751 1.7694 0 2.4445.675.675 1.7695.6749 2.4445 0l3.457-3.4571c.675-.675.675-1.7694 0-2.4444z"/><path d="m39.9863 7.0293c-2.5963 0-4.7528 1.91807-5.1276 4.4116l-1.5767 1.5768c-2.7443 2.7443-6.7858 4.3827-10.8113 4.3827h-10.3711c-2.2534 0-4.1747 1.4451-4.88823 3.457h-.29731c-3.81241 0-6.91406 3.1017-6.91406 6.9141s3.10165 6.914 6.91406 6.914h.29731c.52166 1.4709 1.68887 2.6381 3.15973 3.1598v8.9399c0 2.8593 2.3263 5.1855 5.1857 5.1855 2.8592 0 5.1854-2.3262 5.1854-5.1855v-8.6426h1.7285c4.0254 0 8.0669 1.6384 10.8113 4.3827l1.5767 1.5767c.3748 2.4935 2.5314 4.4117 5.1277 4.4117 2.8592 0 5.1855-2.3263 5.1855-5.1856v-31.1133c0-2.85927-2.3263-5.1855-5.1856-5.1855zm-33.07224 24.1992c-1.9062 0-3.45703-1.5508-3.45703-3.457s1.55083-3.457 3.45703-3.457zm10.37114 15.5567c0 .9531-.7755 1.7285-1.7286 1.7285s-1.7285-.7754-1.7285-1.7285v-8.6426h3.4571zm3.457-12.0997h-8.6426c-.9531 0-1.7285-.7754-1.7285-1.7285v-10.3711c0-.9531.7754-1.7285 1.7285-1.7285h8.6426zm14.0586 4.5341c-2.9202-2.5274-6.6746-4.0977-10.6131-4.4557l.0001-13.985c3.9384-.3579 7.6928-1.9282 10.613-4.4556zm6.914 4.1085c0 .9531-.7754 1.7285-1.7284 1.7285h-.0001c-.9531 0-1.7285-.7754-1.7285-1.7285v-31.1133c0-.9531.7754-1.7285 1.7286-1.7285.953 0 1.7284.7754 1.7284 1.7285z"/></g></svg>