<svg width="52" height="53" viewBox="0 0 52 53" fill="none" xmlns="http://www.w3.org/2000/svg">
<path d="M6 50.5V18L7.5 17H26V50.5H6Z" fill="#FFE73F"/>
<path d="M50.4516 48.6969H48.9032V6.92715C48.9032 3.74037 46.5879 1.14691 43.7419 1.14691H29.5483C26.7024 1.14691 24.387 3.74037 24.387 6.92715V14.598C23.972 14.4991 23.5447 14.4296 23.0967 14.4296H8.90323C6.05736 14.4296 3.74192 16.556 3.74192 19.1714V48.6967H1.5484C0.693626 48.6969 0 49.404 0 50.275C0 51.1461 0.693626 51.8532 1.5484 51.8532H50.4516C51.3062 51.8532 52 51.1463 52 50.275C52 49.4038 51.3064 48.6969 50.4516 48.6969ZM7.87092 19.1715C7.87092 19.0169 8.23322 18.6382 8.90323 18.6382H23.0968C23.7667 18.6382 24.1291 19.0158 24.1291 19.1715V48.6969H7.87092V19.1715ZM28.5161 6.92715C28.5161 6.00028 29.0602 5.35531 29.5485 5.35531H43.742C44.2303 5.35531 44.7743 6.00028 44.7743 6.92715V48.697H28.5161V6.92715Z" fill="#010002"/>
<path d="M34.1368 7.1344H31.584C30.7592 7.1344 30.0894 7.81612 30.0894 8.65783V11.2597C30.0894 12.1004 30.7582 12.7831 31.584 12.7831H34.1368C34.9616 12.7831 35.6315 12.1014 35.6315 11.2597V8.65783C35.6315 7.81612 34.9616 7.1344 34.1368 7.1344Z" fill="#010002"/>
<path d="M34.1368 14.4991H31.584C30.7592 14.4991 30.0894 15.1809 30.0894 16.0226V18.6244C30.0894 19.4651 30.7582 20.1479 31.584 20.1479H34.1368C34.9616 20.1479 35.6315 19.4661 35.6315 18.6244V16.0226C35.6315 15.1809 34.9616 14.4991 34.1368 14.4991Z" fill="#010002"/>
<path d="M34.1368 21.8639H31.584C30.7592 21.8639 30.0894 22.5456 30.0894 23.3873V25.9892C30.0894 26.8299 30.7582 27.5126 31.584 27.5126H34.1368C34.9616 27.5126 35.6315 26.8309 35.6315 25.9892V23.3873C35.6315 22.5456 34.9616 21.8639 34.1368 21.8639Z" fill="#010002"/>
<path d="M41.7066 7.1344H39.1539C38.3291 7.1344 37.6592 7.81612 37.6592 8.65783V11.2597C37.6592 12.1004 38.328 12.7831 39.1539 12.7831H41.7066C42.5315 12.7831 43.2013 12.1014 43.2013 11.2597V8.65783C43.2013 7.81612 42.5325 7.1344 41.7066 7.1344Z" fill="#010002"/>
<path d="M41.7066 14.4991H39.1539C38.3291 14.4991 37.6592 15.1809 37.6592 16.0226V18.6244C37.6592 19.4651 38.328 20.1479 39.1539 20.1479H41.7066C42.5315 20.1479 43.2013 19.4661 43.2013 18.6244V16.0226C43.2013 15.1809 42.5325 14.4991 41.7066 14.4991Z" fill="#010002"/>
<path d="M41.7066 21.8639H39.1539C38.3291 21.8639 37.6592 22.5456 37.6592 23.3873V25.9892C37.6592 26.8299 38.328 27.5126 39.1539 27.5126H41.7066C42.5315 27.5126 43.2013 26.8309 43.2013 25.9892V23.3873C43.2013 22.5456 42.5325 21.8639 41.7066 21.8639Z" fill="#010002"/>
<path d="M34.1368 29.2286H31.584C30.7592 29.2286 30.0894 29.9104 30.0894 30.7521V33.3539C30.0894 34.1946 30.7582 34.8774 31.584 34.8774H34.1368C34.9616 34.8774 35.6315 34.1956 35.6315 33.3539V30.7521C35.6315 29.9104 34.9616 29.2286 34.1368 29.2286Z" fill="#010002"/>
<path d="M34.1368 36.5934H31.584C30.7592 36.5934 30.0894 37.2752 30.0894 38.1169V40.7187C30.0894 41.5594 30.7582 42.2422 31.584 42.2422H34.1368C34.9616 42.2422 35.6315 41.5605 35.6315 40.7187V38.1169C35.6315 37.2752 34.9616 36.5934 34.1368 36.5934Z" fill="#010002"/>
<path d="M41.7066 29.2286H39.1539C38.3291 29.2286 37.6592 29.9104 37.6592 30.7521V33.3539C37.6592 34.1946 38.328 34.8774 39.1539 34.8774H41.7066C42.5315 34.8774 43.2013 34.1956 43.2013 33.3539V30.7521C43.2013 29.9104 42.5325 29.2286 41.7066 29.2286Z" fill="#010002"/>
<path d="M41.7066 36.5934H39.1539C38.3291 36.5934 37.6592 37.2752 37.6592 38.1169V40.7187C37.6592 41.5594 38.328 42.2422 39.1539 42.2422H41.7066C42.5315 42.2422 43.2013 41.5605 43.2013 40.7187V38.1169C43.2013 37.2752 42.5325 36.5934 41.7066 36.5934Z" fill="#010002"/>
<path d="M13.4917 21.8639H10.939C10.1142 21.8639 9.44434 22.5456 9.44434 23.3873V25.9892C9.44434 26.8299 10.1132 27.5126 10.939 27.5126H13.4918C14.3166 27.5126 14.9865 26.8309 14.9865 25.9892V23.3873C14.9865 22.5456 14.3165 21.8639 13.4917 21.8639Z" fill="#010002"/>
<path d="M21.0611 21.8639H18.5084C17.6835 21.8639 17.0137 22.5456 17.0137 23.3873V25.9892C17.0137 26.8299 17.6825 27.5126 18.5084 27.5126H21.0611C21.8859 27.5126 22.5558 26.8309 22.5558 25.9892V23.3873C22.5558 22.5456 21.887 21.8639 21.0611 21.8639Z" fill="#010002"/>
<path d="M13.4917 29.2286H10.939C10.1142 29.2286 9.44434 29.9104 9.44434 30.7521V33.3539C9.44434 34.1946 10.1132 34.8774 10.939 34.8774H13.4918C14.3166 34.8774 14.9865 34.1956 14.9865 33.3539V30.7521C14.9865 29.9104 14.3165 29.2286 13.4917 29.2286Z" fill="#010002"/>
<path d="M13.4917 36.5934H10.939C10.1142 36.5934 9.44434 37.2752 9.44434 38.1169V40.7187C9.44434 41.5594 10.1132 42.2422 10.939 42.2422H13.4918C14.3166 42.2422 14.9865 41.5605 14.9865 40.7187V38.1169C14.9865 37.2752 14.3165 36.5934 13.4917 36.5934Z" fill="#010002"/>
<path d="M21.0611 29.2286H18.5084C17.6835 29.2286 17.0137 29.9104 17.0137 30.7521V33.3539C17.0137 34.1946 17.6825 34.8774 18.5084 34.8774H21.0611C21.8859 34.8774 22.5558 34.1956 22.5558 33.3539V30.7521C22.5558 29.9104 21.887 29.2286 21.0611 29.2286Z" fill="#010002"/>
<path d="M21.0611 36.5934H18.5084C17.6835 36.5934 17.0137 37.2752 17.0137 38.1169V40.7187C17.0137 41.5594 17.6825 42.2422 18.5084 42.2422H21.0611C21.8859 42.2422 22.5558 41.5605 22.5558 40.7187V38.1169C22.5558 37.2752 21.887 36.5934 21.0611 36.5934Z" fill="#010002"/>
</svg>
