<svg width="47" height="47" viewBox="0 0 47 47" fill="none" xmlns="http://www.w3.org/2000/svg">
<path d="M14.0001 25C12.8001 23 13.8334 12.8333 14.5001 8.00001C15.5002 5.50002 22 2.00001 24 1.50001C26 1.00001 33 8.00001 33 9.00001V25.5C33 28 26 31 24 31.5C22 32 15.5001 27.5 14.0001 25Z" fill="#FFE73F"/>
<path d="M42.1042 10.7708C41.0232 10.7708 40.1458 11.6482 40.1458 12.7292V14.6875H35.25V11.75C35.25 5.27085 29.9791 0 23.5 0C17.0209 0 11.75 5.27085 11.75 11.75V14.6875H6.85417V12.7292C6.85417 11.6482 5.97683 10.7708 4.89583 10.7708C3.81483 10.7708 2.9375 11.6482 2.9375 12.7292V21.5417C2.9375 32.2185 11.1194 41.0153 21.5417 42.0053V45.0417C21.5417 46.1227 22.419 47 23.5 47C24.581 47 25.4583 46.1227 25.4583 45.0417V42.0053C35.8806 41.0153 44.0625 32.2185 44.0625 21.5417V12.7292C44.0625 11.6482 43.1852 10.7708 42.1042 10.7708ZM21.5417 38.0612C13.2844 37.0879 6.85417 30.0565 6.85417 21.5417V18.6042H11.75V21.5417C11.75 27.352 15.9937 32.1784 21.5417 33.1144V38.0612ZM23.5 29.375C19.5128 29.375 16.2189 26.3787 15.7342 22.5208H23.5C24.581 22.5208 25.4583 21.6435 25.4583 20.5625C25.4583 19.4815 24.581 18.6042 23.5 18.6042H15.6667V14.6875H23.5C24.581 14.6875 25.4583 13.8102 25.4583 12.7292C25.4583 11.6482 24.581 10.7708 23.5 10.7708H15.7342C16.2189 6.91292 19.5128 3.91667 23.5 3.91667C27.4872 3.91667 30.7811 6.91292 31.2658 10.7708H30.3542C29.2732 10.7708 28.3958 11.6482 28.3958 12.7292C28.3958 13.8102 29.2732 14.6875 30.3542 14.6875H31.3333V18.6042H30.3542C29.2732 18.6042 28.3958 19.4815 28.3958 20.5625C28.3958 21.6435 29.2732 22.5208 30.3542 22.5208H31.2658C30.7811 26.3787 27.4872 29.375 23.5 29.375ZM40.1458 21.5417C40.1458 30.0565 33.7156 37.0879 25.4583 38.0622V33.1154C31.0063 32.1784 35.25 27.352 35.25 21.5417V18.6042H40.1458V21.5417Z" fill="black"/>
</svg>
