<svg width="42" height="42" viewBox="0 0 42 42" fill="none" xmlns="http://www.w3.org/2000/svg">
<path d="M32.9766 13.6172C32.5238 13.6172 32.1562 13.9847 32.1562 14.4375C32.1562 14.8903 32.5238 15.2578 32.9766 15.2578C33.4294 15.2578 33.7969 14.8903 33.7969 14.4375C33.7969 13.9847 33.4294 13.6172 32.9766 13.6172Z" fill="black"/>
<path d="M39.5391 10.3359H30.5304L27.9295 5.13409C27.5098 4.29483 26.6663 3.77344 25.7283 3.77344H16.2717C15.3335 3.77344 14.4901 4.29483 14.0705 5.13417L11.4696 10.3359H9.84375V9.51562C9.84375 8.15866 8.73977 7.05469 7.38281 7.05469H5.74219C4.38523 7.05469 3.28125 8.15866 3.28125 9.51562V10.3359H2.46094C1.10398 10.3359 0 11.4399 0 12.7969C0 15.0261 0 34.8985 0 35.7656C0 37.1226 1.10398 38.2266 2.46094 38.2266H39.5391C40.896 38.2266 42 37.1226 42 35.7656C42 33.5364 42 13.664 42 12.7969C42 11.4399 40.896 10.3359 39.5391 10.3359ZM15.5379 5.86786C15.6779 5.58797 15.959 5.41406 16.2717 5.41406H25.7283C26.041 5.41406 26.3222 5.58797 26.4621 5.86786L28.6962 10.3359H13.3038L15.5379 5.86786ZM4.92188 9.51562C4.92188 9.0633 5.28987 8.69531 5.74219 8.69531H7.38281C7.83513 8.69531 8.20312 9.0633 8.20312 9.51562V10.3359H4.92188V9.51562ZM1.64062 18.5309H12.0136C10.9234 20.2339 10.3359 22.2298 10.3359 24.2812C10.3359 26.3329 10.9234 28.3207 12.0135 30.0234H1.64062V18.5309ZM21 15.2578C25.9328 15.2578 30.0234 19.2543 30.0234 24.2812C30.0234 29.3025 25.9385 33.3047 21 33.3047C16.057 33.3047 11.9766 29.2981 11.9766 24.2812C11.9766 19.2605 16.0609 15.2578 21 15.2578ZM40.3594 35.7656C40.3594 36.2179 39.9914 36.5859 39.5391 36.5859H2.46094C2.00862 36.5859 1.64062 36.2179 1.64062 35.7656V31.6641H13.3076C15.312 33.7536 18.094 34.9453 21 34.9453C23.9064 34.9453 26.6887 33.7532 28.6925 31.6641H40.3594V35.7656ZM40.3594 30.0234H29.9864C31.0766 28.3204 31.6641 26.3328 31.6641 24.2812C31.6641 22.2297 31.0766 20.2421 29.9864 18.5391H40.3594V30.0234ZM40.3594 16.8984H28.6924C26.688 14.8089 23.906 13.6172 21 13.6172C18.0936 13.6172 15.3114 14.8093 13.3075 16.8984H1.64062V12.7969C1.64062 12.3446 2.00862 11.9766 2.46094 11.9766C3.20586 11.9766 38.3859 11.9766 39.5391 11.9766C39.9914 11.9766 40.3594 12.3446 40.3594 12.7969V16.8984Z" fill="black"/>
<path d="M23.4609 7.05469H18.5391C18.086 7.05469 17.7188 7.42194 17.7188 7.875C17.7188 8.32806 18.086 8.69531 18.5391 8.69531H23.4609C23.9139 8.69531 24.2812 8.32806 24.2812 7.875C24.2812 7.42194 23.9139 7.05469 23.4609 7.05469Z" fill="black"/>
<path d="M21 16.8984C16.9291 16.8984 13.6172 20.2104 13.6172 24.2812C13.6172 28.3521 16.9291 31.6641 21 31.6641C25.0709 31.6641 28.3828 28.3521 28.3828 24.2812C28.3828 20.2104 25.0709 16.8984 21 16.8984ZM21 30.0234C17.8338 30.0234 15.2578 27.4475 15.2578 24.2812C15.2578 21.115 17.8338 18.5391 21 18.5391C24.1662 18.5391 26.7422 21.115 26.7422 24.2812C26.7422 27.4475 24.1662 30.0234 21 30.0234Z" fill="black"/>
<path d="M21 20.1797C18.7384 20.1797 16.8984 22.0196 16.8984 24.2812C16.8984 24.7343 17.2657 25.1016 17.7188 25.1016C18.1718 25.1016 18.5391 24.7343 18.5391 24.2812C18.5391 22.9243 19.643 21.8203 21 21.8203C21.453 21.8203 21.8203 21.4531 21.8203 21C21.8203 20.5469 21.453 20.1797 21 20.1797Z" fill="black"/>
<path d="M37.8984 13.6172H36.2578C35.8048 13.6172 35.4375 13.9844 35.4375 14.4375C35.4375 14.8906 35.8048 15.2578 36.2578 15.2578H37.8984C38.3514 15.2578 38.7188 14.8906 38.7188 14.4375C38.7188 13.9844 38.3514 13.6172 37.8984 13.6172Z" fill="black"/>
</svg>
