<svg fill="none" height="50" viewBox="0 0 50 50" width="50" xmlns="http://www.w3.org/2000/svg"><g fill="#000"><path d="m5.81889 5.83034v43.31156c0 .4601.37294.833.83301.833h31.6508c.4597 0 .8327-.3729.8327-.833v-34.9822c0-.0185-.009-.0343-.0107-.0525-.0041-.073-.0185-.1451-.0425-.214-.0093-.0268-.0158-.0525-.0275-.0786-.0404-.0906-.0967-.1733-.1667-.2439l-8.329-8.32909c-.0707-.07033-.1537-.12659-.245-.16674-.025-.01063-.0504-.01955-.0765-.02744-.0696-.02402-.142-.03843-.2158-.04323-.0141.0024-.0305-.00652-.048-.00652h-23.3218c-.46007 0-.83301.37259-.83301.83266zm30.47301 7.49636h-5.4856v-5.48554zm-28.80734-6.66335h21.65614v7.49635c0 .4598.3729.8327.8326.8327h7.4964v33.3168h-29.98514z"/><path d="m40.8014 43.3115v1.6657h2.4987c.46 0 .833-.3726.833-.8327v-43.311494c0-.460074-.373-.833006-.833-.833006h-31.6508c-.4601 0-.833.372932-.833.833006v2.498674h1.666v-1.66601h29.9847v41.64583z"/><path d="m12.4823 16.6584h19.9897v1.6656h-19.9897z"/><path d="m12.4823 11.6608h6.6633v1.666h-6.6633z"/><path d="m12.4823 21.6558h13.3267v1.666h-13.3267z"/><path d="m27.4747 21.6558h4.9973v1.666h-4.9973z"/><path d="m12.4823 26.6531h19.9897v1.6661h-19.9897z"/><path d="m12.4823 36.6481h19.9897v1.666h-19.9897z"/><path d="m19.9783 31.6508h12.4937v1.6657h-12.4937z"/><path d="m12.4823 31.6508h5.8303v1.6657h-5.8303z"/><path d="m12.4823 41.6459h3.3317v1.6657h-3.3317z"/><path d="m17.4796 41.6459h14.9924v1.6657h-14.9924z"/></g></svg>