<svg width="47" height="60" viewBox="0 0 47 60" fill="none" xmlns="http://www.w3.org/2000/svg">
<path d="M13.528 3.98524C11.7572 3.98524 9.83885 3.2474 9.10101 2.87848C7.99425 5.092 9.10101 9.51903 10.2078 11.7325C11.3145 13.9461 20.1686 13.3927 21.8287 13.3927C23.4889 13.3927 25.7024 10.6258 26.8091 10.6258C27.6946 10.6258 31.2362 12.4704 32.8963 13.3927C33.0808 12.4704 33.339 10.0724 32.8963 7.85889C32.3429 5.092 28.4693 2.87848 24.5956 2.87848C20.722 2.87848 15.7416 3.98524 13.528 3.98524Z" fill="#FFE73F"/>
<path d="M33.9033 34.0658L31.3175 30.3685C34.1046 28.1151 35.8904 24.67 35.8904 20.8151V13.563C35.8904 13.5346 35.8828 10.6312 35.845 10.2142C35.5483 6.92564 33.7156 4.0475 30.8169 2.31801C27.7943 0.5147 24.0677 0.261814 20.8478 1.64181C18.1422 2.80132 15.0386 2.80144 12.3333 1.64181L9.09394 0.253509C8.5519 0.0210921 7.92928 0.0766523 7.43684 0.401474C6.94452 0.726062 6.64824 1.2764 6.64824 1.86616V6.5449C6.64824 9.90413 8.54711 12.8269 11.327 14.3004V20.8151C11.327 24.67 13.1127 28.1151 15.8999 30.3685L13.3141 34.0658C6.33254 34.5486 0.799805 40.382 0.799805 47.4839V58.2451C0.799805 59.214 1.58537 59.9996 2.55433 59.9996H18.34C18.3423 59.9996 18.3446 59.9999 18.347 59.9999C18.3496 59.9999 18.3521 59.9996 18.3548 59.9996H28.8625C28.865 59.9996 28.8676 59.9999 28.8703 59.9999C28.8726 59.9999 28.875 59.9996 28.8773 59.9996H44.6629C45.6319 59.9996 46.4175 59.214 46.4175 58.2451V47.4839C46.4176 40.382 40.8849 34.5486 33.9033 34.0658ZM13.5645 11.4695C11.5757 10.7173 10.1573 8.79409 10.1573 6.54502V4.52708L10.9509 4.86722C14.5352 6.40325 18.6459 6.40325 22.2302 4.86722C24.4203 3.92866 26.9582 4.10201 29.0189 5.33159C30.937 6.47601 32.1502 8.36458 32.3489 10.5152C32.3563 10.6512 32.363 11.1018 32.3684 11.6211C31.0684 11.3428 29.8399 10.7609 28.7984 9.91664L27.287 8.69128C26.6427 8.16901 25.7211 8.16901 25.0769 8.69128L23.5655 9.91664C22.0609 11.1367 20.1653 11.8086 18.228 11.8086H15.4208C14.8461 11.8086 14.2932 11.7147 13.7751 11.5437C13.7072 11.5143 13.6366 11.4901 13.5645 11.4695ZM14.836 20.8152V15.296C15.0296 15.3089 15.2241 15.3177 15.4209 15.3177H18.2281C20.9674 15.3177 23.6479 14.3675 25.7757 12.6422L26.182 12.3129L26.5884 12.6422C28.2583 13.9963 30.2692 14.8703 32.3813 15.1848V20.8152C32.3813 25.6524 28.4459 29.5878 23.6087 29.5878C18.7715 29.5878 14.836 25.6524 14.836 20.8152ZM23.6087 39.138L20.0996 34.0694V32.5852C21.212 32.9174 22.3898 33.0968 23.6087 33.0968C24.8276 33.0968 26.0054 32.9175 27.1178 32.5852V34.0694L23.6087 39.138ZM25.3632 43.975V47.4841H21.8542V43.975H23.6087H25.3632ZM18.3451 49.1842L16.9031 56.4905H4.30887V47.4839C4.30887 42.6006 7.8488 38.5313 12.4967 37.6997V42.2203C12.4967 43.1893 13.2822 43.9749 14.2512 43.9749H18.3451V49.1842ZM16.0057 40.4659V36.3399L16.7304 35.3038C16.7767 35.413 16.8343 35.5177 16.9025 35.6162L20.26 40.4659H16.0057ZM20.4797 56.4906L21.5647 50.9931H25.6525L26.7375 56.4906H20.4797ZM26.9574 40.4659L30.3149 35.6162C30.3831 35.5177 30.4406 35.413 30.487 35.3038L31.2117 36.3399V40.4659H26.9574ZM42.9085 56.4906H30.3143L28.8723 49.1843V43.975H32.9662C33.9352 43.975 34.7207 43.1894 34.7207 42.2205V37.6999C39.3686 38.5313 42.9085 42.6007 42.9085 47.4841V56.4906Z" fill="black"/>
<path d="M41.0922 46.8992H37.5832C36.6142 46.8992 35.8286 47.6847 35.8286 48.6537C35.8286 49.6227 36.6142 50.4083 37.5832 50.4083H41.0922C42.0612 50.4083 42.8468 49.6227 42.8468 48.6537C42.8468 47.6847 42.0612 46.8992 41.0922 46.8992Z" fill="black"/>
</svg>
