<svg fill="none" height="50" viewBox="0 0 50 50" width="50" xmlns="http://www.w3.org/2000/svg"><g fill="#000"><path d="m35.2347 48.4375c.8211.0022 1.6345-.1584 2.3932-.4726.7586-.3142 1.4473-.7758 2.0264-1.358l2.8569-2.8569h1.2388c.2072 0 .4059-.0823.5524-.2288s.2288-.3453.2288-.5524v-4.6876h2.3438v-1.5624h-2.3438v-1.5626h2.3438v-1.5624h-2.3438v-1.5626h2.3438v-1.5624h-2.3438v-1.5626h2.3438v-1.5624h-2.3438v-3.125c0-.2072-.0823-.406-.2288-.5525s-.3452-.2288-.5524-.2288h-2.3438v-2.3437h-1.5624v2.3437h-1.5626v-2.3437h-1.5624v2.3437h-1.5626v-2.3437h-1.5624v2.3437h-2.3438c-.2072 0-.4059.0823-.5524.2288s-.2288.3453-.2288.5525v.3976l-5.2453-3.0598c.8743-1.2891 1.3408-2.8114 1.339-4.3691v-10.9375c-.0009-.82851-.3305-1.62282-.9163-2.20866-.5859-.58585-1.3802-.91539-2.2087-.91634h-.4204c-.2742-.47472-.6685-.86898-1.1432-1.14323s-1.0132-.41884-1.5614-.41927h-3.125c-1.657.00186-3.2457.66094-4.4174 1.83264s-1.8307 2.76033-1.8326 4.41736v9.375c-.0018 1.5577.4647 3.08 1.339 4.3691l-7.21354 4.208c-.58882.345-1.07736.8377-1.41726 1.4295s-.51939 1.2621-.5207 1.9446v18.5175c.00001.2072.08232.406.22883.5525s.34522.2288.55242.2288zm-9.4535-1.5625v-4.2859l4.5252-3.2387c.0691-.0495.1505-.0791.2353-.0856.0848-.0064.1697.0106.2455.0492l.0172.0086c.0992.0492.1795.1297.2284.229.049.0993.0639.212.0426.3207-.2341 1.1562-.5915 2.9433-.5915 2.9433-.0226.1133-.0199.2303.0081.3424.028.1122.0806.2167.1538.3061.0733.0894.1655.1614.27.2108.1045.0495.2186.0751.3342.0751h1.5216c.7095-.0009 1.3977-.2423 1.9523-.6847l2.0085-1.6069c.075-.06.1617-.1038.2545-.1285.0929-.0248.1899-.0299.2848-.0152.095.0148.1858.0491.2668.1009.081.0517.1503.1197.2035.1997.0886.1334.1283.2933.1125.4527-.0158.1593-.0861.3083-.1991.4217l-3.0123 3.0123c-.4343.4367-.9508.7828-1.5198 1.0185-.5689.2357-1.179.3562-1.7948.3545zm9.375-7.8125v-8.6926c.5401-.1407 1.0328-.4229 1.4275-.8175.3946-.3946.6768-.8873.8174-1.4274h2.4427v10.9375zm3.3931 6.4395c-.8203.825-1.9198 1.3128-3.082 1.3673.0956-.0846.1897-.1714.2807-.2624l2.8569-2.8569h1.6964zm-6.5181-20.502h10.9376v17.1875h-3.5586c.0437-.5075-.086-1.0148-.3681-1.439-.0283-.0424-.0584-.0833-.0893-.1235h1.6722c.2072 0 .4059-.0823.5524-.2288s.2288-.3453.2288-.5524v-12.5c0-.2072-.0823-.406-.2288-.5525s-.3452-.2288-.5524-.2288h-3.9062c-.2072 0-.406.0823-.5525.2288s-.2288.3453-.2288.5525c-.0005.4142-.1652.8114-.4582 1.1043-.2929.2929-.69.4577-1.1043.4581-.2072.0001-.4059.0824-.5524.2289s-.2288.3452-.2288.5524v10.1563c0 .2071.0823.4059.2288.5524s.3452.2288.5524.2288h.8978l-1.525 1.2201c-.2773.2213-.6215.3419-.9762.3424h-.5683c.1215-.6062.2798-1.394.4035-2.0053.0683-.3418.049-.6953-.0561-1.0277-.105-.3324-.2925-.6328-.5448-.8733h.0253zm-1.5624 2.3438h-2.3438v1.5624h2.3438v1.5626h-2.3438v1.5624h2.3438v1.5626h-2.3438v1.5624h2.3438v1.5626h-2.3438v1.5624h.9904l-4.3031 3.0799-1.3748-.2426v-8.306c0-.2072-.0823-.4059-.2288-.5524s-.3453-.2288-.5525-.2289h-2.4152l5.7068-8.2431 4.521 2.6372zm-7.8126-19.5313c.1452-.00041.289.02799.4231.08355s.2559.13718.3582.24013l1.5625 1.5624v7.48892c0 1.6576-.6585 3.2473-1.8306 4.4194s-2.7618 1.8306-4.4194 1.8306-3.2473-.6585-4.4194-1.8306-1.8306-2.7618-1.8306-4.4194v-7.48892l1.5625-1.5624c.1026-.10262.2244-.18402.3584-.23955.1341-.05554.2778-.08413.4229-.08413.145 0 .2887.02859.4228.08413.134.05553.2558.13693.3584.23955l1.2388 1.23882c.5003.50023 1.1788.7812 1.8862.7812s1.3859-.28097 1.8862-.7812l1.2388-1.23882c.1023-.10295.2241-.18457.3582-.24013s.2779-.08396.423-.08355zm-3.9062 17.1875c2.0403.001 3.9995-.7991 5.4559-2.228l.3883.2265-5.8442 8.4415-5.8442-8.4415.3883-.2265c1.4564 1.4289 3.4156 2.229 5.4559 2.228zm0 10.9375c.2072 0 .4059-.0823.5524-.2288s.2288-.3453.2288-.5525v-1.5624h2.3438v7.2489l-6.25-1.1029v-6.146h2.3438v1.5624c0 .2072.0823.406.2288.5525s.3452.2288.5524.2288zm6.25-29.6875v1.23882l-.4576-.45757c-.3079-.30933-.6875-.53792-1.1049-.66552v-1.67823c.4143.00047.8114.16525 1.1043.45817.293.29292.4577.69007.4582 1.10433zm-7.8125-3.125h3.125c.4143.00047.8114.16525 1.1043.45817.293.29292.4577.69007.4582 1.10433v1.67823c-.4174.1276-.797.35619-1.1049.66552l-1.2389 1.23882c-.1025.10262-.2243.18402-.3584.23956-.134.05554-.2777.08412-.4228.08412s-.2888-.02858-.4228-.08412c-.1341-.05554-.2559-.13694-.3584-.23956l-1.2389-1.23882c-.5002-.50023-1.1787-.78125-1.8861-.78125-.7075 0-1.386.28102-1.8862.78125l-.4442.44413c.0864-1.18111.6162-2.28589 1.4831-3.09274.8668-.80685 2.0067-1.2561 3.191-1.25764zm-12.5 26.0137c.00079-.4095.10849-.8117.31243-1.1668.20395-.355.49708-.6507.85039-.8577l5.70188-3.3261 5.7068 8.2431h-2.4152c-.2072.0001-.406.0824-.5525.2289s-.2288.3452-.2288.5524v6.6183c-.4572-.161-.853-.46-1.1329-.8557s-.43-.8685-.4296-1.3532v-2.0657h-1.5625v2.0657c-.0011.9186.322 1.8081.9124 2.5118s1.4102 1.1765 2.3149 1.3351l10.054 1.7742v4.032h-10.1563c-2.4855-.0028-4.86848-.9914-6.62602-2.749-1.75755-1.7575-2.74617-4.1405-2.74898-6.626zm0 13.9893c.92568 1.5351 2.21186 2.8213 3.74701 3.747h-3.74701z"/><path d="m38.2812 32.0312h-1.5624v4.6876h1.5624z"/><path d="m17.1875 11.7188h-3.125v1.5624h3.125z"/><path d="m18.75 17.9688c-.0002.2071-.0826.4057-.2291.5521-.1464.1465-.345.2289-.5521.2291h-.7813v1.5625h.7813c.6213-.0007 1.2171-.2479 1.6564-.6873.4394-.4393.6866-1.0351.6873-1.6564v-1.5626h-1.5625z"/><path d="m15.625 15.625c.4315 0 .7812-.3498.7812-.7812 0-.4315-.3497-.7813-.7812-.7813s-.7812.3498-.7812.7813c0 .4314.3497.7812.7812.7812z"/><path d="m23.4375 11.7188h-3.125v1.5624h3.125z"/><path d="m21.875 15.625c.4315 0 .7812-.3498.7812-.7812 0-.4315-.3497-.7813-.7812-.7813s-.7812.3498-.7812.7813c0 .4314.3497.7812.7812.7812z"/></g></svg>