<svg width="47" height="46" viewBox="0 0 47 46" fill="none" xmlns="http://www.w3.org/2000/svg">
<circle cx="24" cy="25" r="9" fill="#FFE73F"/>
<path d="M23.5 14.1055C17.1729 14.1055 12.0254 19.1435 12.0254 25.3359C12.0254 31.5284 17.1729 36.5664 23.5 36.5664C29.8271 36.5664 34.9746 31.5284 34.9746 25.3359C34.9746 19.1435 29.8271 14.1055 23.5 14.1055ZM23.5 32.9727C19.1976 32.9727 15.6973 29.5468 15.6973 25.3359C15.6973 21.1251 19.1976 17.6992 23.5 17.6992C27.8024 17.6992 31.3027 21.1251 31.3027 25.3359C31.3027 29.5468 27.8024 32.9727 23.5 32.9727Z" fill="black"/>
<path d="M3.1333 24.5333H14.6222" stroke="black" stroke-width="4"/>
<path d="M33.4224 24.5333H44.9113" stroke="black" stroke-width="4"/>
<path d="M2.08887 30.6667H15.6666" stroke="black" stroke-width="4"/>
<path d="M31.3335 30.6667L43.8668 30.6667" stroke="black" stroke-width="4"/>
<path d="M41.4922 8.71484H34.7382C34.5244 8.71484 34.3318 8.60065 34.2326 8.41593L32.3641 4.57305C32.359 4.56254 32.3538 4.55211 32.3484 4.54169C31.6251 3.12575 30.1709 2.24609 28.5533 2.24609H18.5775C16.9599 2.24609 15.5057 3.12575 14.7824 4.54178C14.777 4.5522 14.7719 4.56263 14.7667 4.57314L12.8981 8.4162C12.799 8.60065 12.6064 8.71484 12.3926 8.71484H5.50781C2.4708 8.71484 0 11.1331 0 14.1055V38.3633C0 41.3357 2.4708 43.7539 5.50781 43.7539H41.4922C44.5292 43.7539 47 41.3357 47 38.3633V14.1055C47 11.1331 44.5292 8.71484 41.4922 8.71484ZM43.3281 38.3632C43.3281 39.354 42.5045 40.1601 41.4922 40.1601H5.50781C4.49548 40.1601 3.67188 39.354 3.67188 38.3632V14.1055C3.67188 13.1147 4.49548 12.3086 5.50781 12.3086H12.3926C14.01 12.3086 15.4643 11.429 16.1876 10.0131C16.1931 10.0027 16.1982 9.99215 16.2034 9.98164L18.0721 6.13857C18.1711 5.95403 18.3637 5.83984 18.5775 5.83984H28.5533C28.7671 5.83984 28.9597 5.95404 29.0588 6.13848L30.9274 9.98155C30.9326 9.99206 30.9377 10.0026 30.9432 10.013C31.6665 11.4289 33.1208 12.3085 34.7382 12.3085H41.4922C42.5045 12.3085 43.3281 13.1146 43.3281 14.1054V38.3632Z" fill="black"/>
<path d="M39.6562 15.9023H35.9844V19.4961H39.6562V15.9023Z" fill="black"/>
</svg>
