<svg width="59" height="59" viewBox="0 0 59 59" fill="none" xmlns="http://www.w3.org/2000/svg">
<circle cx="29.5" cy="29.5" r="29.5" fill="#FFE73F"/>
<path d="M38.3955 15H20.6045C17.5142 15 15 17.5136 15 20.604V26.524V38.396C15 41.4864 17.5142 44 20.6045 44H38.3961C41.4864 44 44 41.4864 44 38.396V26.5234V20.6035C43.9994 17.513 41.4858 15 38.3955 15ZM40.003 18.3419L40.6441 18.3396V18.9778V23.2551L35.745 23.2709L35.7281 18.356L40.003 18.3419ZM25.3608 26.5234C26.2897 25.2382 27.7966 24.3952 29.5 24.3952C31.2034 24.3952 32.7103 25.2382 33.638 26.5234C34.2423 27.3622 34.6044 28.3883 34.6044 29.4997C34.6044 32.314 32.3125 34.6036 29.4994 34.6036C26.6846 34.6036 24.395 32.314 24.395 29.4997C24.3956 28.3883 24.7566 27.3622 25.3608 26.5234ZM41.1741 38.3954C41.1741 39.9286 39.9275 41.174 38.3955 41.174H20.6045C19.0719 41.174 17.8254 39.9286 17.8254 38.3954V26.5234H22.1541C21.7803 27.4429 21.5703 28.4473 21.5703 29.4997C21.5703 33.8712 25.1268 37.4302 29.5 37.4302C33.8726 37.4302 37.4291 33.8712 37.4291 29.4997C37.4291 28.4473 37.218 27.4429 36.8442 26.5234H41.1741V38.3954Z" fill="black"/>
</svg>
