<svg width="59" height="59" viewBox="0 0 59 59" fill="none" xmlns="http://www.w3.org/2000/svg">
<circle cx="29.5" cy="29.5" r="29.5" fill="#FFE73F"/>
<path fill-rule="evenodd" clip-rule="evenodd" d="M31.3382 24.2946C31.3972 25.7862 31.235 27.3516 31.3972 28.7395C31.4414 29.1531 31.8253 29.5813 32.3424 29.0644C33.7453 27.6173 34.9413 24.8412 35.0892 24.3537C35.163 24.088 35.3694 23.97 35.6206 23.97H39.3564C39.7851 23.97 40.5087 24.1914 39.9768 25.2252C39.0167 27.071 38.0425 27.9865 36.9498 29.611C36.6396 30.0688 36.5064 30.5265 36.8755 30.8955C37.9535 31.9738 39.2237 33.0511 39.9325 34.1295C40.4491 34.956 39.962 35.591 39.2236 35.591H35.9455C35.5173 35.591 35.1629 35.4137 34.8233 35.1334C34.1144 34.5729 33.5974 33.8492 32.9627 33.2142C32.3719 32.6383 31.9585 32.6526 31.6778 33.1989C31.4414 33.6127 31.4119 34.0856 31.3677 34.9417C31.3382 35.3556 31.0575 35.5319 30.6736 35.591H29.079C25.7565 35.591 23.2904 33.0959 21.3267 29.5222C20.4404 27.8979 19.5988 26.436 18.8458 24.5754C18.7868 24.2357 18.9932 23.97 19.4956 23.97H22.4931C22.9213 23.97 23.2462 24.1766 23.3642 24.4276C24.2062 26.3622 25.1952 28.0897 26.111 29.1235C26.3174 29.3597 26.6866 29.4483 26.923 29.1235C27.3364 28.5624 27.2185 25.4022 26.982 24.9739C26.5686 24.1914 25.8745 24.4424 25.8745 24.2946C25.904 23.837 26.5096 23.4234 28.7541 23.4086C30.4966 23.4086 31.3086 23.5712 31.3382 24.2946ZM18.2549 42H40.7593C41.4386 42 42 41.4395 42 40.7596V18.2551C42 17.561 41.4386 17 40.7593 17H18.2549C17.5609 17 17 17.561 17 18.2551V40.7596C17 41.4394 17.5609 42 18.2549 42Z" fill="black"/>
</svg>
