<svg width="60" height="60" viewBox="0 0 60 60" fill="none" xmlns="http://www.w3.org/2000/svg">
<path d="M20.5 39V21H39V39.5L20.5 39Z" fill="#FFE73F"/>
<path d="M39.2745 18.5487H20.7255C19.5231 18.5487 18.5488 19.523 18.5488 20.7254V39.2746C18.5488 40.477 19.5234 41.4513 20.7255 41.4513H39.2745C40.4769 41.4513 41.4512 40.477 41.4512 39.2746V20.7254C41.4512 19.5233 40.4769 18.5487 39.2745 18.5487ZM37.0978 37.098H22.9022V22.902H37.0978V37.098Z" fill="black"/>
<path d="M57.8233 32.1767C59.0257 32.1767 60 31.2024 60 30C60 28.7976 59.0257 27.8233 57.8233 27.8233H50.7259V22.902H57.8233C59.0257 22.902 60 21.9278 60 20.7254C60 19.523 59.0257 18.5487 57.8233 18.5487H50.7259V11.4507C50.7259 10.2483 49.7517 9.27406 48.5493 9.27406H41.4513V2.17667C41.4513 0.974277 40.477 0 39.2746 0C38.0722 0 37.098 0.974277 37.098 2.17667V9.27406H32.1767V2.17667C32.1767 0.974277 31.2024 0 30 0C28.7976 0 27.8233 0.974277 27.8233 2.17667V9.27406H22.9023V2.17667C22.9023 0.974277 21.928 0 20.7257 0C19.5233 0 18.549 0.974277 18.549 2.17667V9.27406H11.451C10.2486 9.27406 9.27435 10.2486 9.27435 11.4507V18.5487H2.17667C0.974277 18.5487 0 19.523 0 20.7254C0 21.9278 0.974277 22.902 2.17667 22.902H9.27435V27.8233H2.17667C0.974277 27.8233 0 28.7976 0 30C0 31.2024 0.974277 32.1767 2.17667 32.1767H9.27435V37.098H2.17667C0.974277 37.098 0 38.0722 0 39.2746C0 40.477 0.974277 41.4513 2.17667 41.4513H9.27435V48.5493C9.27435 49.7517 10.2486 50.7259 11.451 50.7259H18.549V57.8233C18.549 59.0257 19.5236 60 20.7257 60C21.928 60 22.9023 59.0257 22.9023 57.8233V50.7259H27.8233V57.8233C27.8233 59.0257 28.7976 60 30 60C31.2024 60 32.1767 59.0257 32.1767 57.8233V50.7259H37.098V57.8233C37.098 59.0257 38.0722 60 39.2746 60C40.477 60 41.4513 59.0257 41.4513 57.8233V50.7259H48.5493C49.7517 50.7259 50.7259 49.7517 50.7259 48.5493V41.4513H57.8233C59.0257 41.4513 60 40.477 60 39.2746C60 38.0722 59.0257 37.098 57.8233 37.098H50.7259V32.1767H57.8233ZM46.3726 46.3726H13.6277V13.6274H46.3726V46.3726Z" fill="black"/>
</svg>
