<svg fill="none" height="16" viewBox="0 0 16 16" width="16" xmlns="http://www.w3.org/2000/svg"><path d="m8 0c-4.41113 0-8 3.58887-8 8 0 4.4111 3.58887 8 8 8 4.4111 0 8-3.5889 8-8 0-4.41113-3.5889-8-8-8zm-1.41406 9.41406c.75586.75584 2.07227.75584 2.82812 0l1.41404 1.41404c-.7554.7559-1.75975 1.1719-2.8281 1.1719-1.06836 0-2.07275-.416-2.82812-1.1719-.75586-.7554-1.17188-1.75975-1.17188-2.8281 0-1.06836.41602-2.07275 1.17188-2.82812 1.51074-1.51172 4.14551-1.51172 5.65622 0l-1.41403 1.41406c-.75586-.75586-2.07227-.75586-2.82812 0-.37793.37793-.58594.87988-.58594 1.41406s.20801 1.03613.58594 1.41406z" fill="#fff"/></svg>