<svg fill="none" height="47" viewBox="0 0 47 47" width="47" xmlns="http://www.w3.org/2000/svg"><g fill="#000"><path d="m14.6424 31.1264c.0065-.0087.0131-.0174.0195-.0264-.0064.009-.0131.0177-.0195.0264z"/><path d="m26.1762 15.625c.2317 0 .4583-.0687.651-.1975s.3429-.3118.4316-.5259c.0887-.2142.1119-.4498.0667-.6771s-.1568-.4361-.3207-.6-.3727-.2755-.6-.3207-.4629-.022-.6771.0667c-.2141.0887-.3971.2389-.5259.4316s-.1975.4193-.1975.651c.0004.3107.1239.6086.3436.8283s.5176.3432.8283.3436z"/><path d="m33.2074 15.625c.2318 0 .4583-.0687.6511-.1975.1927-.1288.3429-.3118.4316-.5259.0887-.2142.1119-.4498.0666-.6771-.0452-.2273-.1568-.4361-.3207-.6s-.3727-.2755-.6-.3207-.4629-.022-.6771.0667c-.2141.0887-.3971.2389-.5259.4316-.1287.1927-.1975.4193-.1975.651.0004.3107.124.6086.3437.8283.2196.2197.5175.3432.8282.3436z"/><path d="m27.3481 20.3125h1.4542c1.3574 0 2.6456-.3152 3.6269-.8877l-.7873-1.3496c-.7353.4288-1.7702.6748-2.8396.6748h-1.4542z"/><path d="m43.0556 28.322-8.6763-1.6267v-2.4799c.971-.7263 1.759-1.6692 2.3015-2.7536s.8245-2.2805.8235-3.493c.7225-.0003 1.4226-.2508 1.9812-.709.5585-.4583.9411-1.0959 1.0825-1.8044s.0329-1.4442-.307-2.0817c-.3398-.6376-.8901-1.1377-1.5572-1.4152.586-.3449 1.0718-.8366 1.4095-1.4267.3377-.59014.5155-1.25815.516-1.93805 0-.2072-.0823-.40591-.2288-.55243-.1465-.14651-.3453-.22882-.5525-.22882h-2.3437v-.46426c0-.0164 0-.03291 0-.04883-.0014-.66836-.0274-1.29043-.0807-1.89921-.0562-.63409-.1376-1.27647-.2414-1.90733-.1574-.97698-.6597-1.86518-1.416-2.503417-.4382-.371161-.9482-.647931-1.4982-.813003-.55-.1650716-1.1281-.2148945-1.6982-.146353-.5702.0685415-1.12.253973-1.6152.544699s-.9251.680494-1.2628 1.144934c-.3376-.46439-.7674-.854148-1.2625-1.144898-.495-.290749-1.0448-.4762424-1.6148-.5448827s-1.148-.0189517-1.698.1459597c-.5499.164911-1.0599.441498-1.4981.81247-.7561.637801-1.2585 1.525461-1.4161 2.501951-.1042.63291-.1855 1.27529-.2419 1.91035-.0531.60782-.0792 1.22989-.0805 1.89825v.04882.46475h-2.3444c-.2072 0-.4059.08231-.5524.22882-.1465.14652-.2288.34523-.2288.55243.0005.6799.1783 1.34791.516 1.93805.3377.5901.8235 1.0818 1.4095 1.4267-.6671.2775-1.2174.7776-1.5572 1.4152-.3399.6375-.4484 1.3732-.307 2.0817s.524 1.3461 1.0825 1.8044c.5586.4582 1.2587.7087 1.9812.709-.001 1.2125.281 2.4085.8235 3.4929s1.3306 2.0272 2.3015 2.7535v2.4798l-7.157 1.3421c-.0577-.7633-.0338-1.5306.0714-2.2889.0472-.335.0625-.6738.0457-1.0118-.1218-2.5651-2.1184-4.6888-4.6789-5.1197v-10.11475l.7413-2.22353c.0265-.07971.04-.16317.04-.24717v-.78125h1.5625v-1.5625h-1.5625v-1.5625h1.5625v-1.5625h-1.5625v-.78125c0-.2072-.0823-.405914-.2288-.552427s-.3453-.228823-.5525-.228823h-5.4687c-.2072 0-.40592.08231-.55243.228823s-.22882.345227-.22882.552427v.78125h-1.5625v1.5625h1.5625v1.5625h-1.5625v1.5625h1.5625v.78125c.00002.08397.01354.16739.04004.24707l.74121 2.22363v10.11475c-2.56045.4309-4.55703 2.5543-4.67862 5.1156-.01712.3386-.00198.6781.04522 1.0138.23174 1.7016.19658 4.1417-1.28818 6.105-1.288387 1.7031-1.9556085 3.7956-1.89092271 5.9301.03901031 1.2234.32258571 2.4265.83400371 3.5385.511419 1.112 1.240319 2.1104 2.143729 2.9362 1.81173 1.6861 4.19572 2.6222 6.6707 2.6191h1.79687c.9101.0013 1.8157-.1274 2.6894-.3821.4574.249.9695.3803 1.4903.3821h4.6875c.0261 0 .0522-.0013.0781-.0039l9.2969-.9297 9.2969.9297c.0259.0026.052.0039.0781.0039h4.6875c.8285-.0009 1.6228-.3305 2.2087-.9163.5858-.5859.9154-1.3802.9163-2.2087v-10.8203c-.0005-1.0933-.3829-2.152-1.0811-2.9933-.6981-.8413-1.6682-1.4123-2.7426-1.6144zm2.2612 9.9592h-5.2322l2.3437-1.5624h2.8885zm0-5.3515v2.2265h-3.125c-.1543.0001-.3051.0457-.4334.1313l-4.4906 2.9937h-15.152l-4.4906-2.9937c-.1283-.0856-.2791-.1312-.4334-.1313h-3.125v-2.2265c-.0003-.6337.1925-1.2524.5528-1.7736.0079-.0098.0153-.0196.0228-.0293-.0041.0053-.0089.0097-.0131.0154.0137-.0195.028-.0386.0421-.0579-.0034.0053-.0062.0108-.0098.016.0054-.0077.0104-.0156.0154-.0235.4685-.6374 1.1616-1.073 1.939-1.2188l6.2064-1.1639.3177 1.3099c.3563 1.469 1.196 2.7757 2.3842 3.7101 1.1881.9345 2.6559 1.4425 4.1675 1.4425s2.9794-.508 4.1675-1.4425c1.1882-.9344 2.0279-2.2411 2.3842-3.7101l.3176-1.3099 6.2069 1.1636c.7162.1348 1.3629.5156 1.8282 1.0765.4654.5609.7203 1.2667.7206 1.9955zm-32.8125 7.6953h-4.6875v-1.5625h4.6875zm-.7813-14.6799c-.7659-.2184-1.5777-.2184-2.3437 0v-15.7889h2.3437zm-2.69155 1.8611c.4116-.2751.89019-.4334 1.38475-.4578.4945-.0245.9863.0858 1.4231.319.4367.2333.8019.5807 1.0566 1.0053.2548.4245.3894.9103.3896 1.4054-.0004.0962-.0059.1922-.0163.2878-.2962.4525-.5117.9529-.6371 1.4789-.2527.2981-.5665.5386-.9201.705-.3536.1665-.7388.2552-1.1296.26-.3908.0049-.77808-.0741-1.13572-.2317s-.6773-.3902-.93739-.6819-.45456-.6358-.57027-1.0092c-.11572-.3733-.14999-.767-.10049-1.1547.04949-.3877.1816-.7603.38739-1.0925.20579-.3323.48048-.6165.80553-.8336zm28.47285-11.4v-3.125c.4144 0 .8118.1647 1.1048.4577.2931.293.4577.6904.4577 1.1049 0 .4144-.1646.8118-.4577 1.1048-.293.293-.6904.4576-1.1048.4576zm-13.7598-12.66421c.1003-.60947.4142-1.16339.8854-1.56269.4713-.39929 1.0692-.61793 1.6869-.6168.4301.00124.8534.10821 1.2324.31148.3791.20328.7024.49664.9414.85424.1327.19689.3117.35815.5213.46957.2096.11143.4434.1696.6808.1694s.4711-.05878.6805-.17056.3882-.27334.5205-.47046c.2391-.35721.5623-.65017.9413-.85309.3789-.20292.8019-.30957 1.2318-.31058.6181-.00117 1.2164.2177 1.6878.61742s.7851.95418.885 1.56412c.0516.3125.0967.62823.136.94346h-12.1678c.0396-.31563.0848-.63145.1367-.94551zm-.3027 3.60957c0-.00488.0186-.91924.0277-1.10156h12.4446c.009.18232.0277 1.5625.0277 1.5625h-12.5zm-.7813 2.02344h16.2724c-.1621.45665-.4615.852-.8571 1.1317-.3957.2798-.8682.4302-1.3528.4308h-14.0625c-.4845-.0006-.957-.151-1.3527-.4308-.3956-.2797-.695-.67505-.8571-1.1317zm-2.3437 5.4688c.0005-.4143.1653-.8114.4582-1.1044.2929-.2929.69-.4577 1.1043-.4582v3.125c-.4143-.0004-.8114-.1652-1.1043-.4581-.2929-.293-.4577-.6901-.4582-1.1043zm3.125 3.125v-5.4395l.0251-.0293h12.4498l.0251.0293v5.4395c.0013 1.1207-.2991 2.2211-.8697 3.1857s-1.3904 1.7578-2.3733 2.2964c-.9829.5385-2.0926.8025-3.2127.7642-1.1201-.0382-2.2092-.3773-3.1531-.9816-.0067-.0044-.0136-.0086-.0205-.0128-.0152-.0091-.0313-.0184-.0478-.0277l-.0136-.0079c-.0104-.0078-.0209-.0151-.0316-.0222-.8551-.5698-1.5562-1.3422-2.0408-2.2484-.4847-.9062-.7378-1.9181-.7369-2.9457zm1.8499 10.262c.3582-.0672.6816-.2575.9144-.5378.2329-.2804.3604-.6333.3607-.9977v-1.5697c.9851.4319 2.049.6551 3.1247.6556 1.0756.0006 2.1397-.2216 3.1253-.6525v1.5666c.0003.3644.1278.7173.3606.9977.2328.2803.5562.4705.9144.5378l.9315.1747-.2983 1.23c-.2738 1.1284-.9188 2.1322-1.8316 2.85-.9128.7179-2.0404 1.1081-3.2016 1.1081s-2.2888-.3902-3.2016-1.1081c-.9128-.7178-1.5578-1.7216-1.8316-2.85l-.2988-1.23zm-8.8879-3.4163c.0119.2413.0008.4833-.0333.7226-.1283.9244-.1503 1.8604-.0657 2.7898-.5695.1096-1.1136.3243-1.6045.6332-.2297-.862-.7246-1.63-1.4148-2.1952v-5.5559c1.7235.4023 3.0354 1.8598 3.1183 3.6055zm-7.80575-23.252h3.90625v5.3418l-.5631 1.68945h-2.78007l-.56308-1.68945zm1.05468 43.75c-4.33339 0-7.96093-3.3995-8.08593-7.5755-.05377-1.78.50249-3.5249 1.57656-4.9454 1.80469-2.3865 1.85996-5.2637 1.58818-7.2586-.0338-.2393-.04469-.4813-.03252-.7226.08243-1.7421 1.39434-3.1991 3.11778-3.6014v5.5566c-.81752.6732-1.35748 1.6248-1.5162 2.6719-.15871 1.047.07502 2.1158.65631 3.0011.58129.8852 1.46914 1.5245 2.49304 1.795 1.02395.2706 2.11165.1533 3.05435-.3293v3.5957h-5.46875c-.2072 0-.40592.0823-.55243.2288s-.22882.3453-.22882.5524v3.125c0 .2072.08231.406.22882.5525s.34523.2288.55243.2288h5.46875v1.5625c.0003.5009.1205.9944.3508 1.4393-.464.0818-.9343.123-1.4055.1232zm5.97657 0c-.3334-.0011-.6578-.1082-.9263-.3059-.199-.143-.3608-.3319-.4715-.5506s-.1672-.4609-.1647-.706h2.1072l2.1469 1.4313c.1283.0855.2791.1312.4334.1312zm29.6875-1.5625c-.0005.4142-.1653.8114-.4582 1.1043s-.6901.4577-1.1043.4582h-4.6484l-15.586-1.5586c-.0259-.0026-.052-.0039-.0781-.0039h-4.451l-2.1469-1.4313c-.1283-.0855-.2791-.1312-.4334-.1312h-2.3437v-5.4687h2.8885l4.4906 2.9937c.1283.0856.2791.1312.4334.1313h23.4375z"/></g></svg>