<svg width="56" height="56" viewBox="0 0 56 56" fill="none" xmlns="http://www.w3.org/2000/svg">
<path d="M36.1273 23.5511H5.36979C3.43817 23.5511 1.8667 25.1227 1.8667 27.0543V48.3533C1.8667 50.2849 3.43817 51.8563 5.36979 51.8563H36.1273C38.0589 51.8563 39.6304 50.2842 39.6304 48.3533V27.0543C39.6304 25.1227 38.0589 23.5511 36.1273 23.5511ZM35.4267 47.6527H6.07049V27.7549H35.4267V47.6527Z" fill="black"/>
<path d="M53.1805 25.9948C52.5856 25.6074 51.8346 25.5457 51.1844 25.8316L36.542 32.2773L38.2361 36.1251L49.9295 30.977V44.5292L38.2199 39.486L36.5573 43.3478L51.1996 49.6534C51.4666 49.7677 51.7497 49.8244 52.0313 49.8244C52.4355 49.8244 52.8384 49.7074 53.1867 49.479C53.7773 49.0901 54.1332 48.4309 54.1332 47.7232V27.7555C54.1333 27.045 53.7753 26.383 53.1805 25.9948Z" fill="black"/>
<circle cx="10.5" cy="12.5" r="6.5" fill="#FFE73F"/>
<circle cx="30.5" cy="12.5" r="6.5" fill="#FFE73F"/>
<path d="M10.4847 4.14374C5.77157 4.14374 1.93701 7.97829 1.93701 12.6914C1.93701 17.4045 5.77157 21.239 10.4847 21.239C15.1977 21.239 19.0323 17.4045 19.0323 12.6914C19.0323 7.97819 15.1977 4.14374 10.4847 4.14374ZM10.4847 17.0352C8.08917 17.0352 6.1408 15.086 6.1408 12.6914C6.1408 10.2959 8.08998 8.34753 10.4847 8.34753C12.8801 8.34753 14.8285 10.296 14.8285 12.6914C14.8285 15.0868 12.8801 17.0352 10.4847 17.0352Z" fill="black"/>
<path d="M29.9617 4.14374C25.2486 4.14374 21.4141 7.97829 21.4141 12.6914C21.4141 17.4045 25.2486 21.239 29.9617 21.239C34.6748 21.239 38.5094 17.4045 38.5094 12.6914C38.5094 7.97819 34.6755 4.14374 29.9617 4.14374ZM29.9617 17.0352C27.5662 17.0352 25.6179 15.086 25.6179 12.6914C25.6179 10.2959 27.567 8.34753 29.9617 8.34753C32.3572 8.34753 34.3056 10.296 34.3056 12.6914C34.3056 15.0868 32.3572 17.0352 29.9617 17.0352Z" fill="black"/>
</svg>
