<svg fill="none" height="50" viewBox="0 0 50 50" width="50" xmlns="http://www.w3.org/2000/svg"><g fill="#000"><path d="m42.5977 8.71016c-.2297-.14297-.518-.15547-.7602-.03438l-3.6031 1.80152c-.2141-1.07261-1.1617-1.88355-2.2969-1.88355h-4.3641l-6.0211-6.02109c-.1461-.14688-.3445-.22891-.5523-.22891h-5.6125c-.3234-.90703-1.1828-1.5625-2.2-1.5625h-7.8125c-1.29219 0-2.34375 1.05156-2.34375 2.34375s1.05156 2.34375 2.34375 2.34375h7.8125c1.0172 0 1.8766-.65547 2.2-1.5625h5.2891l4.6875 4.6875h-13.7391c-1.2922 0-2.3438 1.05156-2.3438 2.34375v2.3437h-2.0203l-2.89606-2.896c-.22343-.2235-.55859-.2899-.85156-.1696-.29219.1211-.48203.4063-.48203.7219v12.5c0 .3156.18984.6008.48203.7219.09688.0398.19844.0594.29922.0594.20312 0 .40312-.0797.55234-.229l2.89606-2.896h2.0203v2.3437c0 1.2922 1.0516 2.3437 2.3438 2.3437h3.125v2.3438c0 .4312.3492.7812.7812.7812h.7813v2.3438c0 .4312.3492.7812.7813.7812h1.5624v2.0204l-13.83354 13.8336c-.22344.2234-.29063.5593-.16953.8515.12031.2914.40625.4821.72187.4821h4.6875c.2078 0 .4063-.0821.5523-.229l8.0414-8.0414v7.4891c0 .4313.3493.7813.7813.7813h3.125c.432 0 .7813-.35.7813-.7813v-7.4891l8.0414 8.0414c.146.1469.3445.229.5523.229h4.6875c.3156 0 .6016-.1907.7219-.4821.1211-.2922.0539-.6281-.1696-.8515l-13.8335-13.8336v-2.0204h1.5624c.4321 0 .7813-.35.7813-.7812v-2.3438h.7813c.432 0 .7812-.35.7812-.7812v-2.3438h4.6875c1.2922 0 2.3437-1.0515 2.3437-2.3437v-8.8922l3.5571 1.7781c.1101.0555.2297.0828.3492.0828.143 0 .2852-.039.4102-.1164.2304-.1429.3711-.3937.3711-.6648v-6.25c0-.27109-.1407-.52187-.3711-.66484zm-25.4102-4.80391h-7.8125c-.43125 0-.78125-.35078-.78125-.78125s.35-.78125.78125-.78125h7.8125c.4312 0 .7813.35078.7813.78125s-.3501.78125-.7813.78125zm-7.0313 16.08285-1.56245 1.5625v-8.7282l1.56245 1.5625zm1.5626-.4579v-4.6874h1.5624v4.6874zm2.0203 28.125h-2.4782l11.3953-11.3953v2.4782zm25 0h-2.4782l-8.9171-8.9171v-2.4782zm-12.9579 0h-1.5624v-15.625h1.5624zm2.3438-17.1874h-6.25v-1.5626h6.25zm1.5625-3.125h-9.375v-1.5626h9.375zm7.0313-3.9063c0 .4305-.3501.7813-.7813.7813h-20.3125c-.4312 0-.7812-.3508-.7812-.7813v-12.5c0-.4305.35-.7813.7812-.7813h20.3125c.4312 0 .7813.3508.7813.7813zm4.6874-9.0766-3.125-1.5625v-.5968l3.125-1.5625z"/><path d="m27.3438 15.625v-3.125c0-.4312-.3493-.7812-.7813-.7812h-9.375c-.432 0-.7813.35-.7813.7812v3.125c0 .4313.3493.7812.7813.7812h9.375c.432 0 .7813-.3499.7813-.7812zm-1.5626-.7812h-7.8124v-1.5626h7.8124z"/><path d="m32.8125 17.9688c-1.2922 0-2.3437 1.0515-2.3437 2.3437s1.0515 2.3437 2.3437 2.3437 2.3437-1.0515 2.3437-2.3437-1.0515-2.3437-2.3437-2.3437zm0 3.125c-.4312 0-.7813-.3508-.7813-.7813s.3501-.7813.7813-.7813c.4313 0 .7813.3508.7813.7813s-.35.7813-.7813.7813z"/><path d="m26.5625 17.9688c-1.2922 0-2.3437 1.0515-2.3437 2.3437s1.0515 2.3437 2.3437 2.3437 2.3437-1.0515 2.3437-2.3437-1.0515-2.3437-2.3437-2.3437zm0 3.125c-.4312 0-.7813-.3508-.7813-.7813s.3501-.7813.7813-.7813c.4313 0 .7813.3508.7813.7813s-.35.7813-.7813.7813z"/><path d="m32.0312 14.8438h1.5626v1.5624h-1.5626z"/><path d="m32.0312 11.7188h1.5626v1.5624h-1.5626z"/></g></svg>