<svg viewBox="0 0 66.70557 51.89014" xmlns="http://www.w3.org/2000/svg"><g transform="translate(-184.29443 -478.05357)"><path d="m214.747 507.85147-5.01956-15.82311c-1.81115-5.70921 1.5221-11.38625 6.78272-11.55208l21.07871-.66439a8.91667 8.91667 0 0 1 8.18366 5.74923l4.385 10.32039c2.16215 5.08879-.00118 10.80077-4.6181 12.1935l-20.44417 6.16715c-4.20973 1.26991-8.82159-1.57816-10.34826-6.39069z" fill="#e0e1e7"/><g fill="#584286"><path d="m229.08887 503.42174a2.08325 2.08325 0 0 1 -2.08057-2.08057.86011.86011 0 1 0 -1.72021 0 3.817 3.817 0 0 0 2.77686 3.6582l.16406.04492v1.09371a.86011.86011 0 1 0 1.72021 0v-1.0937l.16455-.0459a3.79991 3.79991 0 0 0 -1.02441-7.4585 2.10931 2.10931 0 0 1 -1.46973-.59473 2.07552 2.07552 0 0 1 1.43457-3.55566h.03467a2.09268 2.09268 0 0 1 2.08105 2.06738.86011.86011 0 1 0 1.72021.00244 3.82832 3.82832 0 0 0 -2.77686-3.64648l-.16406-.04639v-.9082a.86011.86011 0 1 0 -1.72021 0v.90869l-.16455.0459a3.79376 3.79376 0 0 0 1.02441 7.44727 2.08081 2.08081 0 1 1 0 4.16162z"/><path d="m236.28467 478.1317h-13.37647a1.05884 1.05884 0 0 0 0 2.11768h13.44092a2.88658 2.88658 0 0 1 2.8833 2.8833v30.60107h-11.02588a3.01592 3.01592 0 0 0 -3.03955 3.03809v11.02734h-12.66455a1.01028 1.01028 0 0 0 -1.00928 1.06543 1.02179 1.02179 0 0 0 .99609.99414c3.75439.05273 13.48779.085 13.56348.085a1.04547 1.04547 0 0 0 .75586-.30859l14.25977-14.19434a1.11017 1.11017 0 0 0 .29492-.75684v-31.53812a4.9932 4.9932 0 0 0 -5.07861-5.01416zm1.38428 37.73389-10.37159 10.31441v-9.47852a.88378.88378 0 0 1 .918-.83594z"/><path d="m218.44775 516.08141v-32.88477a5.17345 5.17345 0 0 0 -4.40186-5.06738l-.06592-.00977a4.64619 4.64619 0 0 0 -.67529-.06592h-23.86718a5.14884 5.14884 0 0 0 -5.14307 5.14307v41.60352a5.14926 5.14926 0 0 0 5.14307 5.14355h15.1445a1.08665 1.08665 0 0 0 .416-.10352 1.099 1.099 0 0 0 .58252-.5625l.0498-.07422 12.26807-12.18457a1.04915 1.04915 0 0 0 .54936-.93749zm-31.91943-32.88477a2.91263 2.91263 0 0 1 2.90918-2.90918h23.86719a2.91263 2.91263 0 0 1 2.90918 2.90918v31.7627h-9.61914a3.15221 3.15221 0 0 0 -3.13037 3.13086v9.61914h-14.02686a2.91232 2.91232 0 0 1 -2.90918-2.90918zm19.16992 34.89063a.80205.80205 0 0 1 .17334-.58105.82076.82076 0 0 1 .55371-.31055c.03223-.00293.06494-.00488.09814-.00488a.89175.89175 0 0 1 .10156.00586l7.96436-.002-8.89111 8.81641z"/><path d="m194.69092 499.412h14.36035a1.11694 1.11694 0 0 0 0-2.23389h-14.36035a1.11694 1.11694 0 0 0 0 2.23389z"/><path d="m194.69092 492.35973h5.63672a1.11719 1.11719 0 1 0 0-2.23437h-5.63672a1.11719 1.11719 0 0 0 0 2.23438z"/><path d="m194.69092 506.46422h8.9917a1.11719 1.11719 0 0 0 0-2.23437h-8.9917a1.11719 1.11719 0 0 0 0 2.23438z"/></g></g></svg>