<svg viewBox="0 0 66.33076 51.09375" xmlns="http://www.w3.org/2000/svg"><g transform="translate(-184.29443 -471.03063)"><path d="m226.88965 519.95019-17.35433-12.44287c-3.91914-2.81-4.12055-8.91458-.42995-13.03164l7.4848-8.34964a8.91667 8.91667 0 0 1 9.60246-2.79618l19.73306 7.44041c4.92478 1.85692 6.24463 8.30651 2.68571 13.12413l-9.86354 13.35206c-2.99994 4.06097-8.28473 5.2659-11.85821 2.70373z" fill="#e0e1e7"/><path d="m221.55859 471.03063h-24.94726a1.12061 1.12061 0 0 0 0 2.24121h24.94678a1.01839 1.01839 0 0 1 1.01709 1.01758v38.38281a1.018 1.018 0 0 1 -1.0166 1.01758h-2.93652v-19.71481a1.12061 1.12061 0 1 0 -2.24121 0v25.90918h-29.84523v-41.26371h19.32036v7.88477a2.64319 2.64319 0 0 0 2.64014 2.64063h7.88477v.02246h1.09809a1.13556 1.13556 0 0 0 .81445-1.93457l-10.52588-10.52637a1.11852 1.11852 0 0 0 -.791-.32812h-20.38038a2.30508 2.30508 0 0 0 -2.30176 2.30273v41.14062a2.30487 2.30487 0 0 0 2.30176 2.30176h29.72412a2.30487 2.30487 0 0 0 2.30176-2.30176v-3.89262h2.93652a3.26179 3.26179 0 0 0 3.25781-3.25781v-38.38278a3.262 3.262 0 0 0 -3.25781-3.25878zm-13.46143 15.47461v-6.2998l6.69873 6.69922h-6.2998a.39948.39948 0 0 1 -.39892-.39943z" fill="#584286"/></g></svg>