<svg viewBox="0 0 66.33077 51.09375" xmlns="http://www.w3.org/2000/svg"><g transform="translate(0 .00001)"><path d="m42.59521 48.91954-17.35432-12.44287c-3.91914-2.81-4.12054-8.91458-.42995-13.03165l7.4848-8.34964a8.91668 8.91668 0 0 1 9.60246-2.79617l19.73306 7.4404c4.92474 1.85693 6.24464 8.30652 2.68574 13.12414l-9.86355 13.35206c-2.99996 4.06097-8.28475 5.26593-11.85824 2.70373z" fill="#584286"/><path d="m37.26416 0h-24.94727a1.12061 1.12061 0 0 0 0 2.24121h24.94678a1.01838 1.01838 0 0 1 1.01709 1.01758v38.3828a1.018 1.018 0 0 1 -1.0166 1.01758h-2.93652v-19.71482a1.12061 1.12061 0 0 0 -2.24121-.00638v25.91553h-29.84522v-41.26367h19.32036v7.88477a2.64319 2.64319 0 0 0 2.64014 2.64063h7.88477v.02246h1.0981a1.13556 1.13556 0 0 0 .81445-1.93457l-10.52589-10.52638a1.11862 1.11862 0 0 0 -.791-.32812h-20.38038a2.30509 2.30509 0 0 0 -2.30176 2.30273v41.14065a2.30487 2.30487 0 0 0 2.30176 2.30176h29.72412a2.30487 2.30487 0 0 0 2.30176-2.30176v-3.89266h2.93652a3.2618 3.2618 0 0 0 3.25784-3.25781v-38.38279a3.262 3.262 0 0 0 -3.25784-3.25874zm-13.46143 15.47459v-6.2998l6.69873 6.69921h-6.2998a.39948.39948 0 0 1 -.39893-.39944z" fill="#fff"/></g></svg>