<svg clip-rule="evenodd" fill-rule="evenodd" height="305.315mm" image-rendering="optimizeQuality" shape-rendering="geometricPrecision" text-rendering="geometricPrecision" viewBox="0 0 24623 30532" width="246.234mm" xmlns="http://www.w3.org/2000/svg"><path d="m21682 11122c108 392 197 766 268 1122 71 357 107 705 107 1043 0 838-130 1671-388 2500s-592 1582-1002 2259-869 1257-1377 1738-1012 802-1511 962c677-534 1208-1184 1591-1951 383-766 575-1631 575-2593 0-482-80-1034-241-1658-160-624-370-1216-628-1778-258-561-553-1038-882-1430-330-393-664-588-1003-588-142 0-285 35-428 106-143 72-267 156-374 254-107 99-187 183-241 254-53 72-80 108-80 108 0 35-5 62-13 80-9 17-14 35-14 53s9 45 27 80c18 36 71 116 160 241 411 463 718 998 923 1604s308 1354 308 2246c0 784-192 1434-575 1952-384 516-865 939-1444 1270-580 329-1207 588-1885 775-677 187-1305 361-1885 521-579 161-1061 325-1443 495-384 169-575 388-575 655 35 178 85 320 146 427 63 108 165 205 308 295 143 89 334 178 575 267 240 89 548 196 922 320 482 161 896 397 1243 709 348 312 629 659 843 1043 213 383 369 797 468 1243 98 446 146 883 146 1310 0 464-75 904-226 1323-152 420-371 789-656 1110s-632 575-1042 762c-411 187-865 280-1364 280-873 0-1586-222-2139-668-552-446-828-1016-828-1711 0-766 329-1657 989-2674-197 589-294 1097-294 1524 0 304 44 593 133 869 89 277 223 531 401 763 179 231 393 414 642 547 250 134 535 201 856 201 623 0 1118-214 1483-642 366-427 549-953 549-1577 0-838-206-1493-616-1965-409-472-1140-851-2192-1136-427-160-815-308-1163-442-347-133-642-284-882-454-241-169-428-379-562-628-133-249-200-570-200-962 0-660 134-1177 401-1552 267-373 793-721 1578-1042 623-250 1225-472 1804-668s1088-424 1524-682c436-259 784-575 1043-949 258-375 387-865 387-1471 0-213-89-441-267-681-178-241-428-459-749-655-321-197-704-357-1149-482-446-125-936-187-1470-187-214 0-549 23-1003 67-455 45-896 138-1323 281-429 143-780 343-1057 601-276 259-343 593-200 1003-18 18-54 27-107 27-54 0-107 0-160 0-161 0-286-27-375-81-89-53-169-160-240-320l-134 53c-36 72-72 147-107 228-36 80-54 156-54 226 0 214 161 420 482 615-36 125-85 201-148 228-62 26-156 40-280 40-321-18-642-170-963-455v187c196 571 776 883 1738 936 0 107-94 218-281 334-186 116-485 174-895 174-357 0-673-62-949-187s-530-263-762-414c-232-152-433-290-602-415-169-124-307-187-414-187-54 0-130 36-227 107-98 71-215 147-348 227-134 80-276 152-428 214-151 63-298 94-441 94-160 0-321-18-481-54-160-35-339-98-535-187 392-214 731-419 1016-615 286-196 562-459 829-788 268-330 548-758 842-1284s655-1234 1083-2125c321-642 633-1199 936-1671 303-473 619-878 949-1217 330-338 686-610 1069-815s815-361 1297-468c-624 481-1123 1016-1497 1604-375 589-562 1079-562 1471 0 53 18 124 54 213s107 134 214 134c178 18 396-111 655-387 258-276 557-655 895-1137 678-980 1475-1742 2393-2286 918-543 1885-815 2901-815 142 0 285 4 427 13 143 10 286 23 428 41-1158 374-1996 748-2513 1122-517 375-775 766-775 1177 0 356 227 681 681 976 455 293 1066 477 1832 548 856 0 1524-188 2005-562s722-900 722-1577c0-1248-397-2237-1190-2968-793-730-1965-1096-3515-1096-945 0-1890 129-2835 388-944 258-1849 615-2713 1069-864 455-1671 998-2420 1631-748 633-1399 1323-1951 2072 552-1443 1323-2736 2313-3877 989-1140 2147-2107 3475-2901 1328-793 2794-1394 4398-1804s3288-615 5053-615c464 0 913 9 1350 27s860 53 1270 107c-1052 0-1916 35-2593 107-677 71-1212 160-1605 267-392 107-663 232-815 374-151 143-227 286-227 428 0 36 26 71 80 107s174 80 361 133c187 54 459 130 816 228 356 98 837 227 1443 388 1087 338 2050 672 2888 1002 837 330 1577 700 2218 1109 642 410 1199 878 1671 1404 473 526 896 1154 1270 1885-320-232-663-450-1029-655-365-205-731-383-1096-535-365-151-713-271-1042-361-331-89-620-133-869-133-339 0-557 97-655 294-99 196-148 392-148 588 0 71 58 245 174 522 116 276 267 618 455 1029 187 410 391 859 614 1350 223 490 442 976 655 1457z" fill="#fefefe" fill-rule="nonzero"/></svg>