<?xml version="1.0" encoding="utf-8"?>
<!-- Generator: Adobe Illustrator 21.0.0, SVG Export Plug-In . SVG Version: 6.00 Build 0)  -->
<svg version="1.1" id="Слой_1" xmlns="http://www.w3.org/2000/svg" xmlns:xlink="http://www.w3.org/1999/xlink" x="0px" y="0px"
	 viewBox="0 0 110 110" style="enable-background:new 0 0 110 110;" xml:space="preserve">
<style type="text/css">
	.st0{fill:#E04F5F;}
	.st1{fill:#3E3E3F;}
	.st2{fill:#5B5C5F;}
	.st3{fill:#FFFFFF;}
	.st4{fill:#F0F1F1;}
	.st5{fill:#CFD3D4;}
</style>
<g id="Artboard">
</g>
<circle class="st0" cx="55" cy="55" r="55"/>
<g>
	<path class="st1" d="M79,35c0-2.2-1.8-4-4-4H35c-2.2,0-4,1.8-4,4v28h48V35z"/>
	<path class="st2" d="M31,35v28h11.1l32-32H35C32.8,31,31,32.8,31,35z"/>
	<path class="st3" d="M84.2,85.8c-0.8,0.8-1.8,1.2-2.8,1.2H28.7c-1.1,0-2.1-0.4-2.8-1.2L23,83h64L84.2,85.8z"/>
	<polygon class="st4" points="79,63 31,63 23,83 87,83 	"/>
	<path class="st5" d="M61.4,76.9C61.2,76.4,60.5,76,60,76H50c-0.5,0-1.2,0.4-1.4,0.9l-1.1,2.2c-0.2,0.5,0,0.9,0.6,0.9h14
		c0.5,0,0.8-0.4,0.6-0.9L61.4,76.9z"/>
	<path class="st5" d="M75,72c0,0.6-0.4,1-1,1H37c-0.5,0-1-0.4-1-1l0,0c0-0.6,0.5-1,1-1h37C74.6,71,75,71.5,75,72L75,72z"/>
	<path class="st5" d="M73.2,68c0,0.6-0.4,1-1,1H38.8c-0.5,0-1-0.4-1-1l0,0c0-0.6,0.5-1,1-1h33.5C72.8,67,73.2,67.5,73.2,68L73.2,68z
		"/>
	<g>
		<path class="st3" d="M64,43H47.4l-1.5-3.4C45.8,39.2,45.4,39,45,39h-3c-0.6,0-1,0.4-1,1s0.4,1,1,1h1.7c0.4,0,0.8,0.2,0.9,0.6
			l5.5,12.8c0.2,0.4,0.5,0.6,0.9,0.6h8c0.6,0,1-0.4,1-1s-0.4-1-1-1h-6.7c-0.4,0-0.8-0.2-0.9-0.6L50.8,51H60c0.5,0,1.2-0.4,1.4-0.9
			l3.1-6.2C64.8,43.4,64.6,43,64,43z"/>
		<circle class="st3" cx="57.5" cy="57.5" r="1.5"/>
		<circle class="st3" cx="51.9" cy="57.5" r="1.5"/>
	</g>
	<polygon class="st3" points="42.1,63 31,63 23.6,81.4 	"/>
</g>
</svg>
