<?xml version="1.0" encoding="utf-8"?>
<!-- Generator: Adobe Illustrator 21.0.0, SVG Export Plug-In . SVG Version: 6.00 Build 0)  -->
<svg version="1.1" id="Слой_1" xmlns="http://www.w3.org/2000/svg" xmlns:xlink="http://www.w3.org/1999/xlink" x="0px" y="0px"
	 viewBox="0 0 141.7 283.5" style="enable-background:new 0 0 141.7 283.5;" xml:space="preserve">
<style type="text/css">
	.st0{fill:url(#SVGID_1_);}
	.st1{fill:url(#SVGID_2_);}
	.st2{fill:url(#SVGID_3_);}
</style>
<g>
	<g>
		<linearGradient id="SVGID_1_" gradientUnits="userSpaceOnUse" x1="37.4313" y1="134.1797" x2="110.2282" y2="134.1797">
			<stop  offset="0" style="stop-color:#E7A048"/>
			<stop  offset="0.4558" style="stop-color:#F0BB49"/>
			<stop  offset="1" style="stop-color:#FBDB4A"/>
		</linearGradient>
		<path class="st0" d="M92.9,98.5c2.1,1.2,4,2.7,5.8,4.4c1.7,1.7,3.4,3.5,4.7,5.6c2.8,4.1,4.7,8.8,5.6,13.7c0.9,4.9,0.7,10-0.3,14.9
			c-0.5,2.5-1.1,4.9-2,7.2c-0.4,1.2-0.9,2.3-1.4,3.5c-0.5,1.2-1.1,2.2-1.7,3.4l-2.7,4.8l-1.4-5.5c-0.2-0.9-0.6-1.9-1-2.9
			c-0.4-1-0.8-1.9-1.2-2.9c-0.9-1.9-2-3.7-3.1-5.4c-2.4-3.4-5.3-6.3-8.9-8.2c-1.8-1-3.6-1.7-5.6-2.3c-1-0.3-2-0.6-3-0.7l-1.5-0.3
			l-1.5-0.2c-2.1-0.2-4.1-0.2-6.2-0.1c-2,0.2-4.1,0.6-6,1.2c-1.9,0.7-3.9,1.5-5.6,2.6c-1.8,1-3.5,2.2-5.1,3.7
			c-1.5,1.4-3.1,2.9-4.3,4.6c-0.6,0.8-1.3,1.6-1.8,2.6c-0.5,0.9-1.1,1.8-1.4,2.8c-1.6,3.8-2.3,8.1-1.8,12.4c0.5,4.3,1.8,8.6,4,12.5
			c-2.8-3.5-4.7-7.7-5.7-12.2c-1-4.5-0.8-9.3,0.7-13.8c0.3-1.2,0.9-2.2,1.4-3.3c0.5-1.1,1.1-2.1,1.8-3.1c1.3-2,2.8-3.7,4.5-5.4
			c3.3-3.3,7.4-6,11.9-7.6c2.2-0.8,4.6-1.3,7-1.7c2.4-0.3,4.8-0.3,7.1-0.1l1.8,0.2l1.7,0.3c1.2,0.2,2.3,0.5,3.4,0.8
			c2.3,0.6,4.6,1.5,6.7,2.7c1.1,0.6,2.1,1.3,3.1,2l1.4,1.2c0.5,0.4,0.9,0.8,1.3,1.2l1.3,1.3c0.4,0.4,0.8,0.9,1.2,1.4
			c0.8,0.9,1.5,1.9,2.2,2.8c1.3,2,2.5,4,3.5,6.2c0.5,1.1,0.9,2.2,1.3,3.3c0.4,1.1,0.7,2.2,1,3.5l-4.2-0.7c0.5-0.9,1.1-1.9,1.6-2.9
			c0.5-1,1-2.1,1.4-3.1c0.9-2.1,1.6-4.3,2.2-6.5c1.2-4.4,1.5-9.1,1.2-13.6c-0.1-1.1-0.3-2.3-0.5-3.4c-0.3-1.1-0.5-2.3-0.9-3.3
			c-0.6-2.2-1.6-4.4-2.7-6.4c-1.1-2.1-2.4-4-3.9-5.9C96.4,101.7,94.8,100,92.9,98.5z"/>
	</g>
	<g>
		<linearGradient id="SVGID_2_" gradientUnits="userSpaceOnUse" x1="30.4918" y1="155.3909" x2="74.1661" y2="155.3909">
			<stop  offset="0" style="stop-color:#E7A048"/>
			<stop  offset="0.4558" style="stop-color:#F0BB49"/>
			<stop  offset="1" style="stop-color:#FBDB4A"/>
		</linearGradient>
		<path class="st1" d="M71.6,91.1c-1.7,0-3.5,0.2-5.2,0.5c-1.7,0.3-3.4,0.7-5,1.2c-3.3,1.1-6.4,2.5-9.2,4.4
			c-2.8,1.8-5.4,4.1-7.6,6.6c-2.2,2.5-4.2,5.2-5.7,8.2c-1.5,3-2.5,6.1-3.1,9.3c-0.6,3.2-0.7,6.5-0.4,9.8c0.3,3.2,1.1,6.5,2.3,9.5
			c1.2,3.1,2.7,5.9,4.7,8.5c3.9,5.3,9.4,9.5,14.6,14.2c2.6,2.4,5.2,4.9,7.6,7.7c1.2,1.4,2.3,2.9,3.3,4.4c1,1.6,1.9,3.2,2.6,4.9
			c1.5,3.4,2.4,7,2.6,10.7c0.1,1.8,0.1,3.7-0.1,5.5c-0.2,1.8-0.6,3.6-1.1,5.3c-1,3.5-2.5,6.7-4.3,9.8c-1.8,3-3.9,5.9-6.4,8.4
			c1-1.4,1.9-2.9,2.8-4.4c0.9-1.5,1.6-3,2.4-4.6c1.4-3.1,2.6-6.4,3.2-9.7c0.7-3.3,0.8-6.6,0.3-9.9c-0.5-3.3-1.4-6.5-2.9-9.4
			c-1.5-2.9-3.4-5.6-5.7-8.1c-2.2-2.5-4.8-4.7-7.4-7c-5.2-4.5-10.9-8.9-15.5-14.8c-2.3-2.9-4-6.4-5.3-9.8c-1.3-3.5-2.1-7.1-2.4-10.8
			c-0.5-7.4,1.1-15,4.8-21.3c1.8-3.2,4.2-6.1,6.8-8.6c2.6-2.5,5.5-4.7,8.7-6.4c3.2-1.7,6.6-3,10.1-3.6
			C64.6,90.8,68.2,90.6,71.6,91.1z"/>
	</g>
	<g>
		<linearGradient id="SVGID_3_" gradientUnits="userSpaceOnUse" x1="51.0952" y1="81.7158" x2="90.8386" y2="81.7158">
			<stop  offset="0" style="stop-color:#E7A048"/>
			<stop  offset="0.4558" style="stop-color:#F0BB49"/>
			<stop  offset="1" style="stop-color:#FBDB4A"/>
		</linearGradient>
		<path class="st2" d="M57.8,93.3c-1.4-1.3-2.6-2.9-3.5-4.7c-0.9-1.8-1.6-3.7-1.8-5.8c-0.3-2.1,0-4.2,0.6-6.2c0.6-2,1.7-3.9,2.9-5.6
			c0.3-0.4,0.6-0.8,1-1.2c0.3-0.4,0.7-0.8,1.1-1.1c0.7-0.7,1.6-1.5,2.5-2.1c1.8-1.3,3.9-2,6.1-2.5c4.3-0.9,8.7-0.4,12.7,1.3
			c2,0.9,3.8,2.1,5.5,3.5c1.6,1.5,3,3.3,3.9,5.3c1,2,1.5,4.1,1.7,6.3l0.1,1.6l0,1.6c-0.1,1-0.2,2.1-0.4,3.2
			c-0.5,2.1-1.4,4.2-2.8,5.9c-1.3,1.7-3,3-4.7,4c-3.5,2-7.4,3-11.3,3.2c3.6-1.2,7.1-2.9,9.9-5.2c2.8-2.3,4.7-5.3,5-8.5
			c0.1-0.8,0.1-1.7,0.1-2.6l-0.1-1.3L86,81c-0.3-1.7-0.8-3.2-1.6-4.7c-1.5-2.9-4.1-5.1-7.2-6.4c-3-1.3-6.5-1.8-9.8-1.3
			c-1.6,0.3-3.2,0.8-4.6,1.6c-1.3,0.8-2.7,2-3.9,3.3c-2.4,2.5-4,5.7-4.1,9.3C54.6,86.3,55.8,90,57.8,93.3z"/>
	</g>
</g>
</svg>
