<svg clip-rule="evenodd" fill-rule="evenodd" height="443.783mm" image-rendering="optimizeQuality" shape-rendering="geometricPrecision" text-rendering="geometricPrecision" viewBox="0 0 77288 44378" width="772.884mm" xmlns="http://www.w3.org/2000/svg" xmlns:xlink="http://www.w3.org/1999/xlink"><mask id="a"><path d="m60287 3471h7628v7628h-7628z" fill="url(#e)"/></mask><mask id="b"><path d="m59387 2320h8841v8841h-8841z" fill="url(#f)"/></mask><clipPath id="c"><path d="m56024 2770h21167v26917h-21167z"/></clipPath><linearGradient id="d"><stop offset="0" stop-color="#fff"/><stop offset="1" stop-color="#fff" stop-opacity="0"/></linearGradient><linearGradient id="e" gradientUnits="userSpaceOnUse" x1="65864.3" x2="62338.3" xlink:href="#d" y1="10246.6" y2="4322.7"/><linearGradient id="f" gradientUnits="userSpaceOnUse" x1="65850.7" x2="61763.4" xlink:href="#d" y1="10173.7" y2="3306.77"/><g fill="#fff"><circle cx="26049" cy="30464" r="100"/><path d="m31816 16173c86 837 817 1699-616 3829-938 1394-2458 2217-2603 2411-29-1424 2493-4329 3424-4874-219-454-703-1073-1153-1022-914 504-2321 2135-2908 3085-748 1210-1810 3346-93 4200 1317 92 3369-2322 4089-2904-123 922-515 1906-434 2857l604 354c479-368 934-1280 1387-1954 501-747 886-1492 1465-2038-450 1500-1300 3461 558 4212 807-2023 2516-3694 3495-5065-900 2208-2253 3566-387 5241 309-295 2226-4155 4557-5352-495 1511-2187 4044-11 5136 406-432 632-940 986-1427 826-1138 2408-3238 3419-3926-264 1638-3328 8006-4113 9852-2578 237-5286 456-7704 1314-923 328-1337 719-1995 1026 2230-265 1539-1142 9077-1324-229 1338-4163 7902-6847 9083-2420 1064-4080-1258-4667-2944-826-2369-625-4750-449-7343 310 534 344 1321 492 1919 201 811 449 1024 665 1539 0-597-437-2458-515-3472-91-1172 191-2781 36-3772l-985 460c83 2163-173 1729-516 4174-386 2746-250 6315 1435 8534 4266 5617 9351-1301 11530-4888 552-909 1259-2464 1889-3272l6385 71c-46 423-318 379-768 920-269 323-494 809-785 1102 1713-560 1209-1698 6890-1686-1266-1475-2436-1359-4808-1455-2133-86-4185-91-6315-75l2837-6389c390-929 1869-4135 1532-5072-200-558-707-1015-1335-1009-324 718-150 1308-771 1880-255 235-453 300-739 520-2160 1660-2642 2902-3396 3597 808-3104 3008-4570 3187-4928-239-643-756-870-1598-844-638 407-833 945-1241 1496-646 873-3542 2172-4379 3678 100-557 1240-2347 1587-2831 1232-1719 2066-1823 2305-2447-313-669-975-852-1794-775-512 628-804 959-1220 1562-477 692-3835 3882-4284 4264 447-2391 2767-3874 2911-4103-297-638-756-850-1626-853-739 209-3899 4314-4630 5067l-501 406c47-2209 139-1497 903-3008 510-1011 693-2000 604-3330-807 70-1543 310-2063 593z" fill-opacity=".501961" stroke="#fefefe" stroke-opacity=".501961" stroke-width="7.62"/><path d="m9061 22810c166-1022 1329-2673 1858-3346 384-489 817-913 1224-1302 202-193 400-421 648-618 275-219 432-265 665-480-152 705-3831 5260-4395 5746zm1992-11139 11 1560c858-388 2901-2026 5781-3322 766-344 1669-490 2312-798-1708-239-3049 758-4426 1084 923-1091 4824-3317 6630-3974 3362-1224 6143-772 7437 1935 2229 4665-2817 11963-5521 14346 508-2554 2330-3625 3453-5046-578-970-834-931-2288-1172-2590-429-4463 3104-5904 4652 574-2444 2749-3661 2961-3954-274-842-1406-1186-2093-571-717 643-1066 1272-1829 1664-62-1352 413-2025 421-2914-281 430-947 964-1182 1351-499 823 112 1523 283 2213-682 474-1312 1439-2238 2161l-2515 1978c262-1016 903-2289 1382-3119 290-503 591-911 906-1306 393-491 985-705 1171-1141-253-942-1239-822-2174-756-1347-1948-3247 790-4418 2479-806 1162-2795 4812-461 5477 856-1034 2291-3863 3469-4675-692 1637-1747 3014-152 4526 505-357 1682-1870 2175-2446-254 794-586 554 409 2461 338-1286 440-1566 1091-2602 407-647 1109-1735 1709-2175-526 1462-1314 3466 303 4394l146-205c18-30 104-170 126-212l1575-2998c32 37 66 51 77 125l292 890c78 375 181 748 326 1073 286 641 657 1329 1261 1653-598-1851-702-2993-656-5151 1109-731 2338-1990 4171-2329-720 1092-2697 2195-3292 4972-274 1280 532 2424 1687 2007 1734-625 7480-7991 7363-13140-111-4898-4818-7307-9833-5451-2692 996-5492 2997-7511 4812-886 797-1024 1435-2435 1644z" fill-opacity=".501961" stroke="#fefefe" stroke-opacity=".501961" stroke-width="7.62"/><path d="m19810 35104c-15-28-31-109-33-90-13 123-203-626 462-2280 373-931 664-1472 1525-1778-126 1999-912 3073-1954 4148zm-4236-9c-37-830 178-1571 373-2388 169-705 56-578 533-892 285-186 703-379 1077-454-314 1637-1008 2905-1983 3734zm8823-2443c216-809 736-1512 1363-1776-233 729-832 1538-1363 1776zm-7891-1638c356-1721 2636-5558 3707-5762 546 2553-849 3163-1394 4168-340-101-52-32-324-239-304-232 139-43-265-200-855 633-641 334-826 1540zm-6351 1621 103 850c628 163 4774-1112 1398 3302-937 1225-1458 1754-2681 2691-2117 1622-6599 3404-4492-1975 877-2238 2884-5025 4262-6470 1421-1490 2662-2600 4751-3298 787-262 1550-269 2189-449-76-618-252-610-597-999-1203-1358-1178-1788-3011-611-3059 1963-7553 7281-8691 10897-1084 3444-92 7798 5441 4340 2381-1489 6152-4743 4629-7818l1131-410c-404 1654-959 2086 313 2952 547 373 267 365 840 625 953-1171 1639-1995 2310-3507 634-1430 33-1176 812-1190 160 289-1273 4064 1106 4639 2763-3146 2491-4817 3002-5422 535 481 17 955-203 1787-208 791-288 1692 9 2465 1084 2824 6457-271 6743-4641 85-1313-188-1455-300-2279 157 2196-163 3473-1409 4764-982 1017-2339 2070-4081 2620l432-2416c705-288 2770-325 3357-2672-405-437-480-569-1073-797l-407 709c-723-342-925-724-1627-805-800 513-518 1210-1441 909l-253-1511c-1151 364-851 718-1169 1320-416-252-689-516-1270-577-799 631-620 1518-1587 1068 108-1038 2175-1488 2098-4585-119-4800-4460 2584-5437 4871-456 1067-889 990-2061 1265-1037 243-1981 385-3136 358z" fill-opacity=".501961" stroke="#fefefe" stroke-opacity=".501961" stroke-width="7.62"/><path d="m2391 19246c256-1970 1585-5206 2655-6920 422-677 955-1277 1278-1821-357-502-1427-1313-2311-1276-964 1202-3372 9182-3859 11640-425 2145-514 3143 1395 3804 150-2189 733-2943 1813-4075 791-829 2099-1961 3565-2358-1024 2315-5360 7409-5553 12495-59 1553 682 3770 2007 3990 183-352 404-2039 903-3417 398-1098 878-2020 1280-2965-613 555-1063 1495-1515 2419-351 719-916 2181-1255 2620-451-3364 1383-7527 2689-9872 795-1426 1528-2647 2456-3866 458-603 2526-3204 2635-3547-1904-1474-1512 172-2884 614-673 217-1150 375-1781 738-1409 810-2030 1717-2863 2376 417-1699 2703-4685 3661-5678 2681-2782 4333-3497 5100-4274-27-31-73-117-87-88l-1704-1025c-2330 1991-5447 6640-7075 9671-51 96-161 311-231 416l-232 301c-19 24-56 67-87 98z" fill-opacity=".501961" stroke="#fefefe" stroke-opacity=".501961" stroke-width="7.62"/><path d="m12452 40290c3241-2082 9479-1957 13607-1738 1629 87 3415 375 4941 371l-451-1055c-4761-560-15875-1035-18097 2422z" fill-opacity=".501961" stroke="#fefefe" stroke-opacity=".501961" stroke-width="7.62"/><path d="m25191 29299c309-336 462-785 722-1160 305-439 673-610 972-1039l-1202-813c-675 798-900 2019-492 3012z" fill-opacity=".501961" stroke="#fefefe" stroke-opacity=".501961" stroke-width="7.62"/><path d="m26178 29427c579 53 354 111 756-256 195-179 366-374 554-567 386-397 891-737 1039-1388-367-193-658-289-1160-285-653 2242-1038 1623-1189 2496z" fill-opacity=".501961" stroke="#fefefe" stroke-opacity=".501961" stroke-width="7.62"/><path d="m31816 13857c86 837 817 1700-616 3829-938 1394-2458 2217-2603 2412-29-1425 2493-4330 3424-4874-219-454-703-1074-1153-1022-914 504-2321 2135-2908 3085-748 1209-1810 3346-93 4199 1317 92 3369-2321 4089-2904-123 922-515 1906-434 2858l604 353c479-368 934-1280 1387-1954 501-746 886-1492 1465-2038-450 1500-1300 3462 558 4212 807-2023 2516-3694 3495-5064-900 2207-2253 3565-387 5240 309-295 2226-4155 4557-5352-495 1512-2187 4044-11 5136 406-431 632-939 986-1427 826-1138 2408-3238 3419-3926-264 1638-3328 8007-4113 9853-2578 236-5286 456-7704 1314-923 328-1337 719-1995 1026 2230-266 1539-1142 9077-1325-229 1338-4163 7902-6847 9083-2420 1064-4080-1257-4667-2943-826-2370-625-4750-449-7344 310 534 344 1321 492 1919 201 811 449 1025 665 1539 0-596-437-2458-515-3471-91-1173 191-2782 36-3773l-985 461c83 2163-173 1728-516 4173-386 2747-250 6316 1435 8535 4266 5617 9351-1302 11530-4888 552-910 1259-2465 1889-3273l6385 71c-46 424-318 380-768 921-269 323-494 809-785 1101 1713-560 1209-1698 6890-1686-1266-1475-2436-1359-4808-1455-2133-86-4185-91-6315-75l2837-6388c390-930 1869-4136 1532-5073-200-557-707-1015-1335-1008-324 718-150 1308-771 1879-255 235-453 300-739 520-2160 1660-2642 2903-3396 3597 808-3103 3008-4569 3187-4928-239-642-756-870-1598-844-638 407-833 946-1241 1497-646 872-3542 2172-4379 3677 100-557 1240-2346 1587-2831 1232-1719 2066-1823 2305-2446-313-670-975-853-1794-776-512 628-804 959-1220 1563-477 691-3835 3882-4284 4263 447-2391 2767-3874 2911-4103-297-638-756-850-1626-852-739 208-3899 4314-4630 5066l-501 407c47-2209 139-1497 903-3009 510-1010 693-1999 604-3330-807 70-1543 310-2063 593z" stroke="#fefefe" stroke-width="7.62"/><path d="m9061 20494c166-1021 1329-2673 1858-3346 384-489 817-913 1224-1302 202-193 400-420 648-618 275-218 432-265 665-480-152 705-3831 5260-4395 5746zm1992-11139 11 1560c858-387 2901-2026 5781-3321 766-345 1669-491 2312-799-1708-238-3049 759-4426 1084 923-1091 4824-3316 6630-3974 3362-1223 6143-772 7437 1935 2229 4665-2817 11963-5521 14346 508-2554 2330-3625 3453-5046-578-969-834-931-2288-1172-2590-429-4463 3104-5904 4652 574-2443 2749-3661 2961-3954-274-841-1406-1186-2093-570-717 643-1066 1272-1829 1664-62-1352 413-2026 421-2915-281 431-947 965-1182 1352-499 823 112 1523 283 2212-682 474-1312 1440-2238 2162l-2515 1977c262-1015 903-2289 1382-3118 290-504 591-911 906-1306 393-492 985-706 1171-1142-253-942-1239-821-2174-756-1347-1947-3247 790-4418 2480-806 1161-2795 4812-461 5476 856-1034 2291-3863 3469-4675-692 1638-1747 3014-152 4526 505-356 1682-1869 2175-2446-254 794-586 555 409 2461 338-1286 440-1566 1091-2601 407-648 1109-1735 1709-2175-526 1461-1314 3466 303 4393l146-205c18-30 104-170 126-212l1575-2998c32 37 66 52 77 125l292 890c78 375 181 748 326 1073 286 641 657 1330 1261 1653-598-1851-702-2992-656-5151 1109-731 2338-1989 4171-2328-720 1091-2697 2194-3292 4972-274 1280 532 2423 1687 2007 1734-626 7480-7991 7363-13140-111-4899-4818-7307-9833-5452-2692 996-5492 2997-7511 4813-886 796-1024 1435-2435 1643z" stroke="#fefefe" stroke-width="7.62"/><path d="m19810 32789c-15-29-31-110-33-91-13 123-203-625 462-2280 373-931 664-1472 1525-1777-126 1999-912 3073-1954 4148zm-4236-9c-37-831 178-1572 373-2388 169-705 56-579 533-892 285-187 703-380 1077-454-314 1636-1008 2905-1983 3734zm8823-2444c216-809 736-1511 1363-1776-233 729-832 1539-1363 1776zm-7891-1638c356-1721 2636-5558 3707-5762 546 2553-849 3164-1394 4169-340-102-52-32-324-240-304-231 139-43-265-199-855 632-641 333-826 1539zm-6351 1621 103 851c628 163 4774-1113 1398 3302-937 1225-1458 1753-2681 2690-2117 1622-6599 3404-4492-1975 877-2238 2884-5025 4262-6469 1421-1490 2662-2601 4751-3298 787-263 1550-270 2189-450-76-618-252-610-597-999-1203-1358-1178-1788-3011-611-3059 1964-7553 7282-8691 10897-1084 3444-92 7798 5441 4340 2381-1489 6152-4743 4629-7817l1131-411c-404 1654-959 2087 313 2953 547 372 267 364 840 624 953-1171 1639-1994 2310-3507 634-1430 33-1176 812-1190 160 289-1273 4064 1106 4639 2763-3145 2491-4816 3002-5421 535 480 17 955-203 1787-208 790-288 1691 9 2464 1084 2824 6457-271 6743-4641 85-1312-188-1455-300-2279 157 2196-163 3474-1409 4765-982 1016-2339 2070-4081 2620l432-2417c705-288 2770-325 3357-2672-405-436-480-569-1073-797l-407 709c-723-342-925-724-1627-804-800 512-518 1209-1441 908l-253-1510c-1151 363-851 717-1169 1320-416-252-689-517-1270-578-799 632-620 1518-1587 1068 108-1038 2175-1488 2098-4584-119-4800-4460 2583-5437 4871-456 1066-889 990-2061 1265-1037 243-1981 385-3136 357z" stroke="#fefefe" stroke-width="7.62"/><path d="m2391 16931c256-1970 1585-5206 2655-6921 422-677 955-1277 1278-1821-357-502-1427-1313-2311-1276-964 1202-3372 9182-3859 11640-425 2146-514 3143 1395 3805 150-2190 733-2943 1813-4076 791-829 2099-1960 3565-2358-1024 2315-5360 7409-5553 12496-59 1552 682 3769 2007 3989 183-351 404-2039 903-3416 398-1098 878-2021 1280-2966-613 556-1063 1495-1515 2420-351 718-916 2180-1255 2619-451-3364 1383-7526 2689-9871 795-1427 1528-2647 2456-3867 458-602 2526-3204 2635-3546-1904-1475-1512 171-2884 614-673 216-1150 375-1781 738-1409 809-2030 1716-2863 2375 417-1699 2703-4684 3661-5678 2681-2782 4333-3497 5100-4273-27-32-73-118-87-89l-1704-1024c-2330 1991-5447 6639-7075 9671-51 95-161 310-231 415l-232 301c-19 24-56 68-87 99z" stroke="#fefefe" stroke-width="7.62"/><path d="m12452 37974c3241-2082 9479-1957 13607-1737 1629 87 3415 374 4941 370l-451-1054c-4761-561-15875-1035-18097 2421z" stroke="#fefefe" stroke-width="7.62"/><path d="m25191 26983c309-336 462-785 722-1159 305-440 673-611 972-1040l-1202-813c-675 798-900 2019-492 3012z" stroke="#fefefe" stroke-width="7.62"/><path d="m26178 27112c579 52 354 111 756-257 195-178 366-374 554-567 386-396 891-736 1039-1388-367-193-658-289-1160-285-653 2242-1038 1623-1189 2497z" stroke="#fefefe" stroke-width="7.62"/></g><path d="m66909 6820c64 70 178 228 268 133 133-65 144-64 293-46 27 19 54 39 81 59 63 64 197 205 282 226 56 47 150 136 229 116 189-53 76-564 62-709-55-542-299-980-579-1443-426-628-839-1037-1470-1467-107-69-214-133-326-195-537-284-984-435-1582-536-616-90-1104-86-1717 11-125 13-248 29-372 48-1360 223-2371 658-3559 1350-226 135-445 273-664 419-1566 1068-2717 2152-3963 3579-2368 2885-4010 5830-4982 9440-142 569-265 1127-374 1703-554 3273-544 6028 191 9274 438 1670 989 3195 1855 4690-209-689-386-1388-529-2094-1101-4105-1099-7431-109-11572 1118-4002 2700-7040 5534-10075 440-462 875-884 1357-1300 757-641 1468-1169 2315-1686 1101-654 2085-1117 3351-1342 479-74 869-95 1350-46 193 23 366 55 555 101 69 16 137 30 206 47 126 42 247 87 370 138 236 98 443 199 664 327 177 105 300 205 455 337 89 71 176 136 269 202 9 8 18 16 26 23 93 81 179 163 262 254 0 0 43 15 46 16 59 50 133 111 190 25 5-2 10-5 15-7z" fill="#fefefe" fill-opacity=".501961" fill-rule="nonzero"/><path d="m67886 4409c72 80 199 257 301 150 150-73 161-72 329-52 31 22 61 44 91 67 70 71 221 230 317 253 62 53 167 153 256 131 213-59 86-633 70-796-61-609-336-1101-650-1620-479-706-942-1165-1650-1647-121-78-241-150-367-219-603-320-1104-489-1776-603-691-101-1240-96-1927 13-141 15-279 32-418 53-1527 251-2662 740-3997 1517-253 151-499 307-745 470-1758 1199-3050 2416-4450 4019-2658 3239-4502 6546-5593 10598-159 639-298 1266-420 1913-622 3675-611 6768 215 10413 491 1874 1110 3587 2082 5265-235-773-434-1558-594-2350-1236-4609-1234-8344-123-12993 1256-4494 3033-7905 6215-11313 493-518 982-992 1523-1460 850-719 1648-1312 2600-1892 1235-735 2340-1254 3762-1507 538-83 975-107 1515-51 217 25 412 61 623 113 78 17 155 34 232 52 141 48 277 98 415 155 266 110 498 224 746 368 199 117 337 230 511 377 100 80 198 153 302 227 10 9 19 18 29 27 104 90 201 183 294 284 0 0 48 17 52 18 66 56 149 126 214 29 5-3 10-6 16-9z" fill="#fefefe" fill-rule="nonzero"/><circle cx="63611" cy="6273" fill="#fff" r="5000"/><path d="m64101 3475c2105 0 3810 1705 3810 3810 0 2104-1705 3810-3810 3810-2104 0-3810-1706-3810-3810 0-2105 1706-3810 3810-3810z" fill="#1f1b20" mask="url(#a)" stroke="#2b2a29" stroke-width="7.62"/><circle cx="64599" cy="7815" fill="#1c1b17" r="3084" stroke="#2b2a29" stroke-width="7.62"/><path d="m63807 2324c2439 0 4417 1977 4417 4416s-1978 4417-4417 4417-4416-1978-4416-4417 1977-4416 4416-4416z" fill="#1f1b20" mask="url(#b)" stroke="#2b2a29" stroke-width="7.62"/><path d="m43261 36365c-26-76-46-133-136-120-111-7-123-10-228-49-12-12-25-24-37-36-33-47-79-104-135-123-42-37-79-63-137-67-136-5-187 107-275 194-153 143-445 787-582 1013-50 78-100 156-150 234-108 170-208 333-297 513-216 279-438 529-681 784-51 53-102 105-154 157-943 898-1951 1439-3153 1921-711 269-1307 431-2033 619-680 182-1338 284-2040 342-699 41-1281 25-1974-56-564-71-1019-156-1566-279 152 173 321 331 501 475 994 518 1935 697 3047 790 1645 109 3005-53 4595-478 956-281 1733-584 2611-1047 593-318 1054-633 1557-1082 581-553 1031-1103 1347-1845 19-47 36-94 53-141 14-45 25-92 36-138 76-234 114-493 102-739-8-181-1-358-62-531-1-7-3-13-4-20-16-67-32-133-48-200 0 0-22-20-25-22-25-56-55-82-119-67-4-1-8-1-13-2z" fill="#fefefe" fill-rule="nonzero"/><path d="m45062 38034c-26-76-47-132-136-120-112-7-123-10-228-49-13-12-25-24-38-36-32-47-78-104-134-123-43-37-79-63-137-67-137-5-187 107-276 194-152 143-445 787-581 1013-50 78-100 156-150 234-108 170-208 333-298 514-216 278-437 528-681 783-50 53-102 105-153 157-944 898-1951 1439-3154 1921-711 269-1306 431-2032 619-680 182-1338 284-2040 343-699 40-1282 24-1975-57-563-71-1018-156-1565-279 151 173 321 331 500 475 995 518 1936 697 3047 790 1646 109 3005-53 4595-478 956-281 1733-584 2611-1047 594-318 1055-633 1557-1082 581-553 1032-1103 1347-1845 19-47 37-93 53-141 15-45 26-92 36-138 77-234 114-493 103-739-9-181-1-358-62-531-2-7-3-13-4-20-16-67-33-133-49-200 0 0-22-20-24-22-25-56-55-82-119-67-5-1-9-1-13-2z" fill="#fefefe" fill-opacity=".501961" fill-rule="nonzero"/><g clip-path="url(#c)"><image height="26917" width="21167" x="56024" xlink:href="Надпись_каждому_своё_Images\Надпись_каждому_своё_ImgID1.png" y="2770"/></g></svg>