<?xml version="1.0" encoding="UTF-8"?>
<!DOCTYPE svg PUBLIC "-//W3C//DTD SVG 1.1//EN" "http://www.w3.org/Graphics/SVG/1.1/DTD/svg11.dtd">
<!-- Creator: CorelDRAW X6 -->
<svg xmlns="http://www.w3.org/2000/svg" xml:space="preserve" width="28.386mm" height="28.386mm" version="1.1" style="shape-rendering:geometricPrecision; text-rendering:geometricPrecision; image-rendering:optimizeQuality; fill-rule:evenodd; clip-rule:evenodd"
viewBox="0 0 2839 2839"
 xmlns:xlink="http://www.w3.org/1999/xlink">
 <defs>
  <style type="text/css">
   <![CDATA[
    .fil0 {fill:#FEFEFE;fill-rule:nonzero}
   ]]>
  </style>
 </defs>
 <g id="Слой_x0020_1">
  <metadata id="CorelCorpID_0Corel-Layer"/>
  <g id="_631367208">
   <path class="fil0" d="M1419 0c-385,0 -433,2 -585,9 -151,6 -254,30 -344,66 -94,36 -173,84 -252,163 -79,79 -127,158 -163,252 -36,90 -60,193 -66,344 -7,152 -9,200 -9,585 0,386 2,434 9,585 6,152 30,255 66,345 36,93 84,172 163,251 79,79 158,128 252,164 90,35 193,59 344,66 152,7 200,9 585,9 386,0 434,-2 585,-9 152,-7 255,-31 345,-66 93,-36 172,-85 251,-164 79,-79 128,-158 164,-251 35,-90 59,-193 66,-345 7,-151 9,-199 9,-585 0,-385 -2,-433 -9,-585 -7,-151 -31,-254 -66,-344 -36,-94 -85,-173 -164,-252 -79,-79 -158,-127 -251,-163 -90,-36 -193,-60 -345,-66 -151,-7 -199,-9 -585,-9zm0 256c379,0 424,1 574,8 138,6 213,29 263,49 67,26 114,56 164,106 49,50 80,97 106,163 19,50 42,125 49,264 6,149 8,194 8,573 0,379 -2,424 -8,574 -7,138 -30,213 -49,263 -26,67 -57,114 -106,164 -50,49 -97,80 -164,106 -50,19 -125,42 -263,49 -150,6 -195,8 -574,8 -379,0 -424,-2 -573,-8 -139,-7 -214,-30 -264,-49 -66,-26 -113,-57 -163,-106 -50,-50 -80,-97 -106,-164 -20,-50 -43,-125 -49,-263 -7,-150 -8,-195 -8,-574 0,-379 1,-424 8,-573 6,-139 29,-214 49,-264 26,-66 56,-113 106,-163 50,-50 97,-80 163,-106 50,-20 125,-43 264,-49 149,-7 194,-8 573,-8z"/>
   <path class="fil0" d="M1419 1892c-261,0 -473,-211 -473,-473 0,-261 212,-473 473,-473 262,0 473,212 473,473 0,262 -211,473 -473,473zm0 -1202c-402,0 -729,327 -729,729 0,403 327,729 729,729 403,0 729,-326 729,-729 0,-402 -326,-729 -729,-729z"/>
   <path class="fil0" d="M2347 662c0,94 -76,170 -170,170 -94,0 -170,-76 -170,-170 0,-94 76,-171 170,-171 94,0 170,77 170,171z"/>
  </g>
 </g>
</svg>
