<?xml version="1.0" encoding="UTF-8" standalone="no"?>
<svg
   xmlns:dc="http://purl.org/dc/elements/1.1/"
   xmlns:cc="http://creativecommons.org/ns#"
   xmlns:rdf="http://www.w3.org/1999/02/22-rdf-syntax-ns#"
   xmlns:svg="http://www.w3.org/2000/svg"
   xmlns="http://www.w3.org/2000/svg"
   viewBox="0 0 595.27557 841.88977"
   id="svg6"
   height="841.88977"
   width="595.27557"
   version="1.1">
  <metadata
     id="metadata12">
    <rdf:RDF>
      <cc:Work
         rdf:about="">
        <dc:format>image/svg+xml</dc:format>
        <dc:type
           rdf:resource="http://purl.org/dc/dcmitype/StillImage" />
      </cc:Work>
    </rdf:RDF>
  </metadata>
  <defs
     id="defs10" />
  <path
     id="path2"
     style="fill:#fff;fill-rule:evenodd"
     d="m 512.8106,415.2407 c -4.2828,1.5171 -7.6572,2.8004 -11.7107,4.9864 -4.0227,2.1694 -8.1068,4.1882 -11.931,6.7051 -2.0331,1.3383 -4.163,2.4829 -6.2802,3.6783 -10.2932,5.8098 -20.3669,13.6533 -29.5693,21.0886 -4.0587,4.0181 -8.2562,7.8755 -12.2749,11.9483 -2.1163,2.1447 -4.2086,4.3393 -6.173,6.6243 -1.1251,1.3087 -2.3465,2.7788 -3.335,4.2755 0.1194,1.2696 0.233,2.5395 0.3626,3.8089 0.005,0.0496 0.009,0.0921 0.0122,0.1417 0.1766,2.5813 0.307,5.1554 0.2316,7.7437 -0.1228,4.2066 -0.7492,10.1478 -5.0981,12.1655 -1.4199,0.6587 -2.9727,0.7514 -4.4816,0.3702 -1.2677,-0.3206 -2.2295,-1.1081 -2.7938,-2.2879 -2.9322,-6.1302 0.0793,-18.6982 1.6327,-25.2414 1.1058,-4.6584 -5.1341,-18.0354 -7.1478,-22.4016 -1.6875,-3.6587 -3.4302,-7.293 -5.0902,-10.9641 -0.3263,-0.7214 -0.654,-1.4505 -0.9774,-2.1853 -0.1508,0.256 -0.2823,0.4814 -0.3886,0.6628 -2.2414,3.8262 -4.3161,7.7873 -6.3295,11.7374 -3.1649,6.2093 -6.2643,12.5498 -9.1329,18.9031 -0.3379,0.7487 -1.789,3.5819 -1.8644,4.3127 -0.0527,0.5105 0.6296,2.1835 0.8153,2.6427 1.4005,3.4665 2.9851,6.899 4.4359,10.3533 3.0033,7.1518 5.6344,14.4484 8.3747,21.7028 7.5251,19.9205 20.4979,56.1192 5.3586,74.8633 -2.8735,3.5578 -7.3321,6.0171 -11.7666,6.9826 -5.317,1.1571 -10.7391,0.2602 -15.2164,-2.9052 -11.5274,-8.1496 -15.9168,-33.6484 -16.9557,-47.1339 -1.7374,-22.5559 1.6069,-43.7409 10.5743,-64.4851 0.2815,-0.6508 0.4159,-1.2008 0.2401,-1.8938 -0.1735,-0.6838 -0.5655,-1.4239 -0.8929,-2.0458 -0.6165,-1.1704 -1.2435,-2.3046 -1.7668,-3.524 -2.9594,-6.8984 -6.2773,-13.6341 -9.3249,-20.4934 -1.1299,-2.543 -2.1509,-5.2126 -3.1867,-7.7978 -1.766,-4.4079 -3.5181,-8.8217 -5.2702,-13.235 -1.8201,-4.5853 -3.6371,-9.1718 -5.464,-13.754 -1.0406,1.7465 -2.037,3.5113 -2.9951,5.2212 -3.0506,5.4436 -5.9355,10.9973 -8.7324,16.5753 -4.6914,9.3563 -9.396,19.0808 -13.3693,28.7651 -1.4307,3.4875 -2.9917,6.9171 -4.4209,10.3975 -0.4868,1.1852 -1.1895,2.8619 -1.232,4.1627 -0.0417,1.2784 0.5292,2.9437 0.9315,4.1366 1.169,3.4656 2.4865,6.8944 3.674,10.3609 3.8213,11.1577 7.5682,22.3013 10.7257,33.6705 2.5962,9.3481 5.3039,18.6494 7.7828,28.0326 3.1669,11.9869 6.0437,24.0795 8.2735,36.2781 4.2718,23.3717 10.0984,66.4132 -11.6192,83.1804 -13.144,10.1481 -26.6222,3.9589 -35.4915,-7.7247 -6.8695,-9.049 -11.3992,-20.4559 -14.8136,-31.2174 -7.2768,-22.9362 -10.186,-57.4492 -6.2946,-81.2386 3.9104,-23.9072 11.3857,-46.7207 19.8167,-69.3579 0.5769,-1.5485 1.1322,-3.3202 0.7532,-4.9819 -0.2251,-0.9875 -0.7095,-2.0233 -1.1279,-2.9432 -0.7792,-1.7127 -1.5418,-3.3891 -2.1988,-5.1565 -2.0013,-5.3815 -4.2256,-10.6758 -6.2397,-16.0526 -2.0043,-5.3512 -3.825,-10.8482 -5.7282,-16.2428 -0.9238,-2.6186 -1.8505,-5.2375 -2.7941,-7.8497 -1.3161,2.4599 -2.6158,4.9283 -3.9064,7.4007 -0.4777,0.915 -0.9063,1.9378 -1.3269,2.8829 -0.7464,1.6761 -1.4806,3.3579 -2.2136,5.0397 -0.8357,1.9168 -1.6671,3.8352 -2.5061,5.7506 -0.4283,0.9774 -1.162,2.8718 -1.8046,3.6842 -0.8728,1.1033 -2.1075,1.6696 -3.5129,1.6107 -1.4055,-0.059 -2.5886,-0.7266 -3.3659,-1.899 -1.7946,-2.7068 -0.5148,-6.9466 0.3478,-9.803 1.1429,-3.7851 2.5895,-7.5544 4.0482,-11.2289 1.3158,-3.3154 2.6898,-6.6079 4.0844,-9.8907 0.8436,-1.9862 1.7328,-3.9781 2.5359,-5.9791 0.5513,-1.3748 1.8241,-4.3908 1.6452,-5.9275 -0.0961,-0.824 -0.4952,-1.8422 -0.7753,-2.6201 -0.7154,-1.9876 -1.396,-3.9401 -1.9831,-5.9731 -1.3632,-4.7197 -2.4962,-9.4703 -3.8154,-14.1883 -0.3189,-1.1412 -0.9734,-3.5949 -1.8318,-4.4759 -0.642,-0.659 -2.0378,-1.1761 -2.876,-1.4831 -2.7961,-1.0236 -5.7333,-1.8604 -8.5688,-2.7935 -9.1534,-3.0118 -19.126,-5.0908 -28.6405,-6.5682 -7.7612,-1.205 -16.1966,-2.1742 -24.2603,-2.2121 0.953,3.5399 2.0809,7.065 3.1867,10.508 1.522,4.7395 3.1176,9.4686 4.5204,14.2441 8.6383,29.4072 17.9048,58.9635 24.177,89.0019 0.5468,-0.235 1.0812,-0.4677 1.5908,-0.6831 2.9571,-1.2504 5.9142,-2.4908 8.9445,-3.5572 6.2263,-2.1909 14.7376,-4.4354 20.8057,-0.726 1.4573,0.8909 2.2124,2.4571 2.0015,4.1522 -0.4427,3.5643 -3.8627,6.3456 -6.614,8.2828 -3.3169,2.3355 -7.0328,4.3549 -10.6393,6.2079 -3.9572,2.033 -7.9671,3.8727 -11.9767,5.7546 0.1636,0.9301 0.3382,1.8581 0.5052,2.7723 0.6117,3.3466 1.2529,6.6884 1.8952,10.029 1.7246,8.9722 3.4719,17.9396 5.1537,26.9203 1.8411,9.8328 3.6674,19.7283 5.1199,29.626 0.5097,3.4722 1.0035,7.022 1.2461,10.5234 0.1698,2.4469 0.404,5.7832 -1.273,7.776 -1.0477,1.245 -2.5943,1.7671 -4.1823,1.4116 -3.736,-0.8365 -5.1794,-6.4077 -6.15,-9.57 -1.4474,-4.7149 -2.643,-9.5701 -3.7885,-14.3671 -1.04,-4.3552 -2.0251,-8.7234 -2.9889,-13.0958 -0.5629,-2.5529 -1.0896,-5.137 -1.6959,-7.6782 -3.1164,-13.0604 -5.5698,-26.5714 -9.3467,-39.4807 -7.6385,1.046 -7.763,1.2895 -14.815,8.9025 -15.4052,16.6309 -29.2201,34.3347 -43.6255,51.7964 -14.5125,17.5909 -32.1301,35.4367 -52.9154,45.4028 -3.6763,1.7625 -7.5121,3.4129 -11.3015,4.9087 -2.5634,1.012 -5.2126,1.997 -7.869,2.7321 -2.3391,0.6468 -5.3234,1.3246 -7.622,0.2511 -1.5438,-0.7208 -2.4679,-2.1869 -2.4526,-3.8905 0.0377,-4.2288 3.922,-6.4869 7.3486,-7.924 1.3745,-0.5763 2.8474,-1.0452 4.1913,-1.6549 36.2571,-16.4557 58.4059,-46.1276 83.1971,-75.7908 4.4847,-5.3659 9.3917,-10.3339 14.0516,-15.5403 2.2612,-2.5268 4.9439,-5.0043 7.3698,-7.3925 0.3912,-0.3852 0.7824,-0.7705 1.1733,-1.1563 -18.0995,-1.7895 -33.8426,-6.2878 -49.0575,-17.9688 -15.0271,-11.5367 -26.6749,-29.3315 -30.13,-48.0373 -2.1311,-11.5359 -0.5585,-23.5142 3.3857,-34.49 3.183,-8.8574 8.3837,-18.2537 14.9813,-25.0384 6.0597,-6.2317 15.1268,-12.3406 23.0236,-16.0713 5.794,-2.7377 11.7377,-5.0377 18.0057,-6.4216 1.8728,-0.4139 3.7468,-0.7311 5.6358,-1.0554 0.7228,-0.1238 1.4547,-0.2497 2.1799,-0.4025 -0.2705,-1.9531 -0.7671,-4.1289 -1.0007,-5.6321 -0.2276,-1.4636 -0.4796,-2.9228 -0.6899,-4.3889 -0.1392,-0.9706 -0.3189,-2.1484 -0.3079,-3.1167 0.0247,-2.1637 0.1511,-3.7429 1.7793,-5.3674 1.0755,-1.1472 2.5784,-1.5939 4.1091,-1.2198 1.5426,0.377 2.6757,1.4806 3.0932,3.013 l 4.2925,15.7595 c 4.303,0.3787 8.4821,0.5091 12.8616,0.6364 8.957,0.2605 16.8095,1.6197 25.5459,3.6669 6.0032,1.4065 11.9327,3.0602 17.7593,5.0811 2.641,0.9161 5.2552,2.1407 7.8041,3.2921 0.5315,0.2401 1.1052,0.5057 1.7042,0.7801 -1.3258,-5.9627 -3.0396,-11.895 -4.4479,-17.7846 -0.7832,-3.2748 -1.4953,-6.569 -2.0455,-9.8915 -4.3132,-26.0532 -7.4531,-52.8457 -7.8831,-79.2544 -0.2877,-17.6516 0.5819,-36.589 4.7673,-53.7871 3.4526,-14.1857 9.8271,-29.4364 22.4155,-37.8482 3.0603,-2.0449 6.3831,-3.6085 9.9074,-4.6692 12.3279,-3.71 26.3392,0.682 36.4292,8.0963 9.5683,7.0308 15.2073,16.8299 18.7219,28.0239 6.751,21.5008 2.0569,52.789 -2.5171,74.4947 -0.6599,3.132 -1.3592,6.2589 -2.0954,9.379 0.4975,-0.7361 1.0202,-1.4553 1.5693,-2.1549 4.718,-6.0111 11.0948,-10.1443 18.6834,-11.3862 12.0328,-1.9692 26.6426,4.2154 30.8279,16.2842 4.335,12.5002 -7.9234,44.5269 -12.6315,56.6209 -3.7108,9.533 -7.7153,18.976 -11.9395,28.2929 -2.9645,6.539 -6.0531,13.2012 -9.4462,19.5313 -0.5556,1.8831 1.8474,8.5303 2.5447,10.3499 1.4973,3.905 3.3619,7.73 4.7869,11.6265 1.0978,3.0016 2.3938,6.018 3.6289,8.9674 1.9942,4.7614 4.0328,9.506 6.1058,14.2336 2.1722,4.9533 4.379,9.9043 6.6943,14.7924 0.1587,0.335 0.3181,0.6701 0.4782,1.0048 2.2062,-4.5703 4.6245,-9.0813 7.0325,-13.4376 3.685,-6.6659 7.5909,-13.3299 11.7703,-19.6985 0.2035,-0.3098 0.6525,-0.9845 0.8379,-1.4219 -0.0836,-0.2568 -0.229,-0.5731 -0.3155,-0.7761 -0.3801,-0.8932 -0.7676,-1.7742 -1.1194,-2.6802 -3.6813,-9.4725 -7.7213,-19.1072 -10.209,-28.9715 -2.9894,-11.8533 -3.2933,-23.1397 -2.2654,-35.2802 0.7384,-8.7169 2.3267,-19.7034 9.3084,-25.7817 5.5154,-4.8019 12.7128,-5.2169 19.6095,-3.9362 17.5706,3.2627 22.8773,19.9443 22.1386,35.8804 -0.9559,20.6198 -9.4995,40.0187 -20.5444,57.1549 -1.1256,1.7468 -2.3304,3.3954 -3.5019,5.1033 -0.2223,0.3237 -0.8595,1.2359 -0.9411,1.6262 -0.1783,0.8524 1.9015,5.4952 2.2547,6.304 4.2454,9.72 9.263,20.0304 11.967,30.5495 0.4017,-0.5037 0.8079,-0.9941 1.2217,-1.4525 8.4685,-10.2452 19.1429,-18.7869 29.1047,-27.5298 0.1194,-0.1048 0.226,-0.1888 0.3561,-0.2803 5.472,-3.8543 11.1121,-7.4923 16.8148,-11.033 -1.4006,0.0646 -2.8015,0.1151 -4.1885,0.1695 -4.4484,0.1746 -8.9002,0.3064 -13.3511,0.3966 -4.8303,0.0975 -9.6843,0.161 -14.5148,0.0629 -2.4223,-0.0491 -7.4475,-0.0675 -9.6092,-1.086 -1.3283,-0.6261 -2.1816,-1.7773 -2.3944,-3.2303 -0.2126,-1.4533 0.2749,-2.8007 1.3682,-3.7812 2.6513,-2.3782 6.1419,-1.7693 9.3768,-1.7583 26.308,0.0896 51.4593,-2.6121 76.3146,-11.5081 9.9581,-3.564 19.567,-7.5495 28.9973,-12.346 7.8879,-4.0122 15.5438,-8.4733 23.157,-12.9793 0.9525,-0.5635 2.0342,-1.0128 3.0858,-1.3549 2.8449,-0.9255 6.5308,-1.355 8.487,1.5242 1.7798,2.6189 0.4742,5.4442 -1.3686,7.5279 -1.158,1.3091 -4.2523,3.0714 -5.783,4.0008 -3.0979,1.8814 -6.2379,3.7049 -9.3801,5.5114 -2.8973,1.6657 -5.8048,3.3154 -8.7228,4.9442 -1.8243,1.0182 -3.6751,2.073 -5.5369,3.0195 -12.7369,6.4774 -26.1674,11.6201 -39.998,15.2206 z M 332.8328,321.6416 c -2.9092,9.1981 -6.1042,18.3977 -9.7209,27.3189 -8.1368,20.071 -16.9449,40.0229 -26.9045,59.2605 -0.631,1.2189 -1.1659,2.5294 -1.0029,3.926 0.1202,1.0281 0.5522,2.1484 0.9255,3.1082 0.7022,1.8059 1.4327,3.5665 2.0461,5.4093 2.5027,7.5181 5.1165,15.0171 7.814,22.4672 1.7441,4.8172 3.5283,9.6332 5.4354,14.3886 0.1522,0.3793 0.3087,0.7727 0.4694,1.1758 0.5253,-1.2121 1.0423,-2.4278 1.5568,-3.6433 1.6333,-3.8571 3.1907,-7.8461 4.9312,-11.6468 7.0217,-15.332 15.7861,-29.6801 23.684,-44.5475 0.6344,-1.1943 1.3173,-2.346 1.9738,-3.5249 0.1301,-0.233 0.4524,-0.7878 0.5088,-1.0505 0.1136,-0.5327 -0.8688,-3.6695 -1.0347,-4.2103 -6.908,-22.5244 -12.001,-44.9201 -10.682,-68.4312 z m -21.5465,175.8316 c -1.595,4.4722 -3.0512,9.0131 -4.462,13.5448 -1.3686,4.3963 -2.6901,8.8095 -3.9628,13.2347 -0.8498,2.9551 -1.7138,5.9448 -2.4497,8.9303 -1.8261,7.4063 -3.5343,14.8546 -4.6755,22.4013 -1.4987,9.9088 -1.8805,19.5698 -1.2416,29.5722 1.0769,16.8497 2.5821,34.5673 7.8461,50.69 2.6736,8.189 11.3734,31.0736 22.2616,30.2521 2.5134,-0.1896 4.8387,-0.915 6.908,-2.3737 10.8995,-7.6839 10.5426,-32.3722 9.8047,-44.0838 -0.8299,-13.1738 -3.0279,-27.2152 -6.2588,-40.0329 -3.82,-15.1537 -8.0456,-30.3327 -12.3517,-45.3535 -2.8007,-9.7693 -5.6753,-19.5576 -8.8376,-29.2164 -0.8269,-2.5254 -1.6744,-5.059 -2.5807,-7.5651 z m 72.2512,-9.0742 c -0.4042,1.3206 -0.7883,2.6475 -1.1617,3.9724 -1.2016,4.2676 -2.3289,8.6264 -3.2762,12.9586 -1.0993,5.0273 -1.81,9.9749 -1.9973,15.12 -0.1931,5.3051 0.121,10.6495 0.4357,15.9446 0.3971,6.6867 0.964,13.3983 2.1608,19.9948 1.0973,6.0474 3.9067,18.2826 10.0902,21.2207 2.1685,1.0304 4.5213,0.7407 6.7295,-0.0111 1.6219,-0.5522 3.024,-1.417 4.1839,-2.6835 8.4169,-9.1902 1.4,-35.0073 -1.8748,-45.5933 -0.9703,-3.1368 -2.1753,-6.3202 -3.2967,-9.4088 -1.8842,-5.1899 -3.8109,-10.3657 -5.7674,-15.5287 -2.0254,-5.345 -4.0793,-10.6881 -6.226,-15.9857 z M 193.6692,370.7634 c -11.8349,1.4834 -27.2514,9.2481 -35.8656,15.7241 -10.9769,8.2519 -18.375,19.5505 -21.041,33.0843 -3.0254,15.3595 -0.7623,30.4806 7.4786,43.8633 6.8222,11.0789 17.2588,20.1736 28.8709,25.9639 2.4965,1.245 5.6024,2.2805 8.2482,3.1666 4.3566,1.459 8.8042,2.749 13.2704,3.8265 4.5117,1.0885 9.3646,2.0704 14.0023,2.3476 1.3814,0.0825 5.7612,0.1823 6.8973,-0.7469 1.8499,-1.5125 3.7468,-2.8647 5.7614,-4.1448 0.4434,-0.2815 1.3479,-0.7951 1.9145,-1.2135 -0.1346,-1.842 -1.5182,-6.9106 -1.8286,-8.1995 -4.4575,-18.5057 -9.4229,-36.9442 -14.129,-55.3935 -3.0328,-11.8891 -6.031,-23.798 -8.8172,-35.7475 -1.1588,-4.9691 -2.2827,-9.9507 -3.3088,-14.949 -0.5154,-2.511 -1.0177,-5.0437 -1.4534,-7.5816 z m 216.2152,41.4539 c 0.7166,-1.0874 1.3858,-2.1725 1.9828,-3.1516 2.5039,-4.1071 4.7942,-8.3911 6.9435,-12.6935 3.1595,-6.3252 6.4516,-13.3759 8.6454,-20.1002 1.1936,-3.6592 2.0253,-7.4758 2.4945,-11.2955 1.2583,-10.2453 0.2885,-27.068 -11.901,-30.5062 -4.0969,-1.1557 -9.22,-1.8402 -12.7834,1.0591 -7.1992,5.8575 -6.6158,24.4377 -6.3176,33.1874 0.3107,9.1043 1.9304,17.8209 4.7565,26.4733 1.2575,3.8503 2.6266,7.7009 4.038,11.4968 0.6877,1.8496 1.3924,3.7015 2.1413,5.5304 z m -57.2842,-34.6487 c 0.6738,-1.4712 1.3226,-2.9415 1.9544,-4.3801 1.8993,-4.3246 3.6967,-8.6894 5.5109,-13.0499 3.8163,-9.174 7.6657,-18.3322 11.3065,-27.5777 2.2473,-5.7064 4.9054,-11.2527 7.1666,-16.9631 2.4919,-6.2935 6.4831,-17.3041 3.4214,-23.9057 -1.6209,-3.4942 -5.0289,-5.292 -8.5748,-6.3416 -10.5075,-3.1111 -16.361,0.1836 -22.5037,8.2907 -10.345,13.6528 -6.8099,47.2008 -3.4052,63.1233 1.0712,5.0097 2.3193,10.0491 3.5903,15.0109 0.4949,1.9324 1.0006,3.867 1.5336,5.7932 z m -63.955,13.3463 c 0.0107,-0.0241 0.0212,-0.0484 0.0317,-0.0725 2.4888,-5.7014 4.8963,-11.4429 7.2938,-17.1831 2.27,-5.4349 4.5227,-10.8768 6.7842,-16.3154 1.4238,-3.4239 2.8281,-6.9037 4.3449,-10.2863 8.2018,-18.2889 14.681,-36.4944 19.5594,-55.9752 3.0739,-12.2737 5.9799,-24.6104 7.9617,-37.1146 3.0112,-18.9981 5.2999,-46.6481 -7.13,-62.9206 -3.9014,-5.1072 -8.9351,-8.699 -14.9006,-11.0412 -7.901,-3.102 -16.109,-3.6213 -23.5398,0.9626 -7.8539,4.845 -12.8741,14.0944 -15.4723,22.7319 -4.2024,13.9711 -5.3867,30.0991 -5.5874,44.6318 -0.2511,18.1811 1.0874,36.5847 3.2204,54.6335 2.1634,18.3061 5.2118,36.5973 9.0783,54.6211 2.3788,11.0891 5.0802,22.3562 8.3557,33.328 z" />
  <path
     id="path4"
     style="fill:#fff;fill-rule:evenodd;stroke:#fff;stroke-width:0.56690001;stroke-linecap:butt;stroke-linejoin:miter;stroke-dasharray:none"
     d="m 297.6378,123.3071 c 164.3811,0 297.6378,133.2572 297.6378,297.6378 0,164.3805 -133.2567,297.6378 -297.6378,297.6378 C 133.2567,718.5827 0,585.3254 0,420.9449 0,256.5643 133.2567,123.3071 297.6378,123.3071 Z m 0,12.1714 c 157.659,0 285.4664,127.8079 285.4664,285.4664 0,157.6584 -127.8074,285.4664 -285.4664,285.4664 -157.659,0 -285.4664,-127.808 -285.4664,-285.4664 0,-157.6585 127.8074,-285.4664 285.4664,-285.4664 z" />
</svg>
