<svg clip-rule="evenodd" fill-rule="evenodd" height="32.747mm" image-rendering="optimizeQuality" shape-rendering="geometricPrecision" text-rendering="geometricPrecision" viewBox="0 0 30638 3275" width="306.381mm" xmlns="http://www.w3.org/2000/svg"><path d="m911 3199c-76 25-169 68-208-23-73-90-79-95-186-145-22 1-44 3-66 4-62 16-171 46-233 25-57 7-127 19-175-21-121-104 47-350 100-458 350-717 1694-1287 2351-1562 10-3 72-25 75-28 640-250 1195-398 1875-489 791-164 1538-266 2342-341 191-17 381-32 572-44 3300-210 6492-116 9787 108 1117 79 2237 167 3350 289 2903 337 6176 706 9018 1341 27 7 1499 480 1035 491 126 56-155 148-196 160-4241-112-8866-716-13295-885-2318-31-4618-16-6931 160-1060 89-2107 190-3163 322-1269 158-2347 356-3587 620-59 12-118 20-177 29-33 8-65 15-98 23-342 82-685 162-1028 237-241 52-469 139-711 179-9 2-17 5-26 7-84 23-167 47-249 77 0 0-32-7-35-8-62 13-116 15-133-57-3-4-6-8-8-11z" fill="#fefefe" fill-rule="nonzero"/></svg>