<?xml version="1.0" encoding="UTF-8"?>
<!DOCTYPE svg PUBLIC "-//W3C//DTD SVG 1.1//EN" "http://www.w3.org/Graphics/SVG/1.1/DTD/svg11.dtd">
<!-- Creator: CorelDRAW X6 -->
<svg xmlns="http://www.w3.org/2000/svg" xml:space="preserve" width="306.381mm" height="32.747mm" version="1.1" style="shape-rendering:geometricPrecision; text-rendering:geometricPrecision; image-rendering:optimizeQuality; fill-rule:evenodd; clip-rule:evenodd"
viewBox="0 0 30638 3275"
 xmlns:xlink="http://www.w3.org/1999/xlink">
 <defs>
  <style type="text/css">
   <![CDATA[
    .fil0 {fill:#FEFEFE;fill-rule:nonzero}
   ]]>
  </style>
 </defs>
 <g id="Слой_x0020_1">
  <metadata id="CorelCorpID_0Corel-Layer"/>
  <path class="fil0" d="M29727 3199c76,25 169,68 208,-23 73,-90 79,-95 186,-145 22,1 44,3 66,4 62,16 172,46 233,25 57,7 127,19 175,-21 121,-104 -46,-350 -100,-458 -350,-717 -1693,-1287 -2351,-1562 -10,-3 -71,-25 -75,-28 -640,-250 -1195,-398 -1875,-489 -791,-164 -1537,-266 -2342,-341 -191,-17 -381,-32 -572,-44 -3300,-210 -6492,-116 -9787,108 -1117,79 -2237,167 -3349,289 -2904,337 -6177,706 -9019,1341 -27,7 -1499,480 -1034,491 -127,56 154,148 195,160 4242,-112 8866,-716 13295,-885 2318,-31 4618,-16 6931,160 1060,89 2107,190 3163,322 1269,158 2347,356 3587,620 59,12 118,20 177,29 33,8 65,15 98,23 342,82 685,162 1028,237 241,52 470,139 711,179 9,2 17,5 26,7 84,23 167,47 249,77 0,0 32,-7 35,-8 62,13 116,15 134,-57 2,-4 5,-8 7,-11z"/>
 </g>
</svg>
